<?xml version="1.0" standalone="no"?>
<!DOCTYPE svg PUBLIC "-//W3C//DTD SVG 1.1//EN" "http://www.w3.org/Graphics/SVG/1.1/DTD/svg11.dtd" >
<svg>
<metadata>
Created by FontForge 20110222 at Mon Mar  7 13:18:02 2011
 By www-data
Copyright (c) 2005 by Frantisek Storm, www.stormtype.com. All rights reserved.
</metadata>
<defs>
<font id="RegulaOldFace" horiz-adv-x="559" >
  <font-face 
    font-family="Regula Old Face"
    font-weight="400"
    font-stretch="normal"
    units-per-em="1000"
    panose-1="2 0 5 5 3 0 0 2 0 4"
    ascent="800"
    descent="-200"
    x-height="450"
    cap-height="694"
    bbox="-135 -320 1346 920"
    underline-thickness="50"
    underline-position="-100"
    stemh="20"
    stemv="93"
    unicode-range="U+0020-E006"
  />
    <missing-glyph />
    <glyph glyph-name="eth" unicode="&#xf0;" 
d="M301 675c22 2 27 6 36 6c10 0 10 -6 26 -6s54 12 69 12c14 0 4 -29 4 -45s-19 -17 -36 -17c-12 0 -18 0 -26 -1c15 -15 32 -25 45 -41c17 -22 24 -48 38 -71c8 -14 21 -21 27 -35c18 -45 17 -148 31 -169c10 -16 15 -34 15 -53c0 -11 -3 -24 -8 -34
c-21 -34 -20 -56 -26 -92c-9 -51 -67 -112 -118 -122c-37 -7 -70 -28 -106 -28c-38 0 -130 21 -149 56c-10 19 -51 47 -51 63c0 35 -44 62 -44 135c0 15 22 44 22 73c0 8 -6 16 -6 24c0 77 124 156 191 156c15 0 28 -8 41 -12c73 -24 56 -24 112 -71c18 -4 14 -1 14 0
c0 33 -56 145 -92 199c-5 -1 -7 -2 -13 -2c-9 0 -9 4 -28 4c-25 -1 -27 -12 -54 -12c-28 0 -33 -22 -52 -22c-18 0 -21 12 -21 25c0 14 5 23 5 33c0 13 8 15 33 15c26 0 59 5 73 5c-3 6 -17 17 -21 20c-18 13 -73 32 -73 56c0 10 6 22 8 31c23 -6 46 -37 70 -37
c47 0 9 -4 42 -28c8 -6 15 -11 22 -15zM402 356c-12 4 -31 34 -40 34c-6 0 -8 -7 -13 -7c-10 0 -54 19 -87 19c-39 0 -67 -31 -85 -62c-10 -17 -3 -39 -10 -58c-7 -18 -24 -14 -24 -41c0 -30 -7 -14 -7 -26c0 -19 17 -31 17 -51c0 -11 -5 -22 -5 -34c0 -47 73 -91 115 -91
c16 0 33 3 46 13c15 10 79 105 79 133c0 43 21 45 21 86c0 11 -8 20 -8 32s4 25 4 39c0 5 0 13 -3 14z" />
    <glyph glyph-name="Scaron" unicode="&#x160;" horiz-adv-x="539" 
d="M442 573c0 -12 5 -28 5 -43c0 -8 -1 -16 -5 -24c-36 4 -44 15 -54 51l-7 10l-11 4c-2 7 -3 14 -5 20l-21 12c-25 35 -33 56 -81 56c-43 -19 -97 -38 -109 -87c-12 -16 -12 -35 -12 -54l-5 -15c0 -3 21 -20 24 -21c16 -12 26 -32 44 -43l9 -13c32 -12 132 -41 158 -63
c25 -10 24 -4 33 -28l18 -8c14 -23 40 -33 41 -61c1 -5 2 -11 5 -14c8 -14 10 -30 12 -45c-2 -17 -3 -22 -3 -41c0 -16 -11 -29 -11 -46c-13 -34 -20 -58 -47 -85c-12 -12 1 -22 -31 -29c-25 0 -44 -23 -79 -23c-7 0 -15 1 -23 2l-20 -8l-8 1l-23 -6c-29 5 -42 15 -67 15
c-7 0 -15 0 -24 -2c-4 1 -9 4 -15 4c-2 0 -3 -2 -6 -2c-11 4 -20 12 -29 19c-7 15 -9 33 -9 49c0 28 -6 50 -13 77c-10 4 -17 12 -25 17l10 13l12 2l11 7l7 -3l9 10l8 -2c7 -5 8 -10 8 -18s-1 -13 -1 -21c0 -12 3 -13 12 -21c-1 -5 15 -30 18 -36c78 -20 48 -59 143 -59
c13 0 21 2 33 6c11 0 16 1 19 4c10 23 78 24 78 126c0 22 -8 38 -21 56c-1 10 -12 13 -20 16c-9 13 -31 39 -43 31l-15 -6c-8 4 -16 10 -23 15c-7 1 -13 2 -18 5l-12 19c-22 -1 -52 15 -74 19c-5 5 -12 8 -17 13c-6 0 -11 1 -16 3c2 7 -4 14 -9 16l-20 21
c-10 3 -19 9 -26 16c-4 18 -10 31 -26 44l1 7c-2 6 -3 9 -5 14c1 4 2 9 2 13l-19 20l4 11c-3 8 -4 14 -4 20c0 3 1 8 2 12c3 6 14 17 19 20l1 11l-2 14c5 22 23 41 29 62c10 3 18 8 26 16c9 1 20 13 25 14l2 -9l9 4l1 15l18 9l12 1l9 6c8 -3 18 -6 26 -7l2 7c20 0 42 0 61 2
c38 -12 66 -28 102 -42c16 0 36 -7 35 -27l4 -18c0 -7 6 -23 7 -27zM140 874c26 0 42 -8 52 -29c1 -4 70 -45 80 -45c21 0 67 74 118 74c5 -3 7 -8 7 -12l-7 -13c-7 -5 -50 -43 -52 -48c-8 -21 -49 -71 -74 -71c-6 0 -32 4 -36 6c-15 14 -23 36 -35 51c-16 20 -67 45 -67 76
c0 6 9 11 14 11z" />
    <glyph glyph-name="scaron" unicode="&#x161;" horiz-adv-x="352" 
d="M57 691c27 0 41 -14 49 -37c1 -2 70 -54 78 -54c26 0 67 91 118 91h2c4 -5 7 -10 7 -16c0 -26 -52 -53 -59 -75c-8 -23 -47 -88 -73 -88c-13 0 -26 4 -37 9c-7 7 -7 18 -17 25c-9 8 -11 25 -18 35c-8 10 -18 17 -25 28c-9 12 -25 18 -31 34c-4 10 -12 20 -12 32
c0 11 9 16 18 16zM170 -5c0 1 -1 1 -2 0h2zM173 457c6 0 48 -11 50 -15c16 -3 44 -7 57 -18c12 -17 23 -28 23 -49c0 -7 1 -12 3 -18c6 -8 10 -22 13 -31c0 -12 -2 -26 -17 -26c-36 0 -56 40 -64 69c0 4 -3 8 -4 12v1c0 22 -45 19 -57 23c-8 -5 -39 -31 -41 -32
c-6 -13 -7 -29 -7 -42c0 -7 3 -17 4 -24c15 -12 29 -23 44 -36l21 -5c62 -51 81 -14 103 -84c17 -17 17 -33 17 -55v-2c0 -50 -18 -54 -36 -92c-6 -2 -11 -3 -15 -6c-23 -33 -63 -28 -97 -32v0h-2s-1 -1 -2 -1l-5 -2c-4 1 -7 1 -9 1c-7 0 -13 -1 -19 -3c-4 1 -10 3 -13 7
l-4 5l-9 6l-45 9c-8 6 -14 15 -20 22c-1 3 -1 7 -1 9v4c-5 18 -11 35 -16 51l8 8v-3c1 12 2 22 6 33c2 1 4 3 5 3c6 0 12 -4 16 -7c2 -8 5 -16 7 -25c0 -3 3 -4 4 -5c1 -12 19 -16 27 -32l9 -5l1 -10c9 -13 24 -20 40 -20c34 0 59 22 69 55c-5 12 0 46 -21 50
c-10 32 -57 51 -84 67h1l-9 9c-9 9 -17 12 -25 23c-6 2 -13 5 -19 5c-13 28 -17 43 -21 71v4c0 5 -4 15 -5 20l5 9c0 25 17 52 33 71c9 2 17 10 26 16c0 5 5 5 10 5h8h7l6 5l8 4c2 -1 3 -1 7 -1c9 0 22 4 29 4z" />
    <glyph glyph-name="Yacute" unicode="&#xdd;" horiz-adv-x="813" 
d="M508 858c-10 0 -29 -12 -29 -24c0 -8 -49 -26 -53 -34c-10 -23 -25 -29 -50 -29c-7 0 -23 4 -23 12c5 8 11 15 19 20c30 21 42 61 76 83c8 5 7 16 15 23c6 5 27 6 35 6c6 0 14 -2 20 -5c4 -6 22 -8 22 -19s-22 -27 -32 -33zM350 116c-6 14 -6 55 -6 70c0 17 9 31 9 48
c0 12 -6 24 -10 36c1 6 0 14 4 20c-2 4 -3 8 -3 12c0 12 4 24 4 34c0 40 -41 70 -72 88c2 1 3 5 3 7s-1 3 -3 4c-14 48 -91 75 -98 129c-42 46 -55 56 -95 56c-11 0 -25 -1 -41 -2c-12 3 -24 15 -24 28c-2 5 -3 10 -3 14c0 15 10 29 24 33c3 -1 7 -1 10 -1c7 0 14 1 19 3
c4 5 10 11 16 11c9 0 23 -14 36 -14c25 0 62 8 86 16c9 -1 21 -3 30 -3c26 0 52 1 79 1h11c8 0 13 -6 22 -6c10 0 18 -13 26 -18c0 -39 -86 -28 -112 -50c5 -23 67 -72 87 -92c11 -11 7 -20 12 -27c27 -11 30 -70 64 -82c58 47 54 89 98 123c13 21 55 48 55 68
c0 28 -18 32 -40 32c-14 0 -42 4 -43 21c3 2 5 6 8 8c-3 1 -3 2 -3 3c0 7 14 15 18 17c41 -3 79 -3 120 -8c15 4 28 8 43 13c10 -2 24 0 33 -3c3 1 29 1 50 1c12 0 24 0 25 -1c4 -6 7 -15 11 -22c-7 -26 -34 -30 -58 -30c-9 0 -18 1 -25 1s-23 -8 -28 -11
c-11 -9 -18 -15 -30 -21c-7 -30 -47 -52 -66 -79c-13 -7 -17 -21 -24 -33l-6 -3c-7 -9 -16 -16 -20 -26c-20 -9 -76 -84 -80 -105c2 -7 9 -42 9 -45c0 -12 -2 -35 -6 -44c1 -9 1 -16 5 -24c-2 -4 -2 -9 -2 -13c0 -9 2 -19 2 -29c0 -1 0 -2 -1 -35c2 -5 4 -10 5 -15
c-2 -17 -2 -80 -6 -91c-6 -7 2 -9 4 -14c22 -7 19 -18 35 -18c22 6 43 -9 43 -23c-3 -25 -36 -32 -39 -34c-13 2 -25 2 -38 2c-15 0 -31 -1 -45 -1c-16 0 -39 5 -55 3c-13 -2 -24 -5 -38 -5l-12 2c-3 0 -5 -1 -8 -1c-15 0 -41 6 -41 23c0 2 7 29 16 28c10 10 32 8 48 12
c5 9 21 14 14 25c-3 10 -2 25 -3 37z" />
    <glyph glyph-name="yacute" unicode="&#xfd;" horiz-adv-x="467" 
d="M336 624c-12 0 -29 -18 -29 -30c0 -13 -20 -8 -27 -22c-4 -11 -23 -9 -27 -20c-10 -24 -22 -37 -50 -37c-7 0 -22 7 -22 16c0 0 86 119 95 127c8 7 7 19 14 27c5 6 28 9 36 9c10 0 42 -19 42 -29c0 -15 -23 -33 -32 -41zM417 450c22 0 20 27 41 11c3 -3 6 -11 6 -13
c0 -17 -9 -27 -9 -44c0 -10 -21 -13 -26 -18c-29 -19 -15 -42 -45 -65c-9 -4 -17 -20 -17 -27c0 -15 11 -8 0 -27c0 -13 -18 -46 -24 -54c-18 -26 -17 -73 -41 -92c-3 -38 -38 -78 -38 -99c-15 -16 -11 -57 -26 -87c-2 -3 -4 -8 -4 -11c0 -2 -8 -51 -11 -52c-3 0 -9 5 -11 5
c-5 0 -3 -34 -6 -39c-20 -43 -70 -111 -120 -114c-18 -1 -36 -15 -52 -15s-31 11 -45 11c-3 0 -23 6 -29 11c1 1 -10 11 -10 13c0 6 -7 10 -9 17c-3 8 -3 13 -3 21c0 23 28 52 51 52c43 0 27 -38 34 -53c7 -14 25 -27 39 -27c2 0 3 1 4 1c41 9 64 22 72 69c1 13 12 23 15 36
c0 3 -1 5 -1 9c0 19 20 33 22 47c2 13 23 58 23 85c0 15 -11 26 -17 40c-1 3 -2 0 -2 18c0 15 -25 71 -33 88c-1 1 -65 147 -70 153c-15 26 -26 98 -54 104c-13 0 -12 -14 -24 -14c-18 0 -28 20 -28 39c-1 20 7 35 15 37c9 1 19 3 29 3c35 0 46 -19 59 -22c10 0 17 -5 25 -5
c40 0 112 23 124 -9c0 -2 -4 -5 -8 -8c-15 -12 -61 -17 -61 -42c0 -5 12 -25 13 -31c1 -23 11 -41 21 -60c4 -40 33 -77 42 -110c7 -28 -7 -53 23 -67c23 -1 48 61 48 83c0 4 26 60 26 63c0 5 -4 8 -4 13c0 6 0 27 29 47c-3 5 -7 12 -7 18c0 9 12 10 12 13c0 4 -5 6 -6 9
c-25 68 -45 25 -64 70l1 14c8 19 33 2 46 2c7 1 12 6 19 6c-4 0 14 -4 26 -4c15 0 31 1 40 1z" />
    <glyph glyph-name="Thorn" unicode="&#xde;" horiz-adv-x="585" 
d="M250 211c61 16 43 -4 116 25c6 8 10 11 21 14c29 28 42 31 55 75c-1 4 -8 34 -3 51c-18 33 -22 57 -47 88c-1 10 -16 22 -18 29c-12 7 -101 30 -114 30c-19 0 -28 -4 -28 -24c0 -11 -3 -23 -8 -34l5 -22c-5 -8 -8 -18 -9 -27c3 -10 8 -19 12 -29c-4 -19 -3 -36 -5 -55v-2
v-2c-2 -1 -3 -2 -3 -4c0 -6 6 -13 7 -19c-1 -6 -3 -14 -7 -21c4 -21 3 -42 7 -63zM231 161c0 -6 -8 -78 -9 -81c1 -5 3 -9 5 -14c4 -4 68 8 66 -52c0 -14 -23 -24 -33 -24c-7 0 -13 1 -17 4c-7 -1 -15 -2 -22 -2c-25 0 -63 0 -84 5c-37 -10 -54 -6 -67 -6
c-15 0 -22 10 -22 28c0 6 8 17 10 23c10 6 23 9 34 12l15 25c-6 18 -6 52 -9 74l2 7c-1 3 -2 8 -2 11c0 23 9 41 9 63c0 12 -7 24 -10 36c1 6 0 14 3 20c-1 3 -1 8 -1 13c0 12 2 26 5 33c-1 15 -3 30 -4 45c3 8 6 16 7 24c0 2 -1 5 -1 8c0 8 7 33 2 54l4 5c-4 6 -4 18 -4 28
v15c-1 1 -3 17 -5 21c1 1 5 23 0 31l2 4c-1 6 -2 9 -5 15c3 31 -1 47 -2 51l5 8c0 7 -6 12 -12 14c-3 -1 -8 -1 -11 -1c-6 0 -29 1 -29 8c-1 10 5 23 12 23c13 4 26 0 37 0l4 2c11 -1 25 0 32 -4c5 5 19 20 37 7c24 0 49 -2 74 -4l6 -8c0 -6 -2 -13 -4 -19
c-7 -1 -34 -26 -34 -34c0 -10 7 -17 12 -26c-1 -10 -6 -18 -9 -27c14 -4 15 3 26 4c5 -1 12 -3 19 -3c5 0 25 8 30 9l21 -13l6 4l11 -3c11 3 22 8 33 8c10 0 20 -1 29 -2c15 -14 66 -9 85 -27c21 -7 38 -33 44 -53c18 0 37 -78 45 -100l-3 -16c8 -19 -3 -48 -13 -72
c0 -3 2 -8 2 -11c0 -18 -13 -32 -16 -48c-14 -9 -20 -29 -28 -42c-34 -6 -31 -6 -57 -26c-18 -5 -34 -14 -51 -20h-10c-37 0 -56 -12 -90 -19l-9 2c-7 9 -24 30 -44 26c-7 -3 -12 -8 -17 -13z" />
    <glyph glyph-name="thorn" unicode="&#xfe;" horiz-adv-x="494" 
d="M242 383c-32 0 -76 -28 -76 -64c0 -5 3 -19 -8 -57c5 -17 6 -35 6 -55s-2 -42 -2 -62c0 -1 2 -12 2 -54c0 -29 45 -39 64 -47l7 3l15 -5c37 8 73 32 106 51l8 28l17 15c4 8 4 16 8 22l-3 8c4 6 7 13 7 20s-4 15 -7 20l5 14c-6 31 -15 56 -22 88c-9 41 -11 35 -45 61
l-12 -4l-9 2l-5 6l-30 10l-6 -2c-7 1 -13 2 -20 2zM96 408c-4 8 -8 46 -8 55c0 12 9 23 9 36c0 15 -4 21 -9 37l3 8c-1 7 -1 15 -1 21c0 24 2 44 1 67c-1 16 -31 35 -34 50c0 12 17 17 25 24c14 5 43 6 65 6c14 0 30 -9 37 -20c2 -5 3 -9 3 -15c0 -4 -1 -9 -1 -14
c0 -9 -1 -15 -2 -23c1 -22 -16 -31 -16 -40c2 -7 13 -12 13 -19c0 -3 -7 -18 -7 -22c0 -5 4 -32 4 -51c0 -6 -1 -13 -2 -14c-2 -4 -3 -7 -3 -10c0 -5 5 -10 11 -17l4 -24l-4 -9c-3 -14 -9 -6 -13 -22v-10c2 -3 5 -6 7 -6h1c10 3 16 12 25 21v8c7 0 15 -2 22 -2
c1 0 23 17 24 18c0 2 6 4 8 4c5 2 9 5 16 6h4c10 0 22 -2 31 -2c8 -1 17 -4 25 -7c0 -2 7 -2 9 -2c14 0 34 -9 47 -16l16 -19l11 -3l3 -8c4 -1 8 -6 11 -9l4 -11c11 -8 13 -23 14 -35c3 -21 6 -24 6 -36c0 -4 0 -9 -1 -18v-5c0 -13 12 -41 0 -68c3 -6 8 -14 8 -22
c0 -24 -8 -42 -24 -61c-13 -15 -14 -31 -17 -49l-12 -6c-7 -11 -24 -24 -35 -30l-10 -1c-32 -27 -55 -33 -95 -33c-20 0 -38 -4 -57 -7c-8 0 -19 7 -25 8l-13 -6v-10l-3 -6c1 -16 9 -32 9 -48s-16 -40 -16 -58c-3 -21 6 -68 0 -84c0 -25 30 -28 47 -28c24 0 32 -13 41 -31
l-14 -19c-15 -14 -52 -3 -70 -11c-26 0 -23 10 -44 18c-2 1 -4 1 -7 1c-12 0 -31 -9 -42 -9c-41 0 -36 2 -62 27c-3 3 -4 6 -4 9c0 14 13 32 25 37c8 6 16 -10 29 2l17 25c-4 20 -8 41 -9 60c-1 9 -1 19 -1 28c0 21 1 41 6 61c-11 20 14 56 6 70c-6 9 1 18 1 37
c-3 19 -8 31 -10 49c-2 13 3 43 3 92c0 3 8 21 10 25c9 27 -7 38 -7 51s5 27 7 44c0 14 23 58 10 71z" />
    <glyph glyph-name="Zcaron" unicode="&#x17d;" horiz-adv-x="649" 
d="M311 864c13 -12 24 -23 36 -23c20 0 66 74 118 74c4 -3 7 -8 7 -12l-7 -13c-7 -5 -51 -43 -52 -48c-9 -21 -50 -71 -74 -71c-6 0 -32 4 -36 6c-15 14 -24 36 -36 51c-17 20 -67 45 -67 76c0 3 7 11 12 11h30c38 0 60 -51 69 -51zM606 176l-1 -92c0 -16 -8 -90 -28 -90
c-6 0 -21 5 -26 6c-12 -8 -8 -9 -21 -9c-18 0 -32 9 -48 9c-13 0 -20 -9 -32 -9c-16 0 -36 4 -59 4c-15 0 -28 8 -44 8c-54 0 -122 -4 -175 -18c-37 5 -63 15 -102 15c-8 0 -40 13 -40 21c0 13 91 141 107 159s40 32 51 54c17 34 29 60 61 83c15 11 41 46 39 68
c11 7 11 25 20 37c12 16 75 94 75 112c16 11 51 88 51 107c0 13 -51 13 -62 13c-32 0 -63 -12 -95 -12c-14 0 -23 16 -36 16c-16 0 -30 -9 -46 -9c-15 0 -31 -3 -46 -8c-18 1 -38 -128 -73 -128c-19 0 -30 19 -35 36c10 20 13 55 13 86c0 13 -2 25 -2 35c0 5 10 22 12 25
l37 21c7 -1 16 -2 24 -2c7 0 15 1 23 2c13 -5 25 -9 37 -15c9 0 17 4 25 4c9 0 17 -8 26 -8c10 0 18 8 28 8c20 0 43 -12 64 -12c20 0 42 14 52 14s21 -7 34 -7c17 0 34 5 51 5c15 0 26 -10 41 -10c22 0 43 5 66 5c21 0 36 -23 36 -41s-54 -79 -68 -92c-1 -6 -2 1 -2 -18
c-49 -62 -77 -153 -134 -208c-15 -15 -20 -38 -35 -55c-6 -24 -26 -45 -48 -58l-3 -22c-12 -16 -41 -66 -65 -66c-8 0 -3 -9 -3 -15c0 -29 -29 -41 -29 -58c0 -15 22 -17 32 -17c25 0 49 8 74 8c16 0 30 -7 46 -7h17c102 0 72 1 150 72c20 18 9 105 41 105
c21 0 25 -38 25 -52z" />
    <glyph glyph-name="zcaron" unicode="&#x17e;" horiz-adv-x="407" 
d="M108 691c27 0 40 -14 49 -37c0 -2 70 -54 78 -54c26 0 67 91 118 91h3c3 -5 7 -10 7 -16c0 -26 -53 -53 -60 -75c-8 -23 -47 -88 -73 -88c-13 0 -26 4 -36 9c-8 7 -9 18 -17 25c-9 8 -12 25 -20 35c-7 10 -17 17 -24 28c-9 12 -25 18 -30 34c-5 10 -13 20 -13 32
c0 11 8 16 18 16zM111 -9c-32 8 -40 9 -68 9c-4 0 -11 6 -17 7c-9 1 -12 16 -12 23c0 20 29 37 38 49c21 28 118 147 124 168c6 20 27 32 33 52c3 9 26 33 27 43c1 7 7 11 9 16c8 15 21 12 23 26c0 1 1 2 1 5c0 8 -7 9 -15 9c-18 0 -7 4 -24 4c-18 0 -35 -8 -52 -8
c-8 0 -16 10 -24 10c-10 0 -19 -5 -32 -5s-21 -1 -26 -5c-22 -16 -32 -66 -47 -66c-19 0 -26 31 -26 47c0 23 7 51 18 71c29 13 31 12 54 12c8 0 16 -7 24 -9c8 0 8 2 16 2c5 0 10 -4 17 -4c5 0 10 4 17 4c12 0 27 -6 41 -6c15 0 28 9 34 9c17 0 36 -3 55 -3
c9 0 16 -5 26 -5c15 1 27 3 40 3s25 -14 25 -26c0 -18 -8 -25 -16 -40c0 -1 -2 -6 -4 -6c-14 -9 -17 -19 -17 -21c0 -1 0 -3 -1 -4c-32 -45 -52 -92 -93 -133c-16 -15 -15 -47 -42 -73c-14 -14 -27 -31 -33 -49c-2 -1 -4 -4 -7 -4c-8 0 -6 -4 -6 -12c0 -6 -2 -13 -2 -18
c0 -8 3 -13 21 -13c12 0 21 7 31 7c13 0 20 -9 32 -9c7 0 14 4 23 4s16 -5 23 -5c12 0 32 28 41 36c10 9 23 63 32 63c12 0 17 -21 17 -34c0 -8 -3 -6 -3 -23c0 -13 3 -27 3 -37c0 -25 -1 -53 -26 -53c-18 0 -16 -5 -24 -5c-13 0 -20 6 -30 6s-15 -11 -24 -11
c-18 0 -43 13 -64 13c-34 0 -77 -3 -110 -11z" />
    <glyph glyph-name="onehalf" unicode="&#xbd;" horiz-adv-x="680" 
d="M227 611c0 -18 2 -37 2 -55v-113c0 -9 -5 -18 -5 -28c0 -6 3 -12 9 -12c10 0 20 4 30 4l4 -2c3 -4 4 -11 4 -16c0 -8 -1 -11 -9 -11c-21 0 -134 3 -144 9c-3 2 -4 6 -4 8c0 10 4 12 9 12s11 -2 15 -2c7 0 28 6 28 14c0 16 -6 33 -6 50c0 9 4 19 4 28c0 20 -3 40 -3 61
c0 13 4 25 4 37c0 5 0 12 -3 16h-25c-4 0 -8 -3 -12 -3c-13 0 -8 20 -11 29c7 0 14 5 21 5c9 0 17 -5 26 -5c16 0 31 6 48 6c11 0 19 -7 29 -7s21 3 31 3c5 -4 8 -11 8 -17c0 -8 -3 -13 -11 -13c-12 0 -24 6 -35 6zM-4 -196l-42 -39h-16l-9 15l17 24l14 9l42 72l49 59l9 24
l47 57l33 56l46 54l28 53l78 92l52 93l70 90l47 77l74 79l2 29l40 53l29 11h19l4 -20l-21 -33l-40 -56l-34 -51l-73 -98l-3 -15l-53 -63l-63 -101l-87 -122l-20 -15l-105 -173l-59 -65zM396 -8c-18 0 -43 3 -43 23c0 13 36 30 48 45c21 8 60 39 69 60c2 4 32 9 42 46
c5 7 8 14 14 20c1 4 1 9 2 13c-6 11 -11 22 -20 31c-14 2 -15 6 -21 9c-3 -1 -7 -1 -10 -1c-9 0 -18 1 -27 1c-28 0 -66 -60 -72 -60c-7 0 -9 4 -9 11c0 6 8 25 10 31c13 38 29 41 56 64c7 0 12 3 14 6c2 0 19 6 35 13h8c18 0 32 -23 58 -23c3 0 12 -4 14 -6
c2 -6 28 -38 33 -48c-4 -21 -7 -59 -27 -71c-10 -6 -14 -7 -17 -10c-1 -2 -4 -5 -8 -14c-3 -2 -7 -3 -11 -3c-9 -4 -46 -32 -51 -38c-10 -5 -17 -16 -21 -25l11 -10c7 0 11 1 19 5l7 -3c18 2 37 2 54 3c24 12 19 15 32 34c9 0 16 6 24 6s14 -7 14 -14c0 -12 -9 -16 -9 -25
c-2 -2 -6 -11 -9 -14c-1 -7 0 -12 -3 -19c-6 -2 5 -20 -32 -41c-11 2 -17 11 -26 17c-6 -1 -8 -1 -14 -4c-2 0 -13 -2 -14 -1c-6 -1 -14 -1 -19 -3c-4 0 -17 5 -18 5c-2 0 -11 -5 -29 -2c-9 -6 -26 -6 -28 -6c-5 0 -21 -3 -26 -2z" />
    <glyph glyph-name="onequarter" unicode="&#xbc;" horiz-adv-x="680" 
d="M227 611c0 -18 2 -37 2 -55v-113c0 -9 -5 -18 -5 -28c0 -6 3 -12 9 -12c10 0 20 4 30 4l4 -2c3 -4 4 -11 4 -16c0 -8 -1 -11 -9 -11c-21 0 -134 3 -144 9c-3 2 -4 6 -4 8c0 10 4 12 9 12s11 -2 15 -2c7 0 28 6 28 14c0 16 -6 33 -6 50c0 9 4 19 4 28c0 20 -3 40 -3 61
c0 13 4 25 4 37c0 5 0 12 -3 16h-25c-4 0 -8 -3 -12 -3c-13 0 -8 20 -11 29c7 0 14 5 21 5c9 0 17 -5 26 -5c16 0 31 6 48 6c11 0 19 -7 29 -7s21 3 31 3c5 -4 8 -11 8 -17c0 -8 -3 -13 -11 -13c-12 0 -24 6 -35 6zM-4 -196l-42 -39h-16l-9 15l17 24l14 9l42 72l49 59l9 24
l47 57l33 56l46 54l28 53l78 92l52 93l70 90l47 77l74 79l2 29l40 53l29 11h19l4 -20l-21 -33l-40 -56l-34 -51l-73 -98l-3 -15l-53 -63l-63 -101l-87 -122l-20 -15l-105 -173l-59 -65zM512 202c-12 -15 -21 -26 -34 -38c0 -1 -12 -18 -14 -24c-1 0 -15 -13 -18 -16
c0 -2 -2 -6 -3 -8c0 -5 -10 -18 -13 -22c-1 -2 -6 -15 -6 -16c0 -14 32 -10 37 -6c2 -1 9 -4 10 -4c43 0 44 11 44 28v5c0 11 2 22 9 36c-1 10 -6 21 -4 29c7 20 0 40 -8 36zM442 4c-3 0 -15 -6 -18 -8c-14 3 -31 8 -44 8c-8 0 -14 -5 -22 -5c-12 0 -24 9 -24 22
c0 15 12 28 13 39c29 15 28 20 55 50c5 6 1 11 1 12c0 7 19 21 26 23c13 17 11 16 14 21c2 8 6 14 11 21c14 10 33 30 37 49c4 2 61 67 66 77c6 4 16 6 24 6c7 0 12 -12 16 -18c1 -3 -6 -38 -6 -37c0 -7 2 -16 4 -24c-2 -17 -6 -35 -6 -53c0 -12 2 -23 2 -35
c0 -24 -8 -43 -8 -62c0 -7 4 -13 10 -13c17 3 32 7 44 20c9 -1 12 4 17 4s8 -3 12 -5c9 -13 10 -22 10 -38c0 -50 -6 -51 -11 -57c-6 -1 -15 -5 -19 -5c-18 0 -35 19 -54 20c-13 -5 -9 -25 -10 -35c-1 -14 -3 -28 -4 -42c-3 -27 0 -33 0 -39c0 -8 -7 -22 -17 -22
c-14 6 -19 8 -32 10c0 2 -18 9 -21 10c-6 30 4 62 4 67c0 10 0 42 -21 38c-8 -4 -18 -5 -27 -7c-6 0 -18 7 -22 8z" />
    <glyph glyph-name="onesuperior" unicode="&#xb9;" horiz-adv-x="349" 
d="M227 611c0 -18 2 -37 2 -55v-113c0 -9 -5 -18 -5 -28c0 -6 3 -12 9 -12c10 0 20 4 30 4l4 -2c3 -4 4 -11 4 -16c0 -8 -1 -11 -9 -11c-21 0 -134 3 -144 9c-3 2 -4 6 -4 8c0 10 4 12 9 12s11 -2 15 -2c7 0 28 6 28 14c0 16 -6 33 -6 50c0 9 4 19 4 28c0 20 -3 40 -3 61
c0 13 4 25 4 37c0 5 0 12 -3 16h-25c-4 0 -8 -3 -12 -3c-13 0 -8 20 -11 29c7 0 14 5 21 5c9 0 17 -5 26 -5c16 0 31 6 48 6c11 0 19 -7 29 -7s21 3 31 3c5 -4 8 -11 8 -17c0 -8 -3 -13 -11 -13c-12 0 -24 6 -35 6z" />
    <glyph glyph-name="threequarters" unicode="&#xbe;" horiz-adv-x="680" 
d="M-4 -196l-42 -39h-16l-9 15l17 24l14 9l42 72l49 59l9 24l47 57l33 56l46 54l28 53l78 92l52 93l70 90l47 77l74 79l2 29l40 53l29 11h19l4 -20l-21 -33l-40 -56l-34 -51l-73 -98l-3 -15l-53 -63l-63 -101l-87 -122l-20 -15l-105 -173l-59 -65zM512 202
c-12 -15 -21 -26 -34 -38c0 -1 -12 -18 -14 -24c-1 0 -15 -13 -18 -16c0 -2 -2 -6 -3 -8c0 -5 -10 -18 -13 -22c-1 -2 -6 -15 -6 -16c0 -14 32 -10 37 -6c2 -1 9 -4 10 -4c43 0 44 11 44 28v5c0 11 2 22 9 36c-1 10 -6 21 -4 29c7 20 0 40 -8 36zM442 4c-3 0 -15 -6 -18 -8
c-14 3 -31 8 -44 8c-8 0 -14 -5 -22 -5c-12 0 -24 9 -24 22c0 15 12 28 13 39c29 15 28 20 55 50c5 6 1 11 1 12c0 7 19 21 26 23c13 17 11 16 14 21c2 8 6 14 11 21c14 10 33 30 37 49c4 2 61 67 66 77c6 4 16 6 24 6c7 0 12 -12 16 -18c1 -3 -6 -38 -6 -37
c0 -7 2 -16 4 -24c-2 -17 -6 -35 -6 -53c0 -12 2 -23 2 -35c0 -24 -8 -43 -8 -62c0 -7 4 -13 10 -13c17 3 32 7 44 20c9 -1 12 4 17 4s8 -3 12 -5c9 -13 10 -22 10 -38c0 -50 -6 -51 -11 -57c-6 -1 -15 -5 -19 -5c-18 0 -35 19 -54 20c-13 -5 -9 -25 -10 -35
c-1 -14 -3 -28 -4 -42c-3 -27 0 -33 0 -39c0 -8 -7 -22 -17 -22c-14 6 -19 8 -32 10c0 2 -18 9 -21 10c-6 30 4 62 4 67c0 10 0 42 -21 38c-8 -4 -18 -5 -27 -7c-6 0 -18 7 -22 8zM183 202c-8 -3 -14 -10 -22 -12c-5 0 -11 1 -16 2c-18 -5 -16 -10 -39 -10c-5 0 -11 1 -14 5
c-10 -2 -23 23 -4 37c0 4 4 8 7 9c8 1 14 -1 19 -3c7 -5 14 -11 23 -14c14 5 21 21 37 17c1 2 4 10 14 10c0 6 9 22 14 26c3 6 7 11 8 19c3 15 4 19 7 32c-8 36 3 52 -48 53c-4 2 -10 2 -15 2s-14 -3 -19 -4c-4 1 -8 2 -12 2c-8 0 -16 -4 -25 -4c-1 0 -2 0 -1 8
c1 7 5 12 14 12c5 0 14 12 19 13c2 0 6 -1 8 -3c4 1 7 2 12 3c6 13 21 19 22 19c5 8 12 14 19 19c1 3 2 7 2 11c10 10 14 42 20 54c-16 56 -22 31 -65 49c-6 -2 -11 -3 -16 -7c-10 4 -26 -4 -30 -7c-5 -9 -21 -50 -30 -50c-2 0 -6 3 -2 6c0 7 -4 14 -4 21c0 2 -1 5 -2 6
c1 3 2 5 3 7c0 5 0 11 11 17c3 4 5 9 6 14c11 1 13 18 23 19c6 5 11 11 17 16c8 3 9 3 20 3c8 0 15 3 22 7c9 -3 32 5 37 5c7 0 17 -18 51 -36c1 -5 8 -10 11 -12c1 -7 4 -11 8 -17c1 -13 1 -15 1 -17c0 -17 -4 -34 -12 -50c-3 -4 -9 -3 -17 -9c-7 -11 -21 -16 -27 -25
c-3 -3 -4 -9 -1 -10c12 -2 31 -22 38 -23c1 -8 13 -11 17 -23c5 -5 6 -7 6 -11c0 -3 -1 -5 -1 -9c0 -5 7 -15 7 -23c0 -35 -36 -99 -63 -127c-12 -5 -23 -13 -38 -17z" />
    <glyph glyph-name="threesuperior" unicode="&#xb3;" horiz-adv-x="321" 
d="M183 202c-8 -3 -14 -10 -22 -12c-5 0 -11 1 -16 2c-18 -5 -16 -10 -39 -10c-5 0 -11 1 -14 5c-10 -2 -23 23 -4 37c0 4 4 8 7 9c8 1 14 -1 19 -3c7 -5 14 -11 23 -14c14 5 21 21 37 17c1 2 4 10 14 10c0 6 9 22 14 26c3 6 7 11 8 19c3 15 4 19 7 32c-8 36 3 52 -48 53
c-4 2 -10 2 -15 2s-14 -3 -19 -4c-4 1 -8 2 -12 2c-8 0 -16 -4 -25 -4c-1 0 -2 0 -1 8c1 7 5 12 14 12c5 0 14 12 19 13c2 0 6 -1 8 -3c4 1 7 2 12 3c6 13 21 19 22 19c5 8 12 14 19 19c1 3 2 7 2 11c10 10 14 42 20 54c-16 56 -22 31 -65 49c-6 -2 -11 -3 -16 -7
c-10 4 -26 -4 -30 -7c-5 -9 -21 -50 -30 -50c-2 0 -6 3 -2 6c0 7 -4 14 -4 21c0 2 -1 5 -2 6c1 3 2 5 3 7c0 5 0 11 11 17c3 4 5 9 6 14c11 1 13 18 23 19c6 5 11 11 17 16c8 3 9 3 20 3c8 0 15 3 22 7c9 -3 32 5 37 5c7 0 17 -18 51 -36c1 -5 8 -10 11 -12
c1 -7 4 -11 8 -17c1 -13 1 -15 1 -17c0 -17 -4 -34 -12 -50c-3 -4 -9 -3 -17 -9c-7 -11 -21 -16 -27 -25c-3 -3 -4 -9 -1 -10c12 -2 31 -22 38 -23c1 -8 13 -11 17 -23c5 -5 6 -7 6 -11c0 -3 -1 -5 -1 -9c0 -5 7 -15 7 -23c0 -35 -36 -99 -63 -127c-12 -5 -23 -13 -38 -17z
" />
    <glyph glyph-name="twosuperior" unicode="&#xb2;" horiz-adv-x="332" 
d="M59 318c-18 0 -43 3 -43 23c0 13 36 30 48 45c21 8 60 39 69 60c2 4 32 9 42 46c5 7 8 14 14 20c1 4 1 9 2 13c-6 11 -11 22 -20 31c-14 3 -15 7 -21 9c-3 -1 -7 -1 -10 -1c-9 0 -18 1 -27 1c-28 0 -66 -60 -72 -60c-7 0 -9 4 -9 11c0 6 8 25 10 31c13 38 29 41 57 64
c6 0 11 3 13 6c2 0 19 6 35 13h8c18 0 32 -23 58 -23c3 0 12 -4 14 -6c2 -6 28 -38 33 -48c-4 -21 -7 -58 -27 -71c-10 -6 -14 -7 -17 -10c-1 -2 -4 -5 -8 -14c-3 -2 -7 -3 -11 -3c-9 -4 -46 -31 -51 -38c-10 -5 -17 -16 -21 -25l11 -10c7 0 11 1 19 5l7 -3c18 2 37 2 54 3
c24 12 19 15 32 34c9 0 16 6 24 6s14 -7 14 -14c0 -12 -9 -16 -9 -25c-2 -2 -6 -11 -9 -14c-1 -7 0 -12 -2 -19c-7 -2 4 -20 -33 -41c-11 2 -17 11 -26 17c-6 -1 -8 -1 -14 -4c-2 0 -13 -2 -14 -1c-6 -1 -14 -1 -19 -3c-4 0 -17 5 -18 5c-2 0 -11 -5 -29 -2
c-9 -6 -26 -6 -28 -6c-5 0 -21 -3 -26 -2z" />
    <glyph glyph-name="brokenbar" unicode="&#xa6;" horiz-adv-x="154" 
d="M49 159h55v-359h-55v359zM104 454h-55v346h55v-346z" />
    <glyph glyph-name="multiply" unicode="&#xd7;" horiz-adv-x="550" 
d="M235 427c-20 20 -42 40 -44 44c-8 8 -2 11 -13 23c-10 12 -35 32 -45 43s12 26 23 37c12 10 27 -4 39 -17c12 -12 16 -11 27 -24c9 -10 41 -41 62 -62c3 3 6 5 11 9c18 17 37 47 57 65c21 18 18 20 31 32s23 5 32 -5c10 -10 7 -14 13 -23c9 -9 6 -15 -14 -33
c-18 -16 -24 -26 -34 -36c-9 -8 -30 -24 -56 -54c3 -2 6 -6 10 -10c16 -19 45 -38 64 -59c18 -20 19 -17 32 -30c12 -13 5 -23 -5 -32c-10 -10 -14 -7 -22 -14c-9 -9 -17 -5 -34 15c-16 19 -26 24 -36 34c-8 9 -23 29 -50 52c-20 -20 -39 -42 -44 -44c-8 -8 -11 -3 -22 -13
c-12 -11 -33 -35 -44 -46c-11 -10 -25 12 -36 24c-11 11 2 27 16 38c12 13 11 17 24 28c8 7 36 37 58 58z" />
    <glyph glyph-name="space" unicode=" " horiz-adv-x="262" 
 />
    <glyph glyph-name="exclam" unicode="!" horiz-adv-x="264" 
d="M144 -11l-9 4h-14l-24 15c-2 9 -6 22 -6 31v9c9 11 32 40 48 40h7c7 0 15 -1 20 -5c14 -11 21 -31 27 -48l-3 -9c2 -1 3 -5 3 -7c0 -19 -21 -30 -38 -30h-11zM174 659c21 -18 28 -59 14 -92l1 -21l-2 -6l2 -9l-5 -18c3 -15 0 -46 0 -54c0 -9 -4 -42 -4 -51
c0 -17 -8 -14 -11 -30c0 -5 -3 -22 1 -26s8 -15 9 -21c1 -10 1 -21 1 -31c0 -21 -10 -49 -10 -70c0 -13 -4 -29 -21 -29c-3 0 -21 -13 -26 -9c-12 19 -27 27 -27 91c0 13 -9 89 -9 100c0 8 3 8 3 21c0 4 -1 9 -1 12l1 9l-7 8c1 2 -4 44 -4 48c0 50 -5 50 -5 56
c10 5 13 9 13 14c0 1 -8 -3 -7 1c0 3 -8 19 -12 23c-12 18 0 12 2 41c-10 5 5 24 6 25c10 12 4 13 19 13c2 0 4 -2 6 -2c28 8 43 7 73 7z" />
    <glyph glyph-name="quotedbl" unicode="&#x22;" horiz-adv-x="422" 
d="M124 511c-1 -19 -5 -56 -31 -56l-7 3v7c0 8 2 17 2 24c0 5 -1 9 -5 13c-8 5 -9 28 -9 47v27c0 3 -2 9 -3 12c-4 4 -4 12 -4 20v21c0 13 -13 22 -12 25c-3 11 -4 22 -4 33c0 21 33 63 55 63c44 0 65 -47 65 -87c0 -26 -23 -80 -26 -101c-3 -11 -22 -41 -22 -49
c0 -1 0 -2 1 -2zM274 511c1 0 1 1 1 2c0 8 -16 55 -19 66c-3 21 -19 58 -19 84c0 40 30 70 65 87c19 9 65 -24 55 -63c-4 -11 -1 -22 -4 -33c-12 -10 -12 -18 -12 -46c0 -8 0 -16 -4 -20c-1 -3 -3 -11 -3 -15c0 -5 -10 -13 -10 -24c0 -19 -1 -42 -9 -47c-4 -4 -5 -8 -5 -13
c0 -7 -8 -10 -8 -18c0 -2 -8 -16 -8 -18h-12c-26 0 -7 39 -8 58z" />
    <glyph glyph-name="numbersign" unicode="#" horiz-adv-x="522" 
d="M231 155l41 116h-103l-42 -116h-59l43 116h-94v44h110l42 116h-102v43h117l42 117h57l-41 -117h103l43 117h58l-42 -117h95v-43h-111l-43 -116h104v-44h-118l-43 -116h-57zM288 315l43 116h-105l-42 -116h104z" />
    <glyph glyph-name="dollar" unicode="$" horiz-adv-x="539" 
d="M324 676c25 -10 46 -20 72 -31c16 0 39 -8 35 -27l4 -18c0 -7 6 -23 7 -27c0 -12 5 -28 5 -43c0 -8 -1 -16 -5 -24c-36 4 -44 15 -54 51l-7 10l-11 4c-2 7 -3 14 -5 20l-21 12c-9 14 -17 25 -24 34l-9 -42l8 -48l-7 -58l-8 -61l-1 -34c29 -10 56 -20 69 -31
c24 -11 24 -4 33 -28l18 -8c14 -23 40 -33 41 -61c1 -5 2 -11 5 -14c8 -14 10 -30 12 -45c-2 -17 -3 -22 -3 -41c0 -16 -11 -29 -11 -46c-13 -34 -20 -58 -47 -85c-12 -12 1 -22 -31 -29c-25 0 -44 -23 -79 -23c-7 0 -15 1 -23 2l-16 -6l1 -37l-9 -31l19 -27l-20 -33h-39
l-2 26l13 41l-1 55c-27 5 -40 14 -64 14c-7 0 -15 0 -24 -2c-4 1 -9 4 -15 4c-2 0 -3 -2 -6 -2c-11 4 -20 12 -29 19c-7 15 -9 33 -9 49c0 28 -6 50 -13 77c-10 4 -17 12 -25 17l10 13l12 2l11 7l7 -3l9 10l8 -2c7 -5 8 -10 8 -18s-1 -13 -1 -21c0 -12 3 -13 12 -21
c-1 -5 15 -30 18 -36c60 -15 56 -42 95 -54l-7 49l11 62l-6 61l11 41l10 54c-21 2 -47 15 -67 19c-5 5 -12 8 -17 13c-6 0 -11 1 -16 3c2 7 -4 14 -9 16l-20 21c-10 3 -19 9 -26 16c-4 18 -10 31 -26 44l1 7c-2 6 -3 9 -5 14c1 4 2 9 2 13l-19 20l4 11c-3 8 -4 14 -4 20
c0 3 1 8 2 12c3 6 14 17 19 20l1 11l-2 14c5 22 23 41 29 62c10 3 18 8 26 16c9 1 20 13 25 14l2 -9l9 4l1 15l18 9l12 1l9 6c8 -3 18 -6 26 -7l2 7c18 0 36 0 53 1l9 56l-10 31l9 26h39l1 -23l-10 -78v-22zM275 21h10c13 0 21 2 33 6c11 0 16 1 19 4c10 23 78 24 78 126
c0 22 -8 38 -21 56c-1 10 -12 13 -20 16c-9 13 -31 39 -43 31l-15 -6c-8 4 -16 10 -23 15l-2 -67l-14 -34l18 -21l-18 -61zM284 658c-7 1 -13 1 -21 1c-43 -19 -97 -38 -109 -87c-12 -16 -12 -35 -12 -54l-5 -15c0 -3 21 -20 24 -21c16 -12 26 -32 44 -43l9 -13
c12 -4 31 -10 52 -18l8 26l-7 52l5 48l10 51z" />
    <glyph glyph-name="percent" unicode="%" horiz-adv-x="772" 
d="M187 2l-34 -29h-17l-15 11l11 18l14 7l25 55l37 44l3 19l35 43l20 42l35 41l16 41l58 69l31 71l50 68l30 59l58 59l-6 22l30 41l28 8h21l11 -15l-14 -25l-28 -43l-22 -38l-53 -75l2 -11l-40 -48l-40 -76l-61 -93l-17 -11l-66 -132l-46 -49zM621 42c3 0 49 9 50 9
c10 8 6 21 13 31c12 20 27 83 27 105c0 5 -4 32 -10 32c-3 0 -5 -5 -9 -5c-7 0 -15 38 -26 38s-23 14 -34 17c-3 1 -7 1 -9 1c-9 0 -15 -1 -22 -1s-14 12 -21 12c-19 0 -12 -29 -43 -29c-4 0 -7 -1 -8 -4c-6 -12 -26 -90 -33 -90c-6 0 -9 -4 -9 -10c0 -21 11 -28 19 -43
c33 -62 39 -63 115 -63zM601 331c4 0 20 -5 25 -5c5 1 8 2 13 2c37 0 84 -47 101 -76c5 -8 19 -86 19 -97c0 -64 -32 -118 -86 -150c-21 -12 -50 -7 -75 -19c-1 0 -4 -1 -7 -1c-14 0 -24 8 -39 8c-13 0 -23 12 -36 18c-59 26 -77 83 -77 144c0 14 8 29 12 43
c5 21 5 44 17 62c24 35 43 61 88 61c16 0 30 10 45 10zM173 623c-3 0 -49 -9 -50 -9c-10 -8 -6 -21 -13 -31c-12 -20 -27 -83 -27 -105c0 -5 4 -32 10 -32c3 0 5 5 9 5c7 0 15 -38 26 -38s23 -14 34 -17c3 -1 7 -1 9 -1c9 0 15 1 22 1s14 -12 21 -12c19 0 12 29 43 29
c4 0 7 1 8 4c6 12 26 90 33 90c6 0 9 4 9 10c0 21 -11 28 -19 43c-33 62 -39 63 -115 63zM184 683c4 0 20 -5 25 -5c5 1 8 2 13 2c37 0 84 -47 101 -76c5 -8 19 -86 19 -97c0 -64 -32 -118 -86 -150c-21 -12 -50 -7 -75 -19c-1 0 -4 -1 -7 -1c-14 0 -24 8 -39 8
c-13 0 -23 12 -36 18c-59 26 -77 83 -77 144c0 14 8 29 12 43c5 21 5 44 17 62c24 35 43 61 88 61c16 0 30 10 45 10z" />
    <glyph glyph-name="ampersand" unicode="&#x26;" horiz-adv-x="747" 
d="M336 246c0 18 -35 33 -45 56c-7 2 -35 29 -36 39c-3 0 -37 44 -52 49c-35 -26 -38 -38 -63 -70c-3 -17 -24 -22 -28 -49c8 -8 13 -19 16 -29c-5 -11 -12 -20 -16 -30c5 -35 27 -55 61 -64c-1 -25 55 -34 71 -37c22 -5 66 1 82 13c15 8 31 15 46 23c8 3 9 11 9 19
c-8 18 -33 64 -45 80zM303 543c-2 12 4 24 4 30v24c0 40 -30 72 -68 82c-8 3 -17 -5 -26 -9c-3 -21 -25 -10 -24 -54c0 -5 5 -16 0 -24c12 -35 32 -88 64 -104c16 0 32 14 42 24c1 4 4 27 8 31zM521 349c18 37 46 50 40 68c0 26 -69 12 -69 38c0 24 47 34 62 40
c9 -7 104 12 109 12c3 0 19 5 23 6l13 -7c2 -11 11 -19 11 -33s-54 -26 -60 -49c-26 -23 -91 -95 -91 -125c0 -12 -15 -13 -22 -13c-5 0 -10 -1 -14 -6c-5 -26 -42 -46 -42 -66c0 -16 37 -62 50 -77c37 -16 12 -57 98 -57c20 0 57 1 61 19c19 -3 33 -17 46 -31
c-1 -6 -5 -14 -11 -19c0 -24 -34 -38 -54 -34c-5 -1 -14 -8 -18 -13c-24 7 -58 -10 -67 -12c-8 2 -27 13 -33 13c-4 -1 -45 24 -63 16c-8 11 -18 20 -31 27c-5 8 -13 26 -21 29c-6 7 -6 30 -8 40c-7 2 -14 18 -21 20c-23 -32 -48 -83 -85 -99c-14 -22 -53 -47 -87 -47
c-35 4 -43 1 -58 1c-11 5 -22 15 -29 25c-18 1 -34 18 -54 21c-8 11 -20 19 -30 27c0 5 -34 60 -36 62c2 19 -9 28 -5 46c1 15 -8 21 -8 33c6 10 4 29 10 40c0 31 4 36 12 65c10 17 13 15 25 44c45 30 44 48 99 70c14 6 16 1 16 17c0 27 -48 27 -75 78c-8 14 -14 11 -14 27
c1 7 -7 22 -9 27c0 29 12 57 20 86c23 17 38 17 52 44c32 17 53 5 96 12c7 1 15 8 23 8c18 0 48 -31 72 -32c4 -11 6 -20 22 -23c8 -13 31 -22 30 -49c5 -5 8 -15 8 -18c0 -22 -15 -68 -29 -85c-5 -5 -28 -16 -36 -23c-12 -9 -23 -20 -36 -26c-3 -2 -20 -4 -20 -10
c0 -10 57 -75 68 -95c56 -37 51 -35 78 -90c3 -7 4 -9 12 -9c45 0 67 89 80 87z" />
    <glyph glyph-name="quotesingle" unicode="'" horiz-adv-x="204" 
d="M124 511c-1 -19 -5 -56 -31 -56l-7 3v7c0 8 2 17 2 24c0 5 -1 9 -5 13c-8 5 -9 28 -9 47v27c0 3 -2 9 -3 12c-4 4 -4 12 -4 20v21c0 4 0 7 -1 9c-2 11 -12 5 -12 12c0 1 0 2 1 4c-3 11 -4 22 -4 33c0 21 33 63 55 63c44 0 65 -47 65 -87c0 -26 -23 -80 -26 -101
c-3 -11 -22 -41 -22 -49c0 -1 0 -2 1 -2z" />
    <glyph glyph-name="parenleft" unicode="(" horiz-adv-x="426" 
d="M190 43c17 -5 33 -52 56 -59c8 -18 98 -115 98 -116c0 -12 -30 -30 -43 -30c-26 0 -108 51 -117 66c-4 3 -11 22 -12 25h-3c-16 0 -19 13 -19 24c0 9 -2 13 -6 17c-8 11 -31 29 -76 151c2 3 4 10 4 14c0 12 -9 22 -17 30c0 19 -6 37 -7 54s0 32 0 49c0 14 2 34 6 57
c-2 8 -7 23 -4 33c12 33 -4 99 38 141c0 16 23 49 33 62c0 25 28 61 39 89c26 23 52 82 74 100c35 23 76 62 95 62c36 0 49 -27 48 -71c0 -30 -29 -48 -54 -31c-19 -4 -51 -36 -53 -44c-3 -8 -21 -48 -53 -50c0 -8 -41 -39 -45 -71c-2 -21 -11 -38 -11 -58
c0 -28 -5 -54 -6 -82c-3 -6 -18 -52 -18 -78c0 -10 -5 -23 -7 -33c3 -22 2 -47 5 -76c0 -9 9 -16 21 -38c0 -6 -1 -38 -3 -41c12 -18 13 -40 16 -59c3 -5 2 -25 21 -37z" />
    <glyph glyph-name="parenright" unicode=")" horiz-adv-x="424" 
d="M225 43c19 12 18 32 21 37c3 19 4 41 16 59c-2 3 -3 35 -3 41c12 22 21 29 21 38c3 29 2 54 5 76c-2 10 -7 23 -7 33c0 26 -15 72 -18 78c-1 28 -6 54 -6 82c0 20 -9 37 -11 58c-4 32 -45 63 -45 71c-32 2 -50 42 -53 50s-34 40 -53 44c-25 -17 -53 1 -54 31
c-1 44 12 71 48 71c19 0 60 -39 95 -62c22 -18 48 -77 74 -100c11 -28 39 -64 39 -89c10 -13 33 -46 33 -62c42 -42 26 -108 38 -141c3 -10 -2 -25 -4 -33c4 -23 6 -43 6 -57c0 -17 1 -32 0 -49s-7 -35 -7 -54c-8 -8 -17 -18 -17 -30c0 -4 2 -11 4 -14
c-45 -122 -68 -140 -76 -151c-4 -4 -7 -8 -7 -17c0 -11 -2 -24 -18 -24h-3c-1 -3 -8 -22 -12 -25c-9 -15 -91 -66 -117 -66c-13 0 -43 18 -43 30c0 1 90 98 98 116c23 7 38 54 56 59z" />
    <glyph glyph-name="asterisk" unicode="*" horiz-adv-x="397" 
d="M144 609c-4 13 -14 8 -23 13c-5 7 0 7 -13 8c-42 12 -64 22 -64 32c2 35 27 60 62 58c8 0 16 13 44 -45c13 -26 8 -21 38 -41c13 4 16 4 15 16c-2 31 0 57 0 68c1 8 6 16 14 24c2 1 20 7 22 7c32 0 59 -17 59 -38c-1 -30 -34 -42 -35 -43c-1 -6 0 -5 -24 -27
c-12 -11 -14 -29 13 -29c28 0 51 31 87 31c19 0 42 -23 37 -57c-1 -9 -4 -22 -12 -39l-19 -4c-34 17 -58 26 -86 26c-2 -2 -3 -3 -3 -4c-1 -1 -1 -2 -7 -13c4 -22 3 -18 25 -39c2 -2 13 -7 44 -21c13 -9 23 -18 35 -27c-2 -7 -4 -14 -6 -22c-3 -3 -16 -15 -21 -18l-28 -10
c-42 0 -21 2 -47 28c0 0 -9 7 -6 22c4 17 -19 15 -28 39c-5 -1 -10 -1 -14 -1c3 -17 0 -29 0 -32c0 -32 2 -43 -35 -74c-2 0 -6 -1 -11 -1c-19 -3 -36 18 -36 42c0 31 37 78 37 92c0 6 -5 13 -11 13c-9 0 -13 1 -16 0c-6 -1 -11 -8 -38 -37c-4 -6 -9 -9 -19 -8
c-35 -3 -50 12 -56 58v0v0c1 2 9 23 22 32c10 -1 46 4 55 -5c10 -11 46 10 49 26z" />
    <glyph glyph-name="plus" unicode="+" horiz-adv-x="424" 
d="M244 255c0 -28 1 -57 0 -62c0 -11 -6 -9 -7 -25s2 -48 1 -63c0 -15 -26 -9 -42 -9c-16 1 -17 21 -16 39c0 17 -3 19 -2 36c1 13 0 58 0 88c-4 0 -8 1 -14 1c-25 1 -59 -7 -86 -5c-28 2 -27 -1 -45 -1c-18 1 -19 13 -19 26c1 14 5 15 7 26c0 12 7 15 33 13
c25 -1 36 2 50 1c12 0 38 -4 77 -1c0 4 1 8 1 14c2 25 -6 59 -4 87c1 27 -1 26 -1 44c1 18 12 20 26 19c14 0 15 -5 25 -6c13 0 16 -8 14 -34c-2 -25 2 -36 1 -50c0 -12 -4 -37 -1 -72c28 0 57 2 62 0c11 0 10 -5 25 -6c16 -1 48 2 63 1c15 0 9 -26 9 -42
c-1 -16 -21 -18 -38 -16c-18 0 -20 -4 -37 -3c-11 1 -52 0 -82 0z" />
    <glyph glyph-name="comma" unicode="," horiz-adv-x="254" 
d="M64 51c-1 28 15 66 51 66c25 0 6 -5 30 -5s44 -30 44 -61c0 -30 -8 -72 -17 -90s-23 -48 -36 -52c-7 -2 -43 -40 -66 -40c-15 0 -18 12 -18 20s21 21 30 25c9 5 25 26 33 34s14 34 14 52s-24 18 -34 18c-11 0 -30 16 -31 33z" />
    <glyph glyph-name="hyphen" unicode="-" horiz-adv-x="310" 
d="M153 324c32 1 37 7 48 7c10 0 10 -6 26 -6s48 4 63 4c14 0 10 -21 10 -37s-21 -26 -38 -26s-19 -4 -36 -4s-31 -10 -44 -10c-12 0 -12 -2 -21 -2s-9 4 -28 4c-25 -1 -27 -12 -54 -12c-28 0 -25 -4 -44 -4c-18 0 -21 12 -21 25c0 14 5 23 5 33c0 13 8 15 33 15
c26 0 37 5 51 5c13 0 42 -4 50 8z" />
    <glyph glyph-name="period" unicode="." horiz-adv-x="264" 
d="M136 108h12c21 0 46 -13 46 -36c0 -2 -2 -6 -2 -9l2 -11c-6 -21 -17 -41 -32 -57c-10 -4 -23 -5 -33 -5c-21 0 -43 34 -57 49v9c0 11 3 25 7 36l29 19h17z" />
    <glyph glyph-name="slash" unicode="/" horiz-adv-x="397" 
d="M82 -196l-31 -39h-21l-21 15l7 24l14 9l11 72l29 59l-3 24l26 57l10 56l27 54l5 53l46 92l12 93l37 90l15 77l49 79l-15 29l21 53l31 11h25l17 -20l-7 -33l-19 -56l-13 -51l-36 -98l5 -15l-31 -63l-22 -101l-40 -122l-17 -15l-33 -173l-37 -65z" />
    <glyph glyph-name="zero" unicode="0" 
d="M267 431c-6 0 -78 -14 -80 -15c-17 -11 -11 -33 -21 -49c-20 -31 -43 -131 -43 -167c0 -7 6 -50 15 -50c6 0 9 7 15 7c11 0 24 -60 41 -60c18 0 36 -23 55 -27c5 -3 10 -3 15 -3c12 0 22 3 34 3s22 -19 34 -19c29 0 18 46 69 46c5 0 9 3 12 7c9 19 41 143 53 143
c9 0 13 7 13 15c0 33 -17 45 -30 70c-53 97 -61 99 -182 99zM284 527c6 0 32 -8 40 -8c7 1 12 3 20 3c60 0 134 -74 162 -122c7 -11 30 -137 30 -154c0 -101 -52 -187 -137 -237c-35 -20 -81 -12 -119 -30c-3 -2 -8 -3 -12 -3c-21 0 -39 13 -62 13c-22 0 -37 20 -58 29
c-93 41 -122 132 -122 228c0 24 12 47 18 70c9 32 9 69 28 98c36 56 68 98 140 98c25 0 47 15 72 15z" />
    <glyph glyph-name="one" unicode="1" 
d="M349 456c0 -36 3 -73 3 -109v-225c0 -18 -10 -35 -10 -54c0 -12 6 -25 19 -25c20 0 40 8 59 9l8 -4c5 -9 7 -22 7 -33c0 -16 -2 -21 -17 -21c-42 0 -266 5 -286 17c-5 4 -8 12 -8 17c0 20 8 24 18 24c11 0 22 -4 30 -4c14 0 56 12 56 28c0 31 -13 65 -13 98
c0 19 8 37 8 56c0 40 -6 80 -6 121c0 25 9 49 9 74c0 10 0 23 -7 31h-48c-9 0 -16 -6 -25 -6c-26 0 -16 40 -21 58c14 0 27 10 41 10c18 0 34 -10 51 -10c32 0 62 12 95 12c22 0 38 -14 58 -14c21 0 42 6 61 6c10 -9 16 -22 16 -35c0 -15 -6 -24 -22 -24
c-23 0 -47 10 -68 10z" />
    <glyph glyph-name="two" unicode="2" 
d="M100 -14c-32 0 -75 4 -75 39c0 24 62 53 84 79c37 15 105 68 121 105c4 8 55 16 73 81c8 12 14 25 24 35c2 7 2 15 4 22c-10 20 -20 39 -36 55c-23 4 -25 11 -36 15c-6 -1 -13 -1 -18 -1c-16 0 -31 2 -47 2c-48 0 -115 -106 -126 -106s-16 8 -16 19s14 44 19 55
c22 67 50 71 98 112c11 -1 20 5 24 10c3 0 33 10 60 23h14c33 0 56 -41 103 -41c5 0 20 -6 24 -10c3 -10 49 -66 57 -83c-6 -37 -11 -103 -47 -125c-17 -11 -24 -12 -29 -17c-3 -3 -7 -9 -15 -25c-5 -3 -12 -5 -19 -5c-15 -7 -81 -55 -89 -67c-17 -8 -29 -27 -37 -43l19 -17
c13 0 19 2 33 8l13 -5c31 4 64 3 95 6c41 21 32 25 56 58c15 0 27 11 41 11s24 -12 24 -24c0 -21 -15 -29 -15 -44c-3 -4 -10 -20 -15 -25c-2 -12 -1 -21 -5 -33c-12 -3 8 -34 -56 -71c-20 3 -31 19 -46 29c-11 -1 -15 -1 -24 -7c-4 0 -23 -4 -26 -1c-10 -2 -23 -3 -33 -6
c-6 1 -29 9 -31 9c-4 0 -19 -9 -51 -3c-16 -11 -45 -11 -48 -11c-9 0 -37 -6 -46 -3z" />
    <glyph glyph-name="three" unicode="3" 
d="M302 -194c-15 -6 -25 -18 -40 -23c-9 0 -19 3 -28 5c-33 -10 -29 -19 -70 -18c-9 0 -20 1 -25 9c-18 -4 -41 41 -8 65c1 7 8 14 13 17c14 1 25 -2 34 -5c12 -10 26 -20 41 -25c26 8 37 36 67 30c2 4 7 17 24 18c1 10 16 38 25 45c5 11 12 21 15 34c5 27 7 34 13 58
c-16 65 4 92 -86 95c-8 3 -18 4 -27 4s-25 -6 -35 -8c-6 1 -13 4 -20 4c-15 0 -30 -8 -45 -8c-2 0 -4 0 -2 14s9 23 24 23c10 0 26 21 34 23c5 0 12 -3 15 -6c7 1 13 4 21 6c12 23 38 33 40 34c8 13 22 24 33 34c3 5 4 12 4 19c18 18 26 74 36 97c-29 100 -40 54 -116 86
c-10 -3 -20 -5 -29 -11c-17 7 -46 -8 -53 -14c-9 -15 -37 -88 -54 -88c-3 0 -10 5 -3 11c-1 12 -8 25 -7 37c0 4 -3 8 -4 10c1 5 3 10 6 13c0 9 0 19 19 30c5 8 8 17 10 26c20 1 24 31 42 33c11 9 20 20 30 28c14 6 17 7 35 7c15 0 27 5 40 12c17 -6 58 9 66 9
c12 0 30 -33 92 -64c1 -9 14 -19 18 -23c2 -11 8 -19 16 -29c1 -23 1 -27 1 -30c0 -32 -7 -61 -21 -90c-5 -7 -17 -5 -30 -17c-14 -19 -38 -27 -49 -44c-5 -5 -7 -16 -1 -18c21 -3 54 -39 67 -41c1 -14 23 -19 31 -41c8 -8 10 -12 10 -19c0 -5 -1 -9 -1 -17s11 -27 11 -41
c0 -62 -64 -177 -112 -226c-21 -10 -41 -23 -67 -30z" />
    <glyph glyph-name="four" unicode="4" 
d="M298 336c-19 -25 -35 -43 -56 -62c0 -3 -21 -30 -23 -40c-2 0 -26 -23 -30 -27c0 -4 -4 -11 -5 -14c0 -8 -18 -30 -23 -36c-1 -3 -9 -26 -9 -27c0 -24 53 -16 61 -10c4 -1 15 -6 17 -6c72 0 74 17 74 46v9c0 17 2 36 14 59c-2 17 -10 35 -6 48c12 33 -1 68 -14 60zM181 7
c-5 0 -24 -10 -29 -14c-23 5 -52 14 -74 14c-13 0 -23 -9 -36 -9c-21 0 -40 15 -40 37c0 25 19 46 22 65c47 25 46 34 91 84c8 10 2 18 2 19c0 12 32 36 43 39c21 28 18 27 24 35c3 13 10 23 18 34c23 17 54 50 62 82c6 4 101 112 109 129c11 7 27 10 41 10
c11 0 20 -20 26 -30c2 -5 -10 -63 -10 -62c0 -12 3 -26 7 -40c-4 -28 -11 -58 -11 -88c0 -20 4 -38 4 -58c1 -40 -13 -72 -13 -104c0 -11 7 -22 16 -22c28 5 54 12 74 33c14 -1 20 7 28 7s14 -4 20 -8c15 -22 16 -37 16 -63c0 -83 -10 -86 -18 -95c-9 -2 -24 -9 -32 -9
c-29 1 -58 32 -89 34c-22 -9 -16 -42 -17 -59c-2 -23 -5 -47 -7 -69c-4 -46 0 -55 0 -65c0 -14 -12 -37 -28 -37c-23 10 -32 13 -54 16c0 3 -30 16 -34 17c-10 50 6 104 6 112c0 17 0 69 -35 63c-13 -7 -29 -8 -45 -11c-9 0 -29 11 -37 13z" />
    <glyph glyph-name="five" unicode="5" 
d="M320 -236c-37 -1 -75 -13 -111 -13c-33 0 -96 21 -125 37c4 11 32 10 39 12c32 27 77 0 115 40c21 10 45 15 57 36c29 9 31 57 31 77c0 120 -122 196 -134 209c-6 6 -14 7 -20 14c-24 5 -36 8 -60 17c-4 3 -17 18 -20 18c-19 -1 -24 16 -24 19c0 31 52 147 87 260
c15 6 32 10 46 18c48 -8 100 -4 118 -9c33 0 66 15 98 15s38 12 66 -35c-1 -17 1 -39 -12 -51c-1 -5 -6 -63 -57 -52l-23 9c-19 0 -22 5 -56 6c-17 1 -32 5 -49 7c-9 -6 -19 -9 -42 -13c-13 0 -27 11 -40 14c-43 -10 -42 -58 -42 -75c0 -13 76 -42 93 -48
c4 -12 17 -15 20 -15c7 0 9 -6 10 -11c6 -27 67 -37 76 -65c30 -38 46 -52 60 -96c10 0 25 -82 25 -105c0 -35 -53 -142 -74 -164c-9 -20 -28 -56 -52 -56z" />
    <glyph glyph-name="six" unicode="6" 
d="M156 441c0 -1 -4 -4 14 0c56 47 39 47 112 71c13 4 26 12 41 12c67 0 191 -79 191 -156c0 -8 -6 -16 -6 -24c0 -29 22 -58 22 -73c0 -73 -44 -138 -44 -173c0 -16 -41 -44 -51 -63c-19 -35 -111 -56 -149 -56c-36 0 -69 21 -106 28c-51 10 -109 71 -118 122
c-6 36 -5 58 -26 92c-5 10 -8 23 -8 34c0 19 5 37 15 53c14 21 13 124 31 169c6 14 19 21 27 35c14 23 21 49 38 71c13 17 33 28 48 44c15 15 20 42 46 42c18 0 31 10 46 21c33 24 -5 28 42 28c24 0 47 31 70 37c2 -9 8 -21 8 -31c0 -24 -56 -42 -73 -56
c-19 -16 -43 -24 -60 -42c-29 -31 -110 -145 -110 -185zM156 394c-3 -1 -3 -9 -3 -14c0 -14 4 -27 4 -39s-8 -21 -8 -32c0 -41 21 -81 21 -124c0 -28 64 -123 79 -133c13 -10 30 -13 46 -13c42 0 115 44 115 91c0 12 -5 23 -5 34c0 20 17 32 17 51c0 12 -7 34 -7 64
c0 27 -17 23 -24 41c-7 19 0 41 -10 58c-18 31 -46 62 -85 62c-33 0 -77 -19 -87 -19c-5 0 -7 7 -13 7c-9 0 -28 -30 -40 -34z" />
    <glyph glyph-name="seven" unicode="7" 
d="M98 280l-33 6c0 2 1 5 1 8c0 9 -2 23 -2 29c0 19 9 40 9 55c0 19 -11 36 -11 53c0 12 9 23 9 34c0 26 -15 29 -25 47l43 32l14 -33c11 0 20 7 32 7c18 0 37 -3 57 -3c26 0 52 7 79 7c13 0 23 -11 36 -11c48 0 94 5 143 5c20 0 38 4 57 8l29 -26c-9 -7 -61 -75 -65 -85
c-6 -12 -6 -25 -12 -38c-16 -34 -57 -58 -73 -95c-3 -8 4 -57 -18 -57c-17 0 -19 -47 -25 -61c-10 -21 -37 -27 -48 -49c-10 -22 -8 -47 -19 -70c-32 -70 -92 -138 -92 -221c0 -10 20 -22 29 -22c21 0 30 3 30 23c0 36 20 36 49 36h5s3 -1 11 -4c11 -11 16 -56 16 -72
c0 -52 -32 -74 -82 -74c-22 0 -118 32 -118 58c0 21 6 41 6 63s14 100 23 121c7 17 23 31 29 49c7 18 5 39 12 57c8 21 23 38 31 58c8 21 -3 39 19 51c9 7 22 48 38 64c19 19 11 42 19 64c8 21 26 39 35 59c5 10 21 16 21 25c0 21 -26 21 -40 21c-26 0 -51 -9 -66 -10
c-7 3 -10 15 -14 15c-12 0 -28 -24 -43 -24h-41c-16 0 -37 -84 -55 -100z" />
    <glyph glyph-name="eight" unicode="8" 
d="M238 348c-12 -8 -15 -24 -25 -33s-26 -12 -33 -25l-35 -106l5 -14c4 -4 5 -8 5 -13c0 -7 -1 -13 -1 -19c0 0 0 -38 11 -42c32 -12 12 -69 125 -69c83 0 119 63 119 141c0 44 -25 65 -42 101c-23 50 -100 37 -129 79zM185 374c0 11 -15 12 -23 16c-14 8 -33 11 -45 20
c-13 12 -16 28 -24 41c-9 15 -35 20 -35 39c0 31 10 63 10 93c0 12 -5 22 -5 34c0 16 4 18 12 18c5 0 11 -1 16 -1l10 4c22 29 40 106 88 106c34 0 63 20 96 20s60 -28 97 -28c25 0 85 -55 98 -77c2 -5 23 -91 23 -95c0 -58 -46 -99 -87 -132c-8 -6 -49 -19 -49 -26
c0 -2 1 -4 2 -4c8 -6 4 -13 12 -19c26 -19 71 -24 92 -55c8 -12 6 -27 11 -41c7 -15 21 -29 21 -46c0 -7 -7 -14 -7 -21c0 -13 12 -23 12 -35c0 -22 -10 -39 -15 -60c-1 -3 -3 -8 -3 -12v-5c0 -7 0 -12 -2 -18c-9 -17 -25 -27 -33 -47c-6 -11 -142 -71 -162 -71
c-13 0 -21 9 -40 9c-14 0 -55 6 -69 12c-13 5 -97 65 -98 75c-5 30 -31 61 -31 90c0 16 10 29 14 45c4 15 2 32 9 46c2 6 64 87 69 93c12 10 36 14 36 32zM318 421c18 11 16 38 30 52c4 6 53 11 53 51c0 11 -27 149 -29 152c-5 5 -79 38 -87 38c-16 0 -48 -8 -60 -14
c-19 -10 -56 -103 -56 -122c0 -17 19 -21 19 -54c0 -11 13 -45 26 -45c7 0 9 5 15 5c5 0 32 -34 39 -39c15 -12 32 -20 50 -24z" />
    <glyph glyph-name="nine" unicode="9" 
d="M389 87c0 1 -6 3 -14 -7c-30 -10 -107 -74 -133 -79c-4 -1 -6 -1 -9 -1c-10 0 -19 2 -28 2c-10 0 -12 -9 -24 -9c-23 0 -48 33 -62 49c-10 8 -22 10 -31 18c-25 20 -52 86 -52 118c0 12 12 17 12 35c0 22 -13 42 -13 58c0 57 71 141 74 169c3 21 45 37 60 56
c18 24 90 34 119 34c70 0 81 -28 138 -49c48 -17 98 -89 97 -140c0 -15 -1 -29 -1 -43c0 -26 13 -48 13 -71c0 -46 -31 -65 -31 -86c0 -17 7 -33 7 -50c0 -7 -1 -13 -4 -19c-26 -24 -27 -26 -27 -58c0 -5 -46 -97 -50 -104c-14 -18 -50 -21 -63 -39
c-18 -24 -76 -78 -105 -78c-18 0 -158 -78 -180 -78c-11 0 -22 7 -33 7c-35 0 -56 -22 -67 -22c-5 0 -7 13 -26 13s-36 -9 -54 -9h-5l-6 1l3 25c4 31 70 21 92 27c23 7 50 4 72 13c38 16 79 40 111 64c48 4 220 200 220 253zM404 149c0 8 -8 6 -8 8c0 4 11 12 11 30
c0 28 -6 59 -6 89c0 12 7 24 7 36c0 43 -19 58 -35 88c-24 48 -22 72 -88 72c-34 0 -33 -11 -59 -25c-39 -21 -47 -30 -47 -75c0 -29 -26 -40 -26 -57c0 -11 4 -21 4 -30c0 -15 -9 -29 -9 -43s16 -22 18 -35v-9c0 -12 -2 -25 -2 -36c0 -38 46 -89 85 -89c19 0 36 9 54 11
c12 3 31 29 39 29c3 0 6 -7 10 -7c9 0 14 25 38 25c10 0 14 -6 14 18z" />
    <glyph glyph-name="colon" unicode=":" horiz-adv-x="264" 
d="M136 108h12c21 0 46 -13 46 -36c0 -2 -2 -6 -2 -9l2 -11c-6 -21 -17 -41 -32 -57c-10 -4 -23 -5 -33 -5c-21 0 -43 34 -57 49v9c0 11 3 25 7 36l29 19h17zM131 331h-12c-21 0 -46 13 -46 36c0 2 2 6 2 9l-2 10c6 22 17 42 32 57c10 5 23 6 33 6c20 0 43 -34 57 -49v-9
c0 -11 -3 -25 -7 -36l-30 -19h-17z" />
    <glyph glyph-name="semicolon" unicode=";" horiz-adv-x="254" 
d="M64 51c-1 28 15 66 51 66c25 0 6 -5 30 -5s44 -30 44 -61c0 -30 -8 -72 -17 -90s-23 -48 -36 -52c-7 -2 -43 -40 -66 -40c-15 0 -18 12 -18 20s21 21 30 25c9 5 25 26 33 34s14 34 14 52s-24 18 -34 18c-11 0 -30 16 -31 33zM131 449l10 -6h17l30 -18c4 -11 7 -25 7 -36
v-9c-14 -15 -37 -49 -57 -49c-10 0 -23 1 -33 5c-15 16 -26 36 -32 57l2 11c0 3 -2 6 -2 9c0 22 25 36 46 36h12z" />
    <glyph glyph-name="less" unicode="&#x3c;" horiz-adv-x="547" 
d="M445 465v-58l-267 -133l267 -134v-58l-345 176v32z" />
    <glyph glyph-name="equal" unicode="=" horiz-adv-x="424" 
d="M185 235c32 1 107 7 117 7s10 -6 26 -6s48 5 63 5s10 -27 10 -43s-20 -18 -37 -18s-20 -3 -37 -3s-100 -6 -113 -6c-12 0 -12 -2 -21 -2s-9 4 -28 4c-25 -1 -59 -8 -86 -8c-28 0 -25 -3 -44 -3c-18 0 -21 11 -21 25s5 15 5 25c0 13 8 15 33 15c26 0 37 4 51 4
c13 0 42 -3 82 4zM185 415c32 1 107 7 117 7s10 -6 26 -6s48 5 63 5s10 -27 10 -43c0 -15 -20 -18 -37 -18s-20 -3 -37 -3s-100 -6 -113 -6c-12 0 -12 -2 -21 -2s-9 6 -28 4c-25 0 -59 -8 -86 -8c-28 0 -25 -3 -44 -3c-18 0 -21 11 -21 25s5 15 5 25c0 13 8 15 33 15
c26 0 37 5 51 5c13 0 42 -4 82 3z" />
    <glyph glyph-name="greater" unicode="&#x3e;" horiz-adv-x="547" 
d="M100 82v58l267 134l-267 133v58l345 -175v-32z" />
    <glyph glyph-name="question" unicode="?" horiz-adv-x="429" 
d="M122 327c26 45 87 71 107 99c20 12 34 30 42 51c31 31 28 75 14 114c-14 12 -27 22 -47 23c-10 -8 -17 -25 -32 -25c-12 0 -24 -30 -61 -29c-10 3 -36 11 -31 34c-3 6 -7 20 -8 26l14 17c26 21 46 0 62 19c28 -4 61 -8 87 -18c17 -19 48 -30 67 -50c5 -7 12 -8 12 -17
c4 -8 16 -15 24 -15c11 -18 -4 -16 9 -28c-1 -7 19 -14 -11 -38c3 -4 4 -9 5 -13c-1 -14 -3 -26 1 -38c-1 -13 -7 -30 -24 -37c-3 -12 -8 -22 -15 -34c-10 -16 -30 -17 -46 -26c-5 -1 -24 -8 -33 -17c-4 -7 -29 -31 -24 -40l2 -6c-15 -12 -29 -23 -35 -41l-7 -1l-9 -12
l13 -14l8 -41l-4 -16c-6 -2 -13 -2 -17 -2l-22 13l-1 9l-5 5c-3 8 -9 21 -16 25v7c-6 11 -12 26 -18 41l-3 4c-11 20 -4 52 2 71zM205 93h1c4 3 7 3 9 3c11 -6 22 -10 30 -17c2 -7 9 -8 11 -14c3 -3 5 -9 5 -13l-7 -39c-5 -6 -12 -12 -16 -20l-8 -4c-28 -14 -50 -10 -75 5
c-2 3 -6 6 -7 8c-12 30 -6 91 57 91z" />
    <glyph glyph-name="at" unicode="@" horiz-adv-x="580" 
d="M348 429c0 30 -20 50 -39 50c-41 0 -119 -115 -119 -220c0 -25 11 -42 36 -42c16 0 38 20 50 44l44 87c25 49 28 65 28 81zM259 58c-153 0 -248 106 -211 292c28 137 146 250 281 250c146 0 230 -112 211 -250c-11 -81 -97 -189 -200 -189c-34 0 -33 36 -20 94l12 53
c1 4 -3 6 -6 6c-2 0 -5 -2 -6 -4c-51 -129 -67 -149 -118 -149c-47 0 -67 41 -67 85c0 137 108 252 175 252c23 0 33 -6 46 -18l7 27c2 13 17 16 28 16c21 0 29 -5 24 -28l-51 -257c-4 -20 1 -29 12 -29c48 0 121 57 135 141c19 121 -73 226 -186 226
c-119 0 -220 -106 -246 -226c-34 -160 46 -267 185 -267z" />
    <glyph glyph-name="A" unicode="A" horiz-adv-x="700" 
d="M306 521c0 -13 -2 -23 -2 -32c0 -5 2 -9 2 -14c-15 -14 -18 -54 -28 -76c-4 -10 -19 -16 -19 -29c0 -6 3 -12 9 -15l16 3l7 -5c26 3 45 6 65 6c12 0 27 0 43 -4l27 5l8 8c0 15 -3 28 -11 36c-5 25 -11 43 -18 65c0 10 -15 62 -15 103c0 14 -22 44 -34 49l-9 -8
c-10 -32 -27 -62 -41 -92zM564 418l1 -8c-11 0 -12 3 -16 -20c-5 -2 -7 -9 -7 -14c0 -20 36 -65 36 -80c3 -8 15 -19 11 -36c0 -37 59 -171 84 -180c4 0 20 -28 21 -32c23 1 41 -6 41 -29c0 -11 -12 -20 -24 -20c-20 0 -43 1 -61 9c-18 -7 -26 -8 -36 -8c-9 0 -17 1 -34 2
c-9 -9 -18 -9 -20 -9c-6 0 -13 4 -16 9l-10 -3l-20 4c-1 -2 -20 -2 -25 -5h-15c-8 0 -52 2 -43 16c20 0 97 24 97 49c0 27 -20 67 -34 91l3 9c-5 25 -25 76 -25 104c0 4 0 8 1 10c-4 10 -10 16 -20 22l-7 1c-13 6 -32 10 -45 14c-28 -19 -45 -23 -78 -23s-52 37 -72 37
c-6 0 -8 -4 -8 -11c0 -31 -93 -185 -110 -234c7 -23 57 -39 80 -48c1 -5 2 -11 2 -18v-6c-4 -8 -12 -16 -20 -16c-3 0 -16 4 -21 5c-4 -1 -11 -1 -17 -1c-22 0 -45 4 -68 4c-26 0 -27 -3 -53 -16c-26 0 -22 4 -43 15c-4 -1 -10 -3 -16 -3c-7 0 -15 3 -19 9
c1 11 -13 26 -17 33c0 29 15 31 32 31h17c7 0 11 0 17 1l17 -6c18 22 39 42 55 65c8 8 13 34 19 46c37 0 72 92 72 122c6 26 23 39 37 56c0 8 3 16 6 22c-6 11 0 22 2 27c52 53 19 42 40 84c-2 8 -6 16 -6 25c0 1 3 15 4 16v14c0 24 9 16 31 29c1 8 2 30 15 31
c1 20 26 45 26 59c0 13 -16 22 -16 30c0 10 32 48 41 57c5 1 43 15 47 15c40 0 25 -62 61 -89c5 -22 9 -34 9 -50c0 -8 -1 -16 -3 -28c16 -19 24 -45 30 -68c17 -15 24 -77 32 -87c9 -21 22 -38 38 -25z" />
    <glyph glyph-name="B" unicode="B" horiz-adv-x="657" 
d="M252 535c0 -12 7 -22 7 -35c0 -14 -10 -25 -10 -39c0 -38 27 -87 70 -87c24 0 38 16 72 16c17 0 27 18 40 27c6 6 16 4 23 9c9 8 26 48 26 60c0 9 -15 13 -15 21c0 7 18 24 18 47c0 18 -11 54 -18 72c-4 11 -105 51 -123 51c-6 0 0 -7 -8 -7c-13 0 -24 7 -36 7
c-34 0 -46 -117 -46 -142zM258 317c0 -27 10 -54 10 -80c0 -24 -13 -49 -13 -73c0 -20 7 -41 7 -61c0 -14 -9 -22 -9 -31c0 -16 39 -29 51 -29c13 0 24 8 37 8c16 0 8 -26 28 -26c24 0 54 33 60 33c2 -1 3 -1 5 -1c54 0 82 99 82 138c0 72 -67 117 -127 136
c-9 2 -12 9 -21 9c-13 0 -11 -8 -20 -8c-22 0 -48 24 -69 24c-18 0 -21 -27 -21 -39zM347 718c19 -2 42 5 58 5c37 0 50 -32 75 -37c52 -12 81 -15 81 -76c0 -12 34 -47 34 -72c0 -12 -11 -23 -11 -36c0 -30 -17 -89 -52 -95c-9 -2 -61 -8 -61 -21c0 -9 37 -10 45 -14
c27 -12 111 -86 111 -116c0 -9 -10 -12 -10 -21s15 -17 15 -32c0 -25 -14 -50 -14 -76c0 -10 8 -16 8 -27c0 -4 -28 -43 -33 -45c-7 -3 -25 1 -28 -7c-8 -30 -9 -50 -60 -50c-7 0 -11 7 -18 7c-9 0 -18 -18 -32 -18c-10 0 -18 7 -29 7c-13 0 -24 -10 -37 -10
c-63 0 -127 2 -188 2c-12 0 -25 -16 -48 -16c-33 0 -65 -14 -98 -14c-12 0 -14 12 -14 21c0 12 5 23 5 33c0 11 -10 17 -10 28c0 10 42 46 52 48h3c8 0 20 -4 28 -4c5 0 14 4 14 10s-9 12 -9 22c0 28 13 56 13 83c0 15 -15 31 -15 42c0 27 17 56 17 84c0 14 -35 45 -35 67
c0 20 13 43 13 64c0 10 -5 18 -5 27c0 26 28 40 28 63c0 16 -7 29 -7 44c0 7 7 10 7 16c0 18 -13 33 -31 33c-35 0 -22 -35 -38 -35c-20 -2 -46 1 -46 22c0 12 8 12 8 22c0 8 -14 11 -14 21c0 19 22 75 45 75c14 0 29 -6 42 -10l13 9c18 -11 36 -14 58 -14c4 15 35 3 48 3
c9 0 16 5 24 5c4 0 18 -8 28 -9c17 0 29 4 40 4c12 0 10 -10 30 -12z" />
    <glyph glyph-name="C" unicode="C" horiz-adv-x="711" 
d="M650 -6c-23 0 -102 -19 -127 -37c-5 -4 -17 -8 -26 -8c-19 0 -49 0 -55 1c-22 6 -41 16 -65 16c-5 -4 -10 3 -14 4c-44 0 -72 37 -103 37h-21c-10 0 -20 1 -22 1c-59 19 -146 116 -162 174c-6 22 -7 31 -16 53l2 14c-5 27 -7 46 -7 75c0 3 -7 3 -6 12c2 7 3 15 3 22
c0 28 -6 59 -6 88c0 27 39 48 39 117c0 4 50 39 58 50c13 17 66 52 90 52c9 0 11 -11 24 -11c28 0 31 24 47 28c38 9 75 18 111 32c15 -6 32 -8 48 -8c20 0 39 2 57 2c7 0 58 -21 85 -21c8 0 13 4 19 8c5 0 9 2 14 2c7 0 13 0 19 -3c5 -32 14 -41 23 -43
c11 -33 1 -73 18 -103c1 -5 4 -11 5 -17c-5 -7 -25 -24 -32 -24c-13 0 -28 17 -37 25c-12 43 -45 70 -74 100c-2 -7 -26 8 -32 10c-11 16 -52 29 -69 29s-33 -5 -52 -5c-45 0 -88 -29 -116 -63c-10 -12 -24 -6 -44 -36c1 -3 -21 -32 -23 -36c-5 -7 -32 -105 -32 -113
c-5 -6 -3 -16 -5 -22c-1 -28 -1 -55 -1 -84c0 -8 1 -20 1 -33c1 -15 30 -115 35 -118c33 -26 74 -117 114 -117c17 0 46 -34 93 -34c54 0 106 14 152 42c2 0 9 11 10 12c15 20 48 21 68 56l16 28c2 13 9 40 24 40c5 0 12 -8 13 -12c-5 -19 -13 -104 -13 -125
c0 -7 -2 -13 -3 -19l3 -21c-5 -8 -18 -19 -28 -17z" />
    <glyph glyph-name="D" unicode="D" horiz-adv-x="781" 
d="M253 477c-1 -12 1 -27 3 -35c-4 -18 -7 -35 -7 -53c0 -57 9 -114 9 -172c0 -11 6 -21 6 -32c0 -24 -3 -47 -3 -71c0 -58 49 -81 104 -81c13 0 72 23 77 23c1 0 1 0 16 3c22 29 31 14 42 21c11 9 20 19 31 27c11 15 22 32 28 50c17 15 27 37 43 54c3 17 7 40 7 57
c-5 14 -5 17 -5 31c0 10 4 21 5 32c1 24 13 29 13 45c0 14 -10 21 -10 53c0 33 -21 59 -21 95c-14 7 -19 32 -36 48c-9 5 -16 15 -18 24c-16 10 -25 26 -43 33c-8 -1 -16 -2 -23 -5c-38 8 -50 25 -94 25c-26 0 -53 -6 -79 -9c-28 -16 -42 -30 -42 -59c0 -10 -3 -18 -4 -27
c3 -23 3 -23 3 -24c0 -4 -6 -20 -6 -25c0 -8 1 -21 4 -28zM742 456c0 -6 -1 -66 -1 -108c6 -21 -1 -58 -1 -68c-8 -19 -12 -38 -17 -58c-13 -9 -8 -30 -13 -42c-17 -47 -69 -113 -110 -139c-21 -3 -47 -26 -65 -39c-7 -1 -27 3 -31 3c-21 0 -26 -5 -48 -20
c-35 4 -82 -9 -116 -9c-19 0 -42 -2 -60 -6c-14 6 -31 11 -49 11c-14 0 -118 -12 -125 -17h-25c-16 0 -32 9 -32 23c0 4 0 6 1 8l-3 12c2 14 7 27 9 41l-5 14l1 6l13 3l9 -3c12 4 19 6 34 -2l11 6c2 11 3 24 9 35c4 38 4 83 4 121c0 6 -11 26 -12 36c-3 19 -4 38 -4 57
c1 11 -2 37 -2 46c0 6 2 39 2 46c-1 11 -2 24 -2 36c0 21 10 39 10 57c0 6 3 31 3 46c-3 12 -4 35 -5 51c-9 14 -6 33 -24 42c-6 1 -8 -4 -11 -7c-9 -5 -19 -12 -29 -17c-14 1 -19 9 -23 30l3 12c-3 4 -8 12 -8 15c0 16 16 28 29 29c8 -4 29 -7 36 -7c24 0 50 5 71 14
c30 0 43 -6 69 -6c12 0 20 -10 32 -10c13 0 39 12 53 16c6 0 13 -3 19 -5c27 11 42 -7 65 -6c12 0 20 -8 47 -1c15 -9 52 -26 71 -19c41 0 147 -54 162 -92c6 -15 19 -45 28 -55c20 -8 40 -64 30 -80z" />
    <glyph glyph-name="E" unicode="E" horiz-adv-x="677" 
d="M496 221c0 -4 -13 -7 -15 -7c-42 0 -33 120 -92 120c-15 0 -29 -2 -44 -2c-4 0 -10 1 -14 1c-20 -1 -35 -9 -52 -9c-1 0 -2 0 -10 1c-10 7 -28 16 -40 16c-11 0 -14 -32 -14 -39c0 -12 16 -16 16 -28c0 -15 -9 -30 -12 -44c1 -1 6 -50 6 -51c0 -7 -3 -14 -4 -19
c-3 -3 -3 -27 -3 -30c0 -9 0 -40 3 -46l-1 -4c8 -30 18 -32 46 -37c13 1 62 3 74 9l24 -5c3 1 8 -1 12 -4l12 4l10 -4h8c11 0 22 -3 34 -3h23c21 0 37 1 60 14c36 3 77 60 77 95c0 3 -2 5 -2 8c5 13 20 33 35 33c23 0 26 -16 26 -32v-14c0 -16 6 -29 6 -45
c0 -3 -2 -7 -2 -11c0 -2 3 -7 3 -9c0 -11 -4 -20 -6 -30c0 -11 -12 -36 -15 -47c1 -2 3 -5 3 -9c0 -7 -14 -17 -20 -21h-9c-13 5 -39 14 -54 14c-4 0 -6 -2 -10 -3c-3 0 -7 -1 -10 -2l-8 2c-5 -2 -15 -2 -27 -2c-44 0 -122 6 -137 6c-7 0 -22 -6 -29 -8c-9 2 -18 6 -27 8
c-14 -2 -41 -6 -54 -5c-4 3 -9 7 -14 11l-14 -11l-14 2c-9 -8 -126 -15 -132 -16c-5 -2 -10 -4 -16 -4c-5 0 -8 8 -8 12c0 1 0 1 1 2c-11 7 -35 40 -35 52s27 18 45 18c6 0 11 0 13 -1c16 3 18 12 18 27c0 18 -3 41 -8 61c-2 1 -2 4 -2 6c0 14 4 13 9 24v15
c-7 57 0 75 -5 82c13 50 15 121 -2 166c6 15 9 31 9 49c5 4 3 12 -1 27c-8 8 -10 34 -10 47l-8 8l4 5c0 5 -2 9 -2 13c0 18 7 39 7 57c0 3 -22 12 -24 12c-4 0 -16 -3 -23 -5c-16 0 -30 25 -30 38c0 12 12 35 26 35c10 0 23 -3 34 -4c7 2 14 4 20 4c18 0 34 -6 52 -6
c13 0 25 7 40 7c14 0 29 -3 45 -3h20c13 10 28 15 44 19l27 -9c10 0 32 0 40 3c9 6 27 11 40 11c6 0 23 -5 28 -8c4 -2 13 -3 18 -3h27c5 -6 14 -8 21 -10c45 10 105 3 105 -46c0 -7 -3 -15 -6 -21c1 -10 7 -15 11 -23c-4 -28 -3 -62 -18 -85l-6 -4c-27 3 -40 31 -55 48
c-36 4 -43 43 -54 48c-26 10 -13 45 -95 45c-41 0 -94 -29 -102 -29c-11 0 -21 6 -32 6c-29 0 -34 -57 -34 -78c0 -11 9 -81 13 -89c-7 -36 -4 -59 -13 -93l4 -11c-3 -5 12 -6 14 -6c6 0 11 3 17 5c6 -2 27 -2 31 -2h15l12 3c6 1 13 2 19 2h16c18 0 20 11 37 11
c3 0 8 -2 12 -2c12 3 26 11 32 21l-3 20c8 12 28 49 44 49c3 0 13 -3 15 -4l5 -17c-1 -5 -3 -10 -3 -15c0 -11 3 -20 7 -31c5 -20 0 -24 -1 -32l1 -2l-2 -8c0 -2 10 -137 10 -145c0 -1 -2 -8 -3 -9z" />
    <glyph glyph-name="F" unicode="F" horiz-adv-x="620" 
d="M44 -7c0 12 -13 26 -13 37c0 12 27 18 45 18c6 0 11 0 13 -1c16 3 18 12 18 27c0 10 -2 22 -2 32c0 3 -1 22 0 25c-2 5 -6 8 -6 10c0 13 4 14 8 24v19c0 11 -3 22 -3 34c1 44 -4 43 -4 53c0 8 5 39 5 56c0 7 -1 12 -2 13c2 24 8 49 8 72c0 5 -4 11 -7 16l3 7
c-3 14 -7 34 -3 46c0 16 -7 63 -7 70l-8 8l4 5c0 5 -2 9 -2 13c0 18 7 39 7 57c0 3 -22 12 -24 12c-4 0 -17 -8 -24 -5c-16 0 -29 25 -29 38c0 12 12 35 26 35c10 0 23 -3 34 -4c7 2 14 4 20 4c18 0 34 -6 52 -6c17 0 34 10 53 10c20 0 33 -7 52 -13c13 7 28 14 44 18
c16 -8 39 -13 57 -13c8 7 35 17 50 17c11 0 22 -11 32 -11c13 0 26 9 41 9c5 -6 14 -8 21 -10c5 2 12 3 19 3c39 0 86 0 86 -49c0 -7 -3 -15 -6 -21c-5 -4 -7 -13 -2 -24c6 -4 10 -11 10 -18c0 -27 -6 -57 -24 -77c-14 1 -31 25 -37 36l4 26c-13 4 -21 19 -34 23
c-22 0 -12 20 -36 20c-14 0 -25 17 -46 20c-17 3 -35 4 -52 8c-20 -4 -41 -8 -61 -8c-16 0 -29 11 -44 11c-10 0 -16 -11 -29 -11c-28 0 -25 -32 -30 -50c4 -6 4 -15 4 -23c0 -29 -10 -59 -10 -85c0 -22 11 -46 11 -70c-13 -3 -14 -24 -6 -32c0 -3 13 -4 14 -4
c5 0 12 2 18 4c8 2 26 0 31 -2c2 -4 8 -12 15 -12c8 5 30 5 47 5c18 0 20 11 37 11c3 0 8 -2 12 -2c12 3 26 11 32 21c4 16 28 69 49 69c3 0 13 -3 15 -4l5 -17c0 -5 -3 -10 -3 -15c0 -7 2 -14 3 -20c-9 -7 2 -44 -6 -53c9 -25 1 -63 10 -93c-4 -18 -10 -36 -12 -54
c-4 -5 -9 -9 -16 -9l-9 6c-21 27 -20 109 -73 109c-47 0 -91 -5 -106 -5c-19 0 -37 7 -55 7c-10 0 -13 -27 -13 -34c0 -14 6 -25 6 -40c0 -6 -2 -10 -4 -18c0 -13 8 -47 8 -65c0 -7 -3 -14 -4 -19c-3 -3 -3 -27 -3 -30c0 -9 0 -42 2 -50c8 -32 18 -33 46 -33
c21 0 37 -17 37 -39c0 -15 -16 -24 -29 -24c-10 0 -19 3 -25 9l-14 -11l-14 2c-3 -5 -16 -6 -21 -6c-36 0 -72 5 -107 7c-12 -4 -25 -9 -38 -9c-7 0 -17 5 -11 17z" />
    <glyph glyph-name="G" unicode="G" horiz-adv-x="759" 
d="M726 275c-4 -8 7 -17 -2 -22c-8 -3 -42 -25 -42 -35c0 -16 11 -33 11 -53c0 -30 -8 -70 -6 -99c-2 -6 -4 -12 -5 -19c11 -14 -5 -22 -14 -36c-14 -3 -22 -16 -34 -21c-34 19 -51 -6 -73 -14c-10 3 -19 8 -27 15c-38 6 -27 3 -35 2l-3 -12c-38 0 -68 3 -97 0
c-15 5 -29 11 -43 17l-15 -4c-39 13 -49 -7 -90 25c-6 0 -30 13 -36 16c-9 22 -31 60 -53 60l-22 35c-29 19 -33 52 -45 84c0 4 -12 16 -13 19c0 5 -12 35 -2 42c-5 5 -16 53 -18 64c4 14 11 34 11 49c0 13 -7 26 -7 41c0 6 7 11 7 18c-5 6 -9 12 -9 20c0 10 11 21 18 28
c26 20 24 43 39 68c6 2 10 21 11 28c48 36 65 53 122 78c4 7 20 22 25 25c7 5 23 6 40 6c21 0 42 -2 50 -3c14 5 43 6 57 6c22 0 45 -10 66 -11l13 5l7 -2c24 15 69 -19 79 -20c19 -1 23 -4 31 -7c0 5 12 16 16 16c7 0 14 -9 21 -13c8 -11 10 -28 10 -42
c0 -24 -3 -48 -3 -73c0 -16 -9 -78 -32 -78c-10 0 -34 37 -40 45c-3 17 -7 34 -13 50c6 15 -1 30 -5 36l-17 3c-6 7 -27 29 -31 29c-14 -3 -37 3 -44 5l-15 -9c-11 5 -20 13 -31 13c-21 0 -40 -9 -60 -9l-4 -5c-81 -16 -60 -47 -89 -48c-21 0 -51 -68 -55 -89
c-9 -17 -12 -27 -18 -35l1 -19c-4 -4 -10 -6 -15 -10c0 -13 -6 -33 -9 -63v-14l-8 -15c22 -37 21 -42 21 -45c-4 -7 -15 -18 -13 -28c5 -3 11 -9 14 -14l-9 -22c35 -25 27 -52 42 -88c8 -10 58 -57 58 -62c25 -14 22 -21 40 -40c31 5 56 -17 76 -19l19 5l19 -5
c6 2 16 5 24 5c2 0 6 -2 8 -2c3 4 8 5 12 5c8 0 16 -3 23 -3c4 0 7 2 9 3c10 8 25 6 33 13c26 22 15 59 28 84l1 34l8 10c-1 7 -2 16 -6 22c3 4 5 6 7 10l-7 11c6 13 8 17 8 30c0 11 -3 14 -10 17c-13 -1 -24 -2 -37 -2c-18 0 -74 17 -74 39c0 8 23 10 29 10
c43 7 101 -4 193 -2c12 0 37 -2 37 -19c0 -4 -6 -13 -8 -15z" />
    <glyph glyph-name="H" unicode="H" horiz-adv-x="789" 
d="M741 30c8 -16 -7 -22 -13 -31c-29 -5 -46 7 -72 1c-8 -6 -12 -17 -38 -7c-20 0 -110 4 -110 16c0 9 7 19 12 26c28 -1 36 17 57 23c0 10 -8 18 -13 26c1 6 1 11 4 14c4 63 9 76 9 91c0 22 -9 42 -9 65c0 26 -4 55 -4 82c-36 3 -68 6 -105 6c-26 0 -52 7 -78 7
c-24 0 -48 -15 -73 -15c-13 0 -24 9 -37 9c-5 0 -38 -11 -45 -12c0 -15 -1 -31 -6 -44c1 -9 1 -16 5 -24c-6 -10 0 -33 2 -51c-1 -9 -4 -17 -4 -26c4 -6 6 -12 6 -18c0 -37 -12 -75 -2 -116c17 -2 36 -1 48 -16c0 4 3 4 5 4c10 0 16 -13 19 -21c-14 -25 -28 -27 -41 -29
c-5 0 -11 2 -15 4c-7 -1 -15 -2 -23 -2c-25 0 -62 0 -83 5c-22 -4 -33 -7 -48 -8l-11 3c-4 -1 -6 -1 -8 -1c-15 0 -21 14 -21 33c16 8 38 16 52 26l11 12c-7 29 -14 95 -14 124c0 17 9 31 9 48c0 12 -7 24 -10 36c4 22 1 44 7 66c-1 14 -4 28 -4 40c0 23 11 50 11 74
c0 6 -2 12 -3 17c7 4 0 16 0 33c0 5 -2 30 -5 36c8 11 3 36 -3 50c8 43 -19 59 -30 57c-10 0 -23 2 -23 13c0 3 2 7 4 10c-4 13 0 29 85 21c19 18 33 11 37 7c24 0 86 3 98 -17c0 -10 -7 -20 -11 -28c-4 2 -7 2 -11 2c-12 0 -27 -13 -34 -22c0 -10 7 -17 12 -26
c-2 -10 -6 -18 -9 -27c0 -24 -4 -55 -4 -78c0 -7 3 -14 4 -19c4 -17 2 -38 7 -53c-3 -4 -3 -9 -3 -14c0 -15 12 -34 28 -34c12 0 24 7 36 7c16 0 32 -9 50 -9c25 4 148 -6 187 6c14 3 30 -5 45 -6c1 9 4 20 4 30c0 9 -10 26 -2 34c5 5 3 21 -6 37c1 7 4 15 4 25
c-4 5 -5 11 -5 18c0 8 5 85 6 88c-2 10 2 28 -10 30h-7c-23 0 -23 6 -41 6c-7 0 -16 13 -17 18c3 25 27 33 33 35l7 1c5 0 11 -3 15 -5c5 1 18 2 32 2c29 0 67 -2 73 -4c5 6 65 7 70 7c15 0 20 -21 18 -35c-15 -6 -44 -5 -48 -25l-10 -29c2 -7 6 -80 6 -93
c0 -22 5 -42 5 -62c0 -13 -10 -31 -10 -37c0 -31 4 -54 4 -84c0 -8 1 -16 2 -25c-2 -9 -9 -21 -5 -32c-4 -18 -5 -38 -5 -56c0 -50 12 -98 10 -149c1 -8 -1 -17 -1 -21c0 -7 4 -10 10 -12c5 1 8 1 12 1c6 0 29 -3 29 -9z" />
    <glyph glyph-name="I" unicode="I" horiz-adv-x="316" 
d="M51 666c-1 10 5 23 12 23c13 4 26 0 37 0l4 2c11 -1 25 0 32 -4c5 5 19 20 37 7c24 0 49 -2 74 -4l6 -8c0 -6 -2 -13 -4 -19c-7 -1 -34 -26 -34 -34c0 -10 7 -17 12 -26c-1 -10 -6 -18 -9 -27c2 -7 3 -15 3 -22c0 -5 -3 -14 -3 -19c-1 -12 -4 -25 -4 -37
c0 -34 15 -92 14 -145c-1 -18 -2 -50 -8 -66c1 -9 1 -16 5 -24c-6 -10 2 -52 2 -51c-1 -9 -4 -17 -4 -26c4 -6 6 -12 6 -18c0 -8 -6 -85 -7 -88c1 -5 3 -9 5 -14c4 -4 68 8 66 -52c0 -14 -23 -24 -33 -24c-7 0 -13 1 -17 4c-7 -1 -15 -2 -22 -2c-25 0 -63 0 -84 5
c-37 -10 -54 -6 -67 -6c-15 0 -22 10 -22 28c0 6 8 17 10 23c10 6 23 9 34 12l15 25c-6 18 -6 52 -9 74l2 7c-1 3 -2 8 -2 11c0 23 9 41 9 63c0 12 -7 24 -10 36c1 6 0 14 3 20c-1 3 -1 8 -1 13c0 12 2 26 5 33c-1 15 -3 30 -4 45c3 8 6 16 7 24c0 2 -1 5 -1 8
c0 8 7 33 2 54l4 5c-4 6 -4 18 -4 28v15c-1 1 -3 17 -5 21c1 1 5 23 0 31l2 4c-1 6 -2 9 -5 15c3 31 -1 47 -2 51l5 8c0 7 -6 12 -12 14c-3 -1 -8 -1 -11 -1c-6 0 -29 1 -29 8z" />
    <glyph glyph-name="J" unicode="J" horiz-adv-x="319" 
d="M21 -243c60 1 49 75 59 106c-4 13 -5 28 -5 41c0 45 13 90 18 135c8 69 10 139 11 210c0 10 7 21 7 33c0 14 -10 22 -10 30c0 12 7 24 8 37c2 18 -3 41 -3 58c0 23 7 47 6 70c-1 21 -7 44 -7 67c0 9 3 17 -2 23l2 4c-2 18 -37 49 -21 62c0 7 -5 11 -11 12
c-14 -2 -29 -4 -42 -4c-5 0 -22 0 -22 7c-9 18 8 34 24 34s23 8 49 8s4 -4 54 -3c19 18 33 11 37 7c16 0 32 -3 47 -3c24 -1 43 1 29 -28c-10 -2 -34 -26 -34 -38c0 -3 11 -20 12 -22c-2 -10 -9 -14 -9 -27c-1 -47 -4 -47 -4 -78c0 -17 11 -34 11 -52c0 -38 -4 -78 -4 -117
c0 -37 13 -57 -8 -88c1 -10 4 -21 4 -31c0 -40 -3 -81 -3 -121c0 -34 6 -67 6 -102c0 -51 -23 -169 -59 -191c-5 -15 -14 -40 -30 -46c-24 -10 -22 -20 -31 -26c-2 -1 -5 -1 -10 -1c-11 0 -27 2 -33 3c-10 -6 -22 -12 -33 -12c-14 4 -6 8 -60 8c-27 8 -40 14 -53 9l-33 20
c-3 8 -13 34 -13 39c0 26 31 56 56 56c31 0 28 -32 31 -52c5 -36 40 -37 69 -37z" />
    <glyph glyph-name="K" unicode="K" horiz-adv-x="699" 
d="M219 520c-6 -1 -16 -1 -19 -7c1 -5 3 -9 6 -10c8 -1 16 -8 16 -16c0 -14 -3 -23 -3 -36c0 -5 -5 -36 -1 -47c2 -7 -11 -8 -11 -15s8 -15 16 -15c19 0 32 27 48 34c52 24 53 39 80 84c9 4 22 11 25 21c29 10 24 43 57 49v11c10 4 48 35 48 41c0 11 -24 22 -32 27
c0 3 5 5 -24 5c-8 0 -17 3 -26 5c-5 7 -30 12 -30 17c6 5 9 8 9 14c0 2 -1 5 -2 9c6 1 13 4 20 4c20 0 36 -5 55 -5c6 0 13 1 21 2c12 -2 24 -3 35 -3c21 0 41 2 63 2c8 0 28 -5 32 -1c6 -5 12 -9 19 -9c14 0 20 -7 20 -20c0 -16 -23 -23 -33 -28l-4 1
c-56 0 -130 -90 -163 -130c-4 -7 -7 -18 -11 -25c-9 -13 -37 -7 -40 -25c-4 -12 -27 -23 -37 -32c-14 -13 -28 -31 -42 -46c0 -1 -23 1 -23 -7c0 -21 40 -32 52 -45c13 -15 43 -44 43 -66c0 -15 18 -22 29 -28c16 -11 84 -115 95 -133c19 -30 91 -57 126 -57
c10 0 12 -14 17 -19c10 -32 -23 -27 -44 -22c-39 -14 -93 -15 -137 -15h-26c-20 0 -38 2 -52 24c14 9 58 14 58 23c0 11 -12 16 -12 36c0 6 -8 7 -13 8c-14 -2 -23 4 -34 24l1 12c-19 13 -26 39 -42 57c-13 14 -27 27 -40 43c-24 30 -62 113 -100 120c1 -4 1 -7 1 -12
c0 -7 -1 -15 -7 -18c-1 -27 9 -38 9 -46c-6 -2 -8 -8 -8 -13c0 -13 6 -24 6 -37c0 -21 -10 -42 -10 -65c0 -3 2 -13 7 -18c-3 -11 -9 -22 -9 -34c0 -34 5 -63 43 -63c8 0 12 -3 18 -3c2 0 5 1 9 2c10 0 23 -17 19 -26c-5 2 -12 2 -18 2c-11 0 1 -14 -19 -14
c-12 0 -22 7 -33 7c-16 0 -33 -6 -49 -6c-23 0 -46 6 -68 6c-12 0 -19 -4 -32 -4c-14 0 -17 17 -17 22c0 28 35 11 35 68c0 14 4 29 7 43c-5 33 -1 42 -1 50c0 14 5 26 5 40c0 10 -6 25 -8 35c10 7 8 23 9 36c2 25 9 52 9 76c0 11 7 21 7 32c0 8 -6 16 -9 24c0 8 7 23 2 33
c-6 14 1 35 1 51c0 8 -4 15 -4 21c0 24 3 55 9 76c-4 8 -10 17 -15 25c-9 0 -18 7 -25 12c-7 20 -18 3 -32 3c-16 0 -46 14 -46 32c0 10 12 17 21 17c5 0 15 -6 20 -7c5 24 22 9 31 5c17 2 36 6 53 6c19 0 38 -14 51 -14c9 0 16 3 24 7c3 0 7 -3 11 -1c13 6 28 9 41 13
c3 1 6 1 9 1c7 0 19 -13 22 -22c0 -17 -14 -37 -29 -39c-16 -3 -30 -20 -30 -25c0 -52 15 -73 0 -89z" />
    <glyph glyph-name="L" unicode="L" horiz-adv-x="645" 
d="M595 -5c-25 2 -48 4 -73 7c-7 -9 -59 -19 -74 -19s-42 3 -54 12l-10 -3c-19 1 -40 5 -59 5c-18 0 -27 -11 -35 -11c-11 0 -20 11 -32 11c-13 0 -28 -12 -29 -12c-12 0 -23 9 -35 13c-5 -3 -9 -6 -14 -9c-9 1 -19 2 -30 2c-15 0 -71 -14 -102 -14c-2 0 -6 1 -8 2
c-4 11 -6 23 -6 35c0 7 2 13 6 19c9 3 17 9 26 13l9 -3c32 8 36 25 36 49v33c0 19 8 35 8 54c0 24 -11 50 -11 74c0 9 8 55 12 64l-4 6l6 42c-3 13 -9 23 -9 36c0 33 11 65 11 97c0 18 -2 34 -9 51c0 14 -2 21 -2 34c0 14 12 33 12 52c0 24 -5 38 -30 38
c-11 0 -19 -10 -25 -17c-2 -3 -22 -12 -23 -12c-6 0 -7 7 -12 10l-2 15c17 34 24 48 67 56c-2 1 44 -3 74 -3c24 0 61 1 90 2c7 0 20 3 26 6c24 -6 30 -8 50 -20l4 -7c-2 -4 -10 -11 -13 -14c-13 -6 -28 -7 -41 -7c-24 0 -46 -26 -46 -49l3 -8c-2 -17 -3 -34 -3 -52
c0 -24 2 -52 7 -77c0 -15 -7 -32 -7 -47v-2c0 -22 2 -45 2 -67c0 -41 -2 -82 -2 -124v-10c0 -28 10 -56 10 -84c0 -20 -3 -39 -3 -58c0 -39 11 -56 49 -57c19 0 92 8 107 8c36 0 75 -5 111 -14l14 3c14 10 23 21 32 34c52 20 16 61 70 79l-8 14v41l11 -36l-7 -8
c20 -16 21 -20 21 -37v-11c0 -14 1 -29 1 -42c0 -14 -1 -28 -4 -40v-2c0 -25 -37 -35 -53 -41z" />
    <glyph glyph-name="M" unicode="M" horiz-adv-x="961" 
d="M833 376c-3 -15 -8 -28 -11 -42c2 -9 6 -17 8 -25c0 -10 -2 -22 -2 -32c0 -2 2 -6 2 -8l-6 -10c5 -52 2 -61 -1 -79c3 -33 13 -44 13 -66c0 -42 8 -64 26 -73c3 -1 16 -6 18 -6c9 0 17 4 24 8c23 1 13 4 30 -1c8 -9 14 -25 14 -36c0 -20 -19 -23 -35 -23
c-10 -1 -16 2 -22 4c-6 -1 -14 -2 -21 -2c-15 0 -31 7 -47 7s-31 -9 -49 -9c-19 0 -39 3 -59 3c-7 0 -15 3 -22 3c-12 0 -25 -5 -39 -5c-17 0 -38 1 -38 24c0 11 28 24 38 27c20 0 33 7 40 8c7 8 9 17 9 27c0 8 -1 17 -2 23c9 27 7 34 -2 76l6 16c-8 13 3 27 3 78
c0 12 -7 23 -7 37c0 20 -3 43 -4 65c3 5 5 12 8 19c-6 9 -2 33 -7 48c1 5 2 9 2 14v11l-1 10l-4 5c-28 -8 -42 -63 -42 -87c0 -4 -1 -8 -3 -11c-10 -7 -21 -32 -25 -45c1 -4 2 -9 2 -13c0 -20 -35 -78 -48 -91c-1 -12 -52 -108 -61 -129c0 -23 -8 -46 -24 -62
c14 -16 -19 -47 -31 -52c-1 0 -4 1 -6 1c-4 0 -10 -2 -16 -2c-34 0 -75 120 -82 154c-25 37 -44 78 -63 120c-30 17 -32 44 -35 74c-14 15 -26 75 -46 105c-3 1 -5 5 -8 6c-1 6 -5 11 -9 16l-9 -7c-8 -36 -5 -82 -5 -125c0 -36 -21 -71 -21 -104c0 -3 2 -8 3 -13
c2 -7 2 -60 5 -66l-7 -10c1 -3 1 -7 1 -10c0 -8 -1 -15 -1 -22c0 -2 -6 -13 1 -25c-1 -3 -2 -6 -2 -7c0 -31 106 -13 106 -43c0 -5 -1 -17 -8 -17c-6 0 -14 3 -18 8c-9 0 -21 -26 -26 -25c-12 -1 -22 4 -33 4c-12 0 -28 -17 -36 -15c-18 6 -36 15 -53 15
c-22 -1 -44 -4 -65 -4c-5 -1 -16 17 -14 29c3 11 10 20 18 27c23 3 37 1 52 17c7 26 22 51 22 77c5 7 11 24 -1 42c1 7 2 15 5 21l-5 11c2 4 2 8 2 13c0 7 -3 14 -1 19c14 32 7 68 12 101c3 18 13 25 13 35c0 17 6 43 3 50c4 30 12 50 12 81c0 11 7 24 7 36
c0 23 -25 38 -30 52c-2 0 -33 20 -36 23c-34 6 -46 50 -50 58c1 10 9 19 18 20c16 -5 24 -1 34 -1s-1 -8 56 -4c5 0 9 0 13 1c3 3 10 -1 11 -3l14 -2c12 4 54 -1 61 4c12 -3 26 -14 26 -28c0 -18 -29 -25 -29 -42c0 -11 18 -15 26 -19c5 -10 7 -21 8 -31
c17 -16 14 -29 31 -41c6 -30 24 -46 36 -72c0 -27 15 -35 25 -56c-1 -43 45 -101 48 -116c8 -40 37 -71 47 -98c-1 -7 -3 -15 -3 -22c0 -6 19 -44 27 -41c0 6 17 26 20 32c-1 7 -1 13 -1 18c0 17 22 38 22 54c0 2 0 4 -1 6c10 19 45 88 44 104c12 0 15 18 15 25
c0 6 13 29 16 35c15 30 22 64 38 94c1 27 16 36 28 55c15 22 15 56 30 76c-1 8 -1 30 -9 33c-14 7 -38 3 -38 24c0 10 8 12 16 12c9 0 23 -9 30 -9c14 0 58 10 116 4c11 7 41 11 50 4c6 1 16 2 25 2c18 0 38 -5 38 -23c0 -1 -6 -16 -7 -18c-33 -8 -94 -35 -101 -73
c-4 -11 -2 -22 -6 -34c0 -8 3 -16 6 -25c-4 -13 -13 -25 -13 -39c0 -10 18 -22 19 -23c1 -3 3 -9 3 -12c0 -29 -15 -35 5 -77z" />
    <glyph glyph-name="N" unicode="N" horiz-adv-x="803" 
d="M535 699c-6 20 24 24 26 24c12 0 27 -4 39 -6c14 11 28 -3 73 16c18 -10 51 7 65 7c20 0 50 -6 50 -31c0 -33 -33 -30 -63 -41c-10 -8 -31 -22 -32 -50c1 -16 5 -32 5 -48c0 -13 -13 -22 -13 -34c-4 -17 6 -29 8 -44c6 0 7 -33 7 -38l-3 -5c1 -2 1 -3 1 -6
c0 -8 -5 -19 -5 -27c-2 -26 8 -42 7 -68l-6 -25c7 -23 8 -48 12 -76l-5 -12c8 -20 -8 -37 -10 -91l12 -32l-3 -11c14 -36 3 -73 3 -90l-6 -12c-4 -12 -10 -29 -24 -29c-4 0 -20 5 -23 7c-13 12 -15 30 -28 42l-14 36c-20 16 -38 44 -59 56c-18 10 -31 5 -45 28
c-12 21 -17 43 -29 64l-8 3c0 14 -17 15 -21 19c-12 10 -24 42 -36 55c-34 34 -87 71 -104 114l-7 4c-8 12 -19 26 -30 37l2 12c-15 16 -26 35 -38 52l-7 5l-11 -5l4 -7l-6 -12c7 -32 12 -65 12 -97c0 -8 -2 -17 -3 -25c-2 -8 -2 -17 -2 -27v-12c0 -16 -1 -31 -6 -45l3 -7
l-3 -5c3 -13 3 -26 7 -40l-3 -18l4 -12c-2 -7 -2 -15 -2 -23c0 -19 3 -38 6 -53c0 -7 -9 -40 -11 -44c5 -8 -1 -18 -1 -21c0 -27 98 -9 98 -62c0 -28 -46 -29 -65 -29c-37 0 -141 16 -168 38c-11 9 -16 23 -29 28c-7 1 0 7 0 15s15 17 30 17s33 -23 45 -22l14 -3
c16 7 23 11 23 27c0 13 3 24 3 28c0 1 -7 18 -7 31c0 4 3 5 4 16c-2 20 0 26 -2 46l3 4l-2 29c-5 7 -5 74 -5 87c0 20 0 42 1 63c0 11 0 28 5 34l-2 9l2 11c-1 16 -1 47 0 53l-1 10c1 2 5 24 5 32c-8 22 0 42 -10 59c-15 25 -15 17 -44 38c-34 25 -31 38 -71 40
c-15 19 -9 64 -2 80c10 -3 19 -6 27 -10l15 5c19 -5 38 -11 56 -17c73 15 56 -14 112 -57c0 -8 27 -22 33 -30c24 -36 62 -74 91 -108c9 -10 21 -18 33 -27c35 -28 91 -96 113 -136l12 -8c5 -14 17 -15 26 -25c24 -32 36 -73 65 -100c7 -8 21 -7 28 -3c1 8 1 16 1 24
c0 15 -7 47 3 54c-2 18 -4 32 -4 50c0 21 -12 47 -12 65l3 13c0 42 -23 104 -14 123l5 8c1 13 2 28 2 42c0 81 -47 73 -99 106z" />
    <glyph glyph-name="O" unicode="O" horiz-adv-x="788" 
d="M180 433c0 -5 -4 -24 -7 -26v-17c0 -29 5 -61 8 -90c24 -44 24 -103 49 -145c24 -10 36 -51 50 -73l14 -8c7 -10 18 -15 30 -18l7 -6c1 -6 3 -11 6 -16c6 -3 13 -7 20 -9l15 -4c8 6 26 10 38 11c5 0 13 -5 16 -6c3 1 6 1 9 1h5l6 7l12 -7c24 11 37 4 49 27c4 1 8 4 12 5
c-1 9 30 27 38 30c13 15 19 27 26 46l4 4c4 6 7 11 9 18l8 8c0 7 2 13 5 20v9c2 3 4 7 5 10v3c0 15 24 67 24 100c0 13 7 28 10 42l-3 11c1 6 1 10 1 16c0 25 -11 50 -13 75c-20 40 -22 97 -52 133c-4 -1 -19 10 -21 19l-13 10c-4 11 -12 20 -17 30c-22 9 -44 23 -64 35
c-11 4 -38 3 -46 3c-50 0 -109 -24 -145 -53l-16 -3c-39 -56 -77 -88 -77 -166c0 -8 -1 -17 -2 -26zM225 686l19 -9l20 18l3 10l12 -2c32 -1 60 23 89 23c9 0 17 -6 26 -6c7 5 34 7 41 7c32 -4 63 -11 94 -18c5 -2 9 -6 15 -8l8 2l13 -8c37 -2 69 -42 91 -68
c7 -3 15 -11 21 -17c10 -25 32 -35 38 -65c4 -3 25 -82 31 -92l-4 -11c2 -1 6 -20 6 -26c0 -7 -5 -14 -5 -20c0 -14 9 -24 9 -40c0 -68 -33 -180 -66 -239c-28 -16 -36 -73 -118 -101c-47 -41 -56 -24 -107 -37l-24 4l-14 -5h-7c-4 0 -8 -1 -15 -3c-31 3 -98 25 -126 23
c-7 1 -14 5 -20 9c-6 0 -17 15 -27 15c-46 0 -80 35 -104 70l-1 8c-18 24 -57 102 -57 133l-17 30c2 6 2 8 2 11c0 14 5 30 5 45c0 12 -2 28 -6 38c2 11 1 23 2 34l2 8c0 6 -2 11 -2 18c0 5 2 11 2 16l5 6l-2 10c2 5 2 22 2 28c3 21 16 39 22 61c6 4 9 10 9 17
c0 17 17 31 26 47c4 7 45 40 54 48l14 3c2 1 4 5 5 8c17 1 17 12 28 21z" />
    <glyph glyph-name="P" unicode="P" horiz-adv-x="659" 
d="M321 381c61 16 43 -4 116 25c6 8 10 11 21 14c29 28 42 31 55 75c-1 4 -8 34 -3 51c-18 33 -22 57 -47 88c-1 10 -16 22 -18 29c-12 7 -101 30 -114 30c-19 0 -28 -4 -28 -24c0 -11 -3 -23 -8 -34l5 -22c-5 -8 -8 -18 -9 -27c3 -10 8 -19 12 -29c-4 -19 -3 -36 -5 -55v-2
v-2c-2 -1 -3 -2 -3 -4c0 -6 6 -13 7 -19c-1 -6 -3 -14 -7 -21c4 -21 3 -42 7 -63zM593 670c18 0 37 -78 45 -100l-3 -16c8 -19 -3 -48 -13 -72c0 -3 2 -8 2 -11c0 -18 -13 -32 -16 -48c-14 -9 -20 -29 -28 -42c-34 -6 -31 -6 -57 -26c-18 -5 -34 -14 -51 -20h-10
c-37 0 -56 -12 -90 -19l-9 2c-7 9 -24 30 -44 26c-7 -3 -12 -8 -17 -13c2 -5 9 -16 1 -30c1 -11 4 -22 5 -33l-2 -10l5 -20c-4 -17 -7 -34 -11 -51l6 -14l-2 -16l-4 -8c3 -5 2 -13 6 -19l-2 -19c12 -19 6 -40 11 -49c35 -14 59 -16 98 -16c5 0 16 -2 19 -16
c7 -5 14 -12 18 -19c-5 -20 -11 -36 -37 -37c-21 0 -39 9 -55 7c-22 -2 -62 0 -74 0c-13 0 -32 -2 -45 -4c-5 1 -13 5 -25 6c-4 0 -11 -4 -30 1c-30 -8 -61 -23 -91 -23c-3 0 -11 5 -14 7c-4 4 -19 21 -19 25c0 7 2 28 4 41l8 18c6 2 16 3 37 3c12 0 22 2 27 17
c10 7 13 10 13 20c3 13 13 33 13 44c0 13 -9 28 -14 41c5 11 4 30 9 40c-1 3 -3 8 -3 10c0 15 8 28 8 41c0 16 -9 31 -9 44c0 22 9 65 19 81c0 14 -4 22 -8 33c0 16 -3 30 -9 41c6 12 0 44 -1 55c0 6 7 34 7 54c0 9 -5 16 -13 19l-3 10c-24 11 -44 7 -65 23c2 6 7 10 10 16
c-1 8 -3 19 -9 25c3 8 -2 28 -2 36c5 15 16 41 36 41c2 0 17 -5 21 -5c12 2 21 9 33 14c37 -8 73 -10 111 -11c15 0 24 5 35 6c5 -1 12 -3 19 -3c5 0 25 8 30 9l21 -13l6 4l11 -3c11 3 22 8 33 8c10 0 20 -1 29 -2c15 -14 66 -9 85 -27c21 -7 38 -33 44 -53z" />
    <glyph glyph-name="Q" unicode="Q" horiz-adv-x="890" 
d="M294 589l-14 -17l5 -19c-2 -7 -5 -14 -8 -19l-8 -7l-2 -7l-23 -17l-8 -17c-3 -3 -9 -5 -11 -8l-8 -45c-10 -8 -17 -20 -19 -32v-15c0 -13 3 -17 12 -35l-6 -11l3 -9c-5 -11 6 -24 0 -51c-11 -50 29 -96 55 -141l-1 -3c2 -17 27 -38 37 -53c1 -2 9 -10 10 -11l2 -15l7 -11
l14 -3l8 5l114 -50l13 3c14 -3 26 -9 42 -9c12 0 78 33 81 40c7 12 19 34 27 43c28 33 51 78 68 118c8 17 10 38 16 57c0 19 -1 27 -1 45c2 7 6 14 6 21s-5 15 -5 21c0 12 15 23 9 35l8 11l-1 14c-9 9 -17 16 -24 27l3 34l-13 23c-6 0 -13 31 -15 37c-5 13 -62 87 -72 94
c-11 7 -15 21 -27 28c-22 12 -34 8 -54 21h-7c-11 -5 -25 -4 -35 -11c0 1 -26 9 -30 9c-20 0 -41 -7 -60 -14c-18 -6 -41 -7 -53 -23c-11 -13 -20 -26 -35 -33zM93 484c28 50 72 103 92 142l9 6c6 0 24 13 31 14c10 4 21 0 31 5c7 2 8 10 14 14c7 5 18 4 26 8
c7 2 10 11 16 16c15 10 89 11 118 11c13 0 24 -2 35 -18l4 -13l25 12c-7 33 50 38 65 38c26 0 38 -26 59 -19l24 -11c15 1 36 -11 48 -21c4 -3 7 -10 10 -15l9 4c18 -21 46 -45 57 -71l14 -15c0 -10 5 -20 12 -27c0 -36 32 -29 34 -71c-2 -12 -9 -23 -12 -35l7 -23
c-8 -16 8 -57 10 -64c-10 -22 -22 -76 -22 -93c-1 -66 -40 -114 -68 -169c-11 -22 -63 -56 -82 -65c-8 -5 -9 -14 -18 -17c-25 -7 -58 2 -58 -20v-6c8 -38 200 -112 210 -130l16 -3c53 -37 45 -29 105 -37l13 -9c11 1 23 2 34 2c15 0 26 -25 66 -25c42 0 51 -4 86 -12
c8 2 14 5 22 5c16 -1 31 -6 46 -10c13 -3 26 -4 39 -4c8 0 11 -4 20 3c11 6 22 10 35 10c7 0 18 2 26 4l9 -2l8 4c20 0 22 -15 28 -31l-3 -13c-35 -26 -63 -34 -105 -36c-5 0 -15 3 -18 3c-18 0 -47 -14 -62 -14c-10 4 -24 5 -34 5c-30 0 -57 -7 -85 -7c-8 0 -18 0 -27 2
l-20 -3c-12 0 -16 1 -31 -3h-10c-14 0 -50 11 -62 17l-28 -5l-11 5c-20 19 -96 33 -145 64l-14 -3c-14 7 -18 3 -32 9c-50 20 -152 69 -178 122c-2 6 -8 10 -14 13c-14 -2 -57 51 -68 58c-2 1 -6 1 -8 1c-6 0 -13 -2 -18 -4l-6 3l-12 -2c-11 4 -110 40 -117 45l-10 4
c-10 17 -27 36 -39 53l-13 7c-10 26 -10 19 -35 31c-17 8 -21 29 -32 43c-12 15 -6 21 -21 33l-9 28l2 10c-1 11 -6 23 -6 34c0 8 1 23 1 39c0 9 0 17 4 26l-4 6l8 22c2 4 2 10 2 17c0 18 -2 37 -4 54c1 16 14 45 11 74z" />
    <glyph glyph-name="R" unicode="R" horiz-adv-x="739" 
d="M279 632c-3 -7 -17 -54 -17 -60c0 -7 6 -30 8 -30c-9 -23 0 -68 0 -89c0 -12 -1 -23 -3 -35l2 -14c3 -5 6 -11 7 -16c2 -4 7 -7 11 -10c15 2 27 3 41 3c11 5 21 8 30 11l12 -4c12 0 23 5 34 10c3 7 9 12 13 18c4 -1 13 4 26 15c8 7 16 14 23 20c9 10 20 43 20 56
c0 15 2 54 -6 58c3 19 -7 40 -13 60c-6 4 -13 9 -20 11c-1 5 -5 14 -8 17c-11 1 -18 10 -30 15c3 8 -52 25 -60 27c-53 -13 -74 2 -70 -63zM148 508c0 15 -4 34 -8 48l4 7c-3 6 -6 14 -6 21l3 9c0 16 -2 36 -16 47c-34 26 -35 5 -59 -2c-12 7 -25 13 -38 25c2 14 4 42 20 48
c0 4 2 8 4 12c6 3 11 8 15 13c6 4 13 -5 20 0c4 4 14 6 20 7l22 -9c19 0 18 -2 36 -8c9 7 61 12 69 12c16 0 60 -7 73 -11l18 3l6 3c9 1 19 1 28 1c33 0 11 -4 46 -4c11 0 24 2 35 2l11 -6l11 1c7 -7 17 -11 37 -10l11 -7l17 -3l11 -13c8 -4 16 -11 25 -15l5 4
c5 -1 10 -6 12 -10l-4 -10c11 -15 26 -60 28 -100c1 -37 -19 -93 -19 -101c-10 -20 -13 -29 -32 -38c-5 -7 -13 -14 -19 -18c-8 -1 -16 -4 -24 -4c-3 -1 -5 -4 -7 -6c-9 -4 -22 -6 -31 -11c-17 0 -34 -9 -46 -15c-2 -6 -1 -17 6 -22l11 1c47 -31 93 -67 119 -119l1 -9
c26 -27 26 -73 55 -100c5 -9 15 -16 23 -22c5 -9 9 -15 18 -18l12 3l10 -9c8 1 17 5 24 5c19 0 13 -22 15 -34c2 -3 3 -20 3 -23c0 -15 -5 -15 -15 -25l-25 7c-16 -3 -34 -4 -50 -8c-24 9 -48 20 -72 31c-5 2 -13 16 -26 22c-16 24 -37 42 -58 62c-13 33 -36 62 -47 97
l-20 13c-6 21 -44 65 -68 65c-16 -5 -35 25 -50 34c-23 -18 -25 -18 -25 -35v-17c0 -11 -6 -17 -12 -27c3 -8 5 -12 12 -20c0 -5 4 -38 4 -45c-18 -38 3 -58 6 -69l-7 -33c7 -18 12 -35 30 -35c2 0 6 0 9 1l10 -3c8 1 16 3 23 5c16 0 27 -26 27 -40c0 -6 -1 -16 -30 -10
l-8 -2c-6 2 -14 2 -22 2c-16 0 -37 -4 -53 -2c-6 -2 -14 -4 -21 -6c-6 2 -43 2 -49 4c-10 9 -37 10 -49 12l-20 -8c-2 1 -5 1 -9 1c-10 0 -20 -2 -30 -2c-12 0 -19 13 -19 23c0 12 24 40 38 40c7 0 16 -4 23 -6l10 3l6 15l-7 11l8 13c-1 6 -2 13 -2 21c0 17 3 35 3 50
c0 3 -2 7 -3 9c9 46 15 100 15 145c3 16 -6 50 -6 60s1 20 4 25c-2 12 -6 23 -6 34c0 23 5 48 6 73z" />
    <glyph glyph-name="S" unicode="S" horiz-adv-x="552" 
d="M458 594c0 -13 5 -30 5 -45c0 -7 -1 -17 -5 -25c-37 4 -45 16 -57 54l-7 9l-10 5c-2 6 -3 14 -6 20l-21 13c-26 36 -34 58 -85 58c-44 -21 -100 -39 -112 -90c-12 -16 -12 -37 -12 -57l-7 -15c0 -2 23 -21 25 -22c18 -12 28 -33 47 -44l9 -13c33 -13 136 -44 163 -66
c25 -10 25 -4 35 -28l18 -9c15 -23 42 -35 43 -64c1 -5 2 -11 5 -14c8 -14 10 -31 12 -46c-2 -18 -3 -23 -3 -43c0 -16 -11 -31 -11 -48c-14 -35 -22 -60 -50 -88c-11 -11 1 -23 -32 -30c-25 0 -44 -24 -81 -24c-6 0 -15 1 -23 3l-22 -9l-8 1l-23 -7c-30 6 -44 17 -71 17
c-6 0 -14 0 -24 -2c-3 1 -10 4 -15 4c-3 0 -4 -2 -6 -2c-12 4 -22 12 -31 19c-7 16 -9 34 -9 51c0 30 -6 51 -14 80c-10 3 -17 12 -25 18l10 13l12 2l12 7l7 -4l9 12l8 -3c8 -5 9 -10 9 -18s-1 -14 -1 -23c0 -11 4 -12 13 -20c-1 -6 15 -32 19 -38c80 -20 49 -61 147 -61
c13 0 22 2 34 6c12 0 18 2 21 4c9 24 80 25 80 131c0 23 -8 39 -21 58c-1 10 -13 13 -21 16c-10 14 -32 41 -45 32l-16 -6c-8 4 -16 11 -24 16c-7 1 -12 3 -18 5l-13 19c-22 -1 -53 16 -76 21l-18 12c-6 0 -12 1 -16 4c2 8 -5 15 -9 17l-22 21c-9 4 -19 10 -26 16
c-5 20 -10 32 -27 47l1 7c-3 6 -4 9 -6 14c1 4 2 9 2 15l-19 19l4 12c-3 8 -4 14 -4 20c0 3 1 8 2 14c4 5 14 17 20 19l1 12l-3 14c6 24 24 42 30 65c11 2 19 8 27 17c9 1 22 13 27 14l2 -9l9 4l1 15l18 10l13 2l10 5c8 -3 18 -5 26 -7l2 7c21 0 44 0 63 2
c40 -13 69 -29 106 -43c16 0 41 -9 37 -28l4 -20c0 -7 6 -24 7 -27z" />
    <glyph glyph-name="T" unicode="T" horiz-adv-x="714" 
d="M333 420l-10 13c-7 -2 -15 -7 -20 -12zM201 -15c-4 0 -17 17 -20 20c1 14 1 46 17 46c38 20 87 15 87 63c0 6 -2 21 2 27l3 15c17 25 -4 24 -19 81l5 8c-2 8 -4 14 -4 21c0 16 7 29 15 46c-8 27 3 36 3 51c-4 5 -7 17 -7 26c0 4 1 9 2 12c0 11 -1 20 -3 30l4 14l-2 9
c1 21 6 35 6 36l-8 20c4 14 10 33 16 46c-10 17 -13 38 -13 57c0 3 7 19 9 23c2 17 -8 29 -23 29c-1 0 -4 -3 -5 -4c-14 -2 -25 -2 -40 -5l-5 2c-35 -2 -39 7 -68 7l-24 -13l-15 6c-17 0 -28 -10 -30 -12l-18 -37c-10 -9 -14 -13 -18 -25c-1 0 -6 -7 -6 -8
c-6 -8 -15 -14 -24 -17l-7 9c-2 10 -5 27 -8 37l-6 20c3 49 3 89 24 115l9 -4c8 6 17 12 27 14c5 -7 10 -15 15 -23l8 -4l9 2c17 -7 36 1 40 2c3 -2 9 -2 12 -3c3 -2 9 -2 19 -2c13 0 33 2 41 3c12 -3 27 -5 41 -5c16 0 26 6 40 12c17 -2 27 -18 44 -18c10 0 58 4 65 8
c19 -6 121 -6 125 -2c22 0 45 6 67 6c13 0 27 -11 38 -11c24 0 32 13 47 29l15 10c31 -6 33 -23 34 -47c0 -17 -1 -72 -10 -88v-10c-13 -18 -21 -81 -44 -81c-11 0 -17 4 -17 14c0 2 0 4 2 7c-5 11 -10 22 -14 32c1 11 6 27 6 36c0 13 -12 33 -27 33c-16 0 -48 -8 -62 -2
c0 -2 -9 -3 -11 -3c-5 0 -13 -3 -19 -3c-7 -4 -6 4 -31 2c-16 -1 -33 2 -50 2l-7 4h-7l-5 -16l2 -13c0 -13 5 -40 5 -50c0 -6 3 -14 -2 -37l5 -21c-2 -8 -6 -16 -9 -23c2 -7 2 -13 2 -20c0 -17 -3 -33 -3 -50c0 -7 3 -15 3 -22c-2 -9 -3 -12 -3 -13c0 -32 11 -52 10 -81
c-1 -5 -2 -12 -6 -17c5 -5 5 -26 5 -46v-43c-6 -9 -7 -21 -7 -32c0 -20 3 -41 3 -62l6 -6c2 -8 5 -17 9 -24l37 -20c5 0 10 -2 16 -2v-1c0 -1 4 -2 5 -3c7 -4 25 -23 25 -32c0 -19 -11 -29 -30 -29c-21 0 -40 5 -61 5c-10 0 -20 1 -50 6c-11 0 -24 -1 -34 -7l-29 4l-12 -2
c-7 1 -17 5 -24 5c-20 0 -46 -15 -83 -13z" />
    <glyph glyph-name="U" unicode="U" horiz-adv-x="726" 
d="M508 677l-12 -12c-7 4 -14 10 -19 17c0 3 -5 12 -5 16c0 8 2 18 10 20c14 -8 40 -6 48 -7l19 -12l12 2c8 -2 19 -6 27 -6c6 0 24 10 21 10c11 1 23 0 33 2c10 -4 18 -2 19 -2c9 0 16 1 25 4c6 -1 11 -3 14 -7c-2 -28 -16 -36 -40 -50l-2 -7l-7 -4c-5 -25 -24 -56 -24 -92
v-20l-3 -10l3 -9l-6 -18l1 -8c6 -9 8 -15 8 -25c0 -6 -1 -13 -2 -22l5 -15c-3 -36 -4 -69 -13 -104c4 -8 5 -17 6 -27c-4 -48 -20 -40 -20 -103c0 -33 -11 -40 -20 -49c-5 -4 -7 -20 -11 -26l1 -9l-8 -11l3 -2c-32 -88 -64 -89 -137 -125c-22 1 1 6 -81 6l-10 -5
c-16 7 -35 0 -53 7c0 3 -14 10 -18 11c-4 -1 -10 -2 -16 -2c-17 8 -23 16 -44 19l-30 22c-8 14 -16 28 -24 43l-10 8c-1 5 -2 11 -2 15c-4 2 -31 88 -35 99c0 7 1 16 2 23c-5 26 -8 52 -14 78c4 9 5 25 -3 43l5 6c3 6 4 13 7 20c-3 11 -5 26 -11 37c0 13 0 22 -1 28
c-6 27 2 53 2 62l5 9l-6 48l3 10c-2 24 -8 48 -2 65c-9 31 -17 41 -32 67c0 17 -6 35 -9 51l6 8l37 -21c3 -5 6 -11 11 -15l24 -6c5 5 13 -2 18 -2l21 2l10 -3c9 1 17 7 25 11c11 4 32 -1 41 -2l11 -18c19 0 18 18 27 15l28 -4l5 -16c-26 -14 -45 -23 -65 -45l-22 -8
c1 -6 0 -15 3 -29c-19 -25 -19 -55 -26 -85c7 -20 1 -29 -2 -41l1 -5c-3 -3 -4 -11 -5 -14c5 -18 -1 -29 7 -53c-3 -8 -5 -42 -6 -53l1 -7c-4 -10 -5 -21 -9 -31c7 -11 6 -32 2 -38c6 -20 12 -39 17 -59c-6 -97 19 -100 39 -110c8 -17 13 -25 20 -42c14 -6 23 -2 35 -2
c9 0 20 -5 29 -8c9 -9 35 -15 53 -15c4 0 7 1 11 1l10 -2c4 1 9 3 12 7c27 8 57 10 82 18l22 31c7 5 26 37 26 51c-2 10 4 26 8 36c0 60 11 45 6 65c-1 0 -2 8 -2 9l4 16c-4 23 9 64 1 86c10 30 12 63 18 92l-5 13l1 12c-4 8 -4 17 -9 44c1 4 3 11 3 15c0 9 2 20 2 31
c0 22 -2 46 -6 62c2 19 -6 29 -22 30c-11 3 -34 8 -47 20z" />
    <glyph glyph-name="V" unicode="V" horiz-adv-x="651" 
d="M682 618l-22 -8c-11 3 -26 11 -38 17c-18 1 -31 -3 -31 -16v-6c-2 -5 -7 -9 -11 -14l1 -6c0 -6 -19 -28 -22 -32s-6 -25 -6 -30c-1 -3 -18 -31 -22 -40l1 -10c0 -11 -2 -22 -5 -33c2 -23 -45 -49 -45 -84c0 -6 -3 -12 -5 -16c-16 -25 -26 -71 -34 -102
c0 -10 -25 -72 -31 -83c-6 -39 -32 -67 -37 -107c-2 -2 -3 -6 -3 -8v-8c0 -17 -24 -68 -44 -68c-44 0 -73 53 -78 93c-3 2 -5 7 -6 9l2 13c-3 9 -2 19 -7 28l3 7l-3 6c-10 0 -21 50 -25 58c3 17 -11 31 -16 41v7l-18 59c-2 2 -9 41 -11 48c-1 0 -5 4 -6 4
c-3 19 -6 36 -15 53c-4 41 -28 87 -42 128c0 20 -13 36 -13 55c0 64 -77 70 -123 87c-4 6 -8 11 -10 17c0 23 48 21 63 23c24 -6 34 -2 40 -2c11 0 25 -4 35 -6l15 3c2 -1 3 -1 6 -1c18 0 47 14 65 16c13 -4 26 -10 38 -15h24c10 0 16 -2 29 -13c-5 -15 -5 -13 -15 -24
c-11 -5 -11 -5 -21 -5c-9 -3 -49 -20 -49 -28c14 -28 12 -27 35 -44c5 -18 16 -35 21 -53c-1 -4 -3 -10 -3 -14c0 -8 8 -14 11 -20c-3 -21 12 -52 17 -65c0 -7 -2 -21 -4 -25c2 -10 8 -16 13 -23c2 -22 21 -70 18 -83c4 -13 11 -47 21 -59l12 -34c10 -7 10 -9 13 -19
c6 -5 7 -4 14 -6c2 2 28 58 28 63c13 8 32 75 34 97c12 32 20 62 37 92c0 18 17 52 26 67c3 4 1 12 3 16c1 34 21 66 32 98l-15 14c-4 0 -50 25 -57 29c-5 7 -16 12 -24 17c2 12 6 13 16 22c9 4 18 8 28 8c8 0 16 -1 23 -1c5 0 8 0 11 1l13 -4c3 1 7 1 9 1c20 3 42 15 59 15
c13 0 20 -7 31 -10c17 7 42 9 54 23l12 4l17 -6l-2 -25c6 -12 12 -22 12 -35c0 -4 -3 -7 -4 -10l1 -6c-4 -7 -13 -30 -20 -32z" />
    <glyph glyph-name="W" unicode="W" horiz-adv-x="1034" 
d="M645 78v0v0zM1100 650c-9 0 -18 -5 -24 -12c-17 -5 -19 -1 -33 -14c-8 -2 4 -5 -28 3c-11 0 -27 -3 -27 -16c-1 -7 -6 -15 -10 -20l1 -6c0 -6 -20 -28 -24 -32c-2 -4 -4 -25 -4 -30c-1 -3 -18 -31 -22 -40l1 -10c0 -11 -2 -22 -5 -33c0 -18 -45 -49 -45 -84
c0 -6 -3 -12 -7 -16c-15 -25 -24 -70 -33 -99c1 -11 -24 -75 -31 -86c-4 -32 -12 -30 -22 -57c-11 -27 -22 -134 -61 -134c-47 0 -51 1 -51 26v25c0 3 -1 8 -2 10c0 2 -25 49 -28 53v0v0c0 4 -3 37 -8 42c-10 0 -21 53 -25 64c0 11 -11 25 -17 35l1 7l-18 59
c-3 3 -9 41 -11 48l-6 4c-4 19 -6 36 -16 53c0 11 -1 42 -18 42c-14 0 -14 -7 -14 -16c1 -19 -31 -44 -31 -60c0 -6 -3 -12 -5 -16c-16 -25 -23 -73 -34 -103c0 -9 -25 -71 -31 -82c-2 -7 -2 -19 -5 -25c-25 -40 -41 -166 -79 -166c-44 0 -73 53 -78 93c-3 2 -5 7 -4 22
c-3 9 -2 19 -7 28l3 7l-3 6c-10 0 -21 50 -25 58c5 22 -11 31 -16 41v7c-12 46 -36 184 -59 204c-20 18 -23 48 -30 73c-3 10 -8 70 -16 70c-5 45 -33 65 -75 69c-2 -1 -7 -2 -9 -2c-23 0 -40 19 -49 37c0 24 49 21 63 23c7 0 -5 -2 40 -2c11 0 25 -4 35 -6l15 3
c2 -1 3 -1 6 -1c18 0 47 14 65 16c13 -4 26 -10 38 -15h24c9 0 16 -2 29 -13c-5 -15 -5 -13 -15 -24c-15 -6 -7 -5 -24 -5c-11 -4 -46 -16 -46 -31c0 -16 23 -31 35 -41c-2 -2 -3 -6 -3 -10c0 -22 8 -31 24 -43c3 0 4 -14 4 -16c2 -16 4 -43 10 -58c6 -14 6 -21 6 -34
c1 -16 5 -28 14 -39c0 -5 38 -140 39 -142l12 -34c10 -7 10 -9 13 -19c5 -5 8 -4 14 -6c3 2 28 57 28 63c13 8 34 74 34 97c12 32 20 62 37 92c-1 13 20 59 26 67c8 25 15 66 15 93c0 11 7 26 13 35l27 11c11 -6 32 -8 43 0c14 -3 30 -8 41 -16c2 -37 12 -60 22 -94
c-1 -4 -4 -10 -4 -14c0 -8 9 -14 12 -20c-1 -22 28 -147 34 -157c15 -27 19 -70 38 -93c-1 -3 -1 -8 -1 -11c0 -11 2 -19 5 -28c5 -2 8 -5 12 -10c-1 -5 -2 -9 -2 -15l1 -4l2 -2c3 0 8 7 15 6c2 2 28 57 28 63c13 8 33 72 33 92c14 33 20 67 38 97c1 17 17 51 26 67
c3 4 1 12 1 16c3 34 24 66 33 98c9 33 -66 17 -79 25c-7 11 1 24 -17 35c3 12 6 13 17 22c9 4 18 8 28 8c8 0 15 -1 23 -1c23 0 25 -2 33 -2c17 2 48 15 58 15c14 0 20 -7 32 -10c11 2 23 2 34 2c25 0 58 -6 58 -38c0 -4 0 -12 -2 -19z" />
    <glyph glyph-name="X" unicode="X" horiz-adv-x="836" 
d="M189 163c38 42 83 81 120 122c6 21 39 31 39 55c0 25 -48 60 -68 73c-6 13 -10 16 -13 17c-6 21 -25 35 -44 47c-35 60 -82 116 -147 145c-11 -1 -22 -3 -34 -4c-32 9 -18 30 -25 49c7 32 15 43 49 47c17 -6 43 -23 59 -23c11 0 25 9 39 9c4 0 7 -1 10 -2
c11 2 28 7 38 10c9 -1 107 -8 146 -3c6 0 18 0 18 -10c0 -63 -77 -33 -114 -63c5 -22 68 -74 87 -92c33 -29 42 -97 76 -109c57 47 53 88 98 123c13 21 55 48 55 68c0 18 -6 18 -21 19c-19 7 -37 15 -57 22c-21 14 32 38 60 38c26 0 52 -3 78 -6c15 4 28 8 43 13
c10 -2 24 0 33 -3c3 1 29 1 50 1c12 0 24 0 25 -1c4 -6 7 -15 11 -22c-4 -16 -26 -29 -42 -29c-14 0 -26 2 -39 6l-30 -17c-31 -31 -28 -2 -39 -43c-21 -21 -40 -32 -57 -57c-13 -7 -17 -21 -24 -33c-10 -12 -22 -19 -26 -29l-16 -8c-4 -4 -32 -57 -68 -88
c27 -17 94 -98 127 -125c8 -26 31 -45 46 -68c0 -3 18 -12 19 -12c5 -3 27 -31 31 -38c7 -3 12 -7 17 -12c2 -9 6 -18 10 -26l9 -6l5 -6l23 -12c10 0 22 -2 33 -5c4 -4 11 -7 17 -9l13 -18c3 -7 4 -15 4 -23c0 -15 -2 -49 -24 -49c-29 0 -49 17 -79 17l-19 -9
c-29 5 -57 9 -87 9c-18 0 -39 -4 -59 -4c-17 0 -62 0 -62 22c6 17 39 33 70 37c8 6 19 15 19 25c0 36 -62 98 -91 116c-15 23 -41 38 -55 60l-2 11c-9 12 -17 23 -30 33l-6 2c-14 0 -37 -39 -45 -51c0 -26 -24 -22 -29 -55c-7 -7 -16 -18 -22 -27c-15 -26 -37 -34 -48 -64
c-8 -5 -15 -12 -23 -18c8 -41 29 -25 59 -49c7 1 14 2 20 2c11 0 20 -5 26 -12c-2 -20 -8 -22 -19 -22h-14c-13 0 -24 -2 -35 -7l-19 3c-8 -2 -12 -2 -17 -2c-9 0 -11 4 -25 4c-29 0 -53 -6 -82 -13c-40 3 -88 0 -88 52c0 6 9 29 12 35c29 3 58 11 86 18c17 19 25 46 64 74z
" />
    <glyph glyph-name="Y" unicode="Y" horiz-adv-x="813" 
d="M350 116c-6 14 -6 55 -6 70c0 17 9 31 9 48c0 12 -6 24 -10 36c1 6 0 14 4 20c-2 4 -3 8 -3 12c0 12 4 24 4 34c0 40 -41 70 -72 88c2 1 3 5 3 7s-1 3 -3 4c-14 48 -91 75 -98 129c-42 46 -55 56 -95 56c-11 0 -25 -1 -41 -2c-12 3 -24 15 -24 28c-2 5 -3 10 -3 14
c0 15 10 29 24 33c3 -1 7 -1 10 -1c7 0 14 1 19 3c4 5 10 11 16 11c9 0 23 -14 36 -14c25 0 62 8 86 16c9 -1 21 -3 30 -3c26 0 52 1 79 1h11c8 0 13 -6 22 -6c10 0 18 -13 26 -18c0 -39 -86 -28 -112 -50c5 -23 67 -72 87 -92c11 -11 7 -20 12 -27c27 -11 30 -70 64 -82
c58 47 54 89 98 123c13 21 55 48 55 68c0 28 -18 32 -40 32c-14 0 -42 4 -43 21c3 2 5 6 8 8c-3 1 -3 2 -3 3c0 7 14 15 18 17c41 -3 79 -3 120 -8c15 4 28 8 43 13c10 -2 24 0 33 -3c3 1 29 1 50 1c12 0 24 0 25 -1c4 -6 7 -15 11 -22c-7 -26 -34 -30 -58 -30
c-9 0 -18 1 -25 1s-23 -8 -28 -11c-11 -9 -18 -15 -30 -21c-7 -30 -47 -52 -66 -79c-13 -7 -17 -21 -24 -33l-6 -3c-7 -9 -16 -16 -20 -26c-20 -9 -76 -84 -80 -105c2 -7 9 -42 9 -45c0 -12 -2 -35 -6 -44c1 -9 1 -16 5 -24c-2 -4 -2 -9 -2 -13c0 -9 2 -19 2 -29
c0 -1 0 -2 -1 -35c2 -5 4 -10 5 -15c-2 -17 -2 -80 -6 -91c-6 -7 2 -9 4 -14c22 -7 19 -18 35 -18c22 6 43 -9 43 -23c-3 -25 -36 -32 -39 -34c-13 2 -25 2 -38 2c-15 0 -31 -1 -45 -1c-16 0 -39 5 -55 3c-13 -2 -24 -5 -38 -5l-12 2c-3 0 -5 -1 -8 -1c-15 0 -41 6 -41 23
c0 2 7 29 16 28c10 10 32 8 48 12c5 9 21 14 14 25c-3 10 -2 25 -3 37z" />
    <glyph glyph-name="Z" unicode="Z" horiz-adv-x="649" 
d="M606 176l-1 -92c0 -16 -8 -90 -28 -90c-6 0 -21 5 -26 6c-12 -8 -8 -9 -21 -9c-18 0 -32 9 -48 9c-13 0 -20 -9 -32 -9c-16 0 -36 4 -59 4c-15 0 -28 8 -44 8c-54 0 -122 -4 -175 -18c-37 5 -63 15 -102 15c-8 0 -40 13 -40 21c0 13 91 141 107 159s40 32 51 54
c17 34 29 60 61 83c15 11 41 46 39 68c11 7 11 25 20 37c12 16 75 94 75 112c16 11 51 88 51 107c0 13 -51 13 -62 13c-32 0 -63 -12 -95 -12c-14 0 -23 16 -36 16c-16 0 -30 -9 -46 -9c-15 0 -31 -3 -46 -8c-18 1 -38 -128 -73 -128c-19 0 -30 19 -35 36c10 20 13 55 13 86
c0 13 -2 25 -2 35c0 5 10 22 12 25l37 21c7 -1 16 -2 24 -2c7 0 15 1 23 2c13 -5 25 -9 37 -15c9 0 17 4 25 4c9 0 17 -8 26 -8c10 0 18 8 28 8c20 0 43 -12 64 -12c20 0 42 14 52 14s21 -7 34 -7c17 0 34 5 51 5c15 0 26 -10 41 -10c22 0 43 5 66 5c21 0 36 -23 36 -41
s-54 -79 -68 -92c-1 -6 -2 1 -2 -18c-49 -62 -77 -153 -134 -208c-15 -15 -20 -38 -35 -55c-6 -24 -26 -45 -48 -58l-3 -22c-12 -16 -41 -66 -65 -66c-8 0 -3 -9 -3 -15c0 -29 -29 -41 -29 -58c0 -15 22 -17 32 -17c25 0 49 8 74 8c16 0 30 -7 46 -7h17c102 0 72 1 150 72
c20 18 9 105 41 105c21 0 25 -38 25 -52z" />
    <glyph glyph-name="bracketleft" unicode="[" horiz-adv-x="431" 
d="M178 -55c17 -5 73 -3 96 -10c8 -18 65 -13 65 -14c0 -11 24 -29 -7 -58c-20 -18 -80 2 -89 17c-4 3 -37 -13 -38 -10l-17 7c-15 6 -38 -8 -38 3c0 9 -46 -18 -51 -13c-8 10 -13 89 -24 160c1 4 11 55 11 59c0 12 -6 71 -14 79c0 19 18 37 17 54s0 32 0 49c0 14 2 34 6 57
c-2 8 -7 23 -4 33c12 33 -28 99 14 141c0 16 1 155 11 168c0 25 0 104 11 131c26 23 84 -18 106 0c35 23 94 14 114 14c35 0 49 -27 27 -66c0 -30 -30 -48 -55 -31c-18 -5 -70 16 -73 8s-29 -15 -61 -17c20 -13 8 -129 4 -161c-2 -21 -11 -38 -11 -58c0 -28 -16 -54 7 -82
c-4 -6 -7 -52 -7 -78c0 -10 -5 -23 -7 -33c3 -22 2 -47 5 -76c1 -9 -7 -18 5 -40c-24 -6 -9 -36 -11 -39c12 -18 14 -40 16 -59c3 -5 -28 -123 -8 -135z" />
    <glyph glyph-name="backslash" unicode="\" horiz-adv-x="397" 
d="M300 0l-285 714h81l285 -714h-81z" />
    <glyph glyph-name="bracketright" unicode="]" horiz-adv-x="431" 
d="M251 720c-17 6 -73 4 -96 11c-8 18 -65 12 -65 13c0 12 -24 30 7 59c19 18 80 -3 89 -18c3 -2 36 14 37 11l18 -7c14 -6 37 8 37 -4c0 -9 47 19 51 14c8 -10 14 -89 24 -161c-1 -3 -10 -54 -10 -58c0 -12 6 -72 14 -80c0 -18 -18 -36 -17 -53s0 -32 0 -49
c0 -14 -3 -34 -6 -57c1 -8 7 -23 3 -33c-11 -33 29 -99 -13 -142c0 -16 -1 -155 -12 -167c0 -25 0 -104 -10 -131c-26 -23 -84 18 -106 0c-35 -23 -95 -14 -114 -14c-35 0 -49 26 -27 66c0 30 29 48 54 31c19 5 71 -16 73 -8c4 8 30 15 62 17c-21 13 -9 129 -5 161
c2 20 12 37 12 58c0 27 16 54 -7 82c3 6 7 51 7 78c0 10 4 22 7 33c-4 21 -3 46 -5 76c0 9 7 18 -6 40c24 6 9 35 12 39c-13 18 -14 40 -16 59c-4 5 27 123 8 134z" />
    <glyph glyph-name="asciicircum" unicode="^" horiz-adv-x="385" 
d="M384 276h-58l-133 267l-134 -267h-58l176 344h32z" />
    <glyph glyph-name="underscore" unicode="_" horiz-adv-x="570" 
d="M570 -71v-61h-570v61h570z" />
    <glyph glyph-name="grave" unicode="`" horiz-adv-x="515" 
d="M193 624c-9 8 -32 26 -32 41c0 10 32 29 42 29c8 0 31 -3 36 -9c7 -8 7 -20 15 -27c9 -8 94 -127 94 -127c0 -9 -15 -16 -22 -16c-28 0 -40 13 -50 37c-4 11 -22 9 -27 20c-7 14 -26 9 -26 22c0 12 -18 30 -30 30z" />
    <glyph glyph-name="a" unicode="a" horiz-adv-x="423" 
d="M253 178l5 7l-9 11c-2 6 -6 16 -14 16c-35 0 -51 -38 -69 -46c-21 -9 -43 -16 -43 -45c0 -22 46 -61 61 -61c19 0 23 13 38 20c0 19 9 16 17 24c13 11 14 57 14 74zM328 286c0 -10 7 -22 7 -33c0 -23 -11 -49 -11 -73c0 -3 2 -7 2 -24c0 -10 -1 -25 -1 -37
c0 -18 3 -31 19 -31c13 0 16 29 33 29c16 0 23 -21 23 -34c0 -104 -39 -65 -68 -89c-3 -2 -6 -2 -9 -2c-5 0 -11 1 -15 1c-13 0 -44 9 -54 17c-8 7 -20 41 -26 41c-15 0 -50 -65 -132 -65c-46 0 -56 72 -65 97c-1 5 -3 8 -3 12c0 17 15 28 22 49c10 33 80 62 106 73
c13 6 10 16 34 21c4 0 6 1 10 1c5 0 10 -1 17 -1c22 0 37 48 37 66c0 8 -7 14 -7 22s4 16 4 25c0 37 -34 66 -71 66c-15 0 -63 -35 -63 -50c0 -14 3 -27 3 -41c0 -12 -24 -33 -37 -33c-20 0 -51 19 -51 42c0 13 -1 28 1 34s7 8 8 12c8 29 60 72 90 72s58 -2 86 -2
c11 0 21 -8 33 -8c6 0 11 6 17 6c33 0 75 -50 75 -82c0 -11 -9 -28 -10 -42c0 -6 3 -11 3 -17c0 -7 -7 -14 -7 -22z" />
    <glyph glyph-name="b" unicode="b" horiz-adv-x="506" 
d="M243 406c-33 -7 -81 -30 -81 -69c0 -3 0 -6 1 -11l-6 -14c1 -5 5 -13 5 -19c0 -15 -12 -124 -14 -138c0 -16 2 -28 2 -33c10 -22 32 -66 59 -73l24 5c18 0 84 16 92 21c16 14 27 28 36 46c7 12 23 50 30 65c0 14 8 39 8 42c0 26 -16 82 -36 101c-5 4 -3 13 -6 18
c-48 50 -47 20 -97 44c-10 5 -9 15 -17 15zM171 422c18 2 32 28 58 36c9 3 16 -2 23 0c10 6 18 17 30 17c42 -4 93 -27 126 -52l4 -10l19 -13l2 -8c6 -7 14 -14 15 -22c9 -50 27 -54 29 -82c0 -8 -6 -16 -6 -24c0 -13 10 -23 7 -45c-6 -41 -20 -79 -35 -118
c-15 0 -61 -100 -129 -100c-7 0 -20 5 -27 7l-24 -11c-17 -3 -38 -4 -57 -4c-3 0 -29 4 -40 4c-8 -5 -14 5 -22 8c-12 0 -28 -14 -39 -16c-6 0 -12 3 -16 6l-2 8l-17 18l-10 33c3 19 8 43 8 62c0 12 -6 23 -6 36c1 20 9 38 16 58v24c0 11 -7 25 -7 36c1 23 8 106 8 135
c0 30 -14 105 -14 123c0 16 7 51 13 63c-4 11 -12 9 -14 17l-2 10l1 20l-6 12c-11 -4 -11 -17 -22 -24c-4 -1 -8 12 -11 18l2 16c5 3 8 21 13 23c16 9 25 10 41 20l4 15c2 1 13 7 14 7l5 7c4 2 10 4 16 4c21 0 25 -5 39 -20l-1 -16c-1 -13 3 -32 5 -41l-1 -7
c1 -10 2 -22 2 -32c0 -44 -14 -89 -14 -131c0 -16 3 -31 5 -46c1 -9 2 -21 17 -21z" />
    <glyph glyph-name="c" unicode="c" horiz-adv-x="434" 
d="M366 140c8 0 9 -3 9 -9v-9c0 -3 3 -18 6 -22c0 -18 -22 -22 -28 -36c0 -7 4 -12 4 -16c0 -24 -63 -45 -80 -54c-2 1 -24 -7 -33 -7c-55 13 -122 20 -166 64c-24 23 -39 39 -42 66c0 8 6 21 6 31c-6 22 -14 42 -14 65c0 4 5 12 5 15c0 7 -5 16 0 27c1 5 27 76 35 85
c16 23 23 53 41 75c3 -1 54 30 60 33c18 9 92 11 111 11c12 0 18 -5 27 -5c92 -9 75 -7 92 -89l-7 -16c-12 -1 -25 -21 -32 -29c-1 -1 -1 -3 -15 -3c-16 0 -27 23 -31 35l-22 26c-4 0 -9 2 -10 3c-10 8 -37 18 -62 18c-18 -3 -35 -8 -54 -15c-20 -8 -27 -19 -30 -41
c0 -1 -1 -1 -9 -12l1 -8c-5 -7 -5 -21 -8 -29l2 -8c-2 -4 -2 -10 -2 -17s0 -14 1 -18c-1 -15 -9 -17 -9 -38c0 -11 16 -43 19 -51l1 -18c10 -15 23 -32 31 -49l23 -13c0 -3 6 -10 8 -10c4 1 36 -21 52 -21c5 0 10 0 16 3c73 26 50 44 85 68c9 6 6 19 19 18z" />
    <glyph glyph-name="d" unicode="d" horiz-adv-x="488" 
d="M201 416c-14 0 -37 -27 -46 -36v-5l-5 -3l-18 -14l3 1c0 -1 -16 -18 -18 -20c-3 -6 -16 -54 -16 -61s6 -16 7 -24c3 -28 15 -52 15 -82c0 -2 8 -20 9 -24c32 -72 3 -52 87 -77h1c8 0 13 9 21 10h1c3 0 10 -3 13 -3l5 1c6 5 17 5 25 10c11 4 21 14 32 18h11l7 -2l9 3v12
l-8 1l5 14l1 -3c-1 18 -3 34 -9 53h1c-1 7 -9 33 -9 37c0 17 8 33 8 49c0 5 -1 17 -1 27c0 5 1 9 1 10l-2 9c1 2 1 4 1 7s-1 7 -3 10l-10 14l-11 2c-1 3 -2 6 -5 8l-7 5c-24 0 -24 9 -34 27c-4 2 -20 18 -23 19c-11 5 -25 7 -38 7zM384 710c30 -7 48 -28 50 -58l-10 -11v-1
c0 -16 -4 -31 -4 -47c0 -7 5 -17 5 -25v-3c-1 -11 -9 -20 -9 -30c0 -6 9 -8 9 -14v-9c0 -8 -1 -17 -5 -23c0 -1 -2 -3 -2 -7c0 -8 4 -20 4 -24c0 -23 -6 -45 -6 -68c0 -14 8 -32 8 -45v-1c0 -7 -4 -15 -7 -23l-4 -4c-1 -8 -1 -14 -1 -22v-1c0 -20 8 -41 8 -61
c0 -16 -7 -20 -11 -36v-3c0 -9 5 -17 7 -26c3 -20 0 -35 6 -54c1 -13 9 -21 11 -34l-4 -10c8 -11 17 -15 27 -23l5 -13l1 2l-1 -6v-7c0 -9 -5 -16 -12 -24c-6 -6 -11 -15 -19 -15h-2c-14 2 -27 3 -37 3h-18c-23 0 -36 4 -36 49c0 5 2 13 2 21c0 14 -2 26 -10 26h-1
c-24 -5 -34 -43 -52 -58c-15 -12 -37 -14 -53 -26h-3c-7 0 -20 -6 -28 -8h-21h-2c-14 0 -30 0 -38 11c-30 37 -44 20 -49 32c-3 9 1 22 -4 30s-10 9 -19 12l-2 4l-2 2c-19 39 -19 43 -20 84l-5 13v6v13c0 5 -2 14 -2 20c0 5 2 10 3 13c4 12 15 18 15 30v1c0 9 -10 14 -15 23
l1 14c18 40 33 92 79 111c28 12 30 19 58 31c3 2 4 8 9 8c0 0 23 -1 37 -1c22 0 44 1 57 1l-3 2l54 -14l9 6c0 6 2 11 3 16v4c0 4 -2 10 -2 16c0 2 1 2 1 4c2 8 9 24 9 33c0 2 -3 5 -5 7h-1v1l1 -1h1c0 1 -2 3 -2 4l-4 8l7 19c-6 18 -12 35 -17 54v2v1c0 21 -52 25 -61 39
c-2 2 -2 4 -2 8c0 11 11 27 23 29c27 8 46 10 74 12l13 1c4 2 11 10 14 10z" />
    <glyph glyph-name="e" unicode="e" horiz-adv-x="397" 
d="M180 323c12 -4 41 -5 50 -5c14 0 28 -6 39 -6c14 0 25 5 25 21v16c0 2 -4 24 -8 27c-14 15 -45 16 -65 16c-3 -1 -27 -15 -31 -15c-18 -1 -51 -32 -53 -50c0 -4 -2 -12 11 -12c4 0 24 8 32 8zM357 135c8 -3 15 -12 15 -20l-5 -11l-6 -4c-9 -18 -27 -70 -36 -82
c-13 -15 -33 -41 -54 -41c-16 0 -32 -2 -49 -2c-8 0 -16 0 -24 2c-49 13 -91 34 -125 71c-19 20 -18 59 -35 76l-6 23l3 10l-1 4c0 13 -3 35 -3 66c0 12 1 26 5 35c7 10 10 31 10 41c0 44 19 44 27 71c36 49 71 38 112 54c4 2 11 -2 17 -2c2 0 17 19 27 19
c10 -2 17 -11 26 -13c35 -6 70 -3 101 -31c5 -5 -4 -9 2 -15c12 -16 26 -53 26 -75c0 -20 -9 -24 -21 -24c-6 0 -14 1 -20 1c-17 0 -41 -8 -58 -10c-10 -1 -29 -2 -42 -2c-16 2 -29 3 -42 3c-15 0 -30 -1 -45 -1c-6 0 -16 6 -21 7l-10 -17c0 -10 -2 -21 -2 -31
c0 -9 -3 -12 1 -43c6 -38 32 -82 65 -110c22 -18 26 -26 53 -26c17 0 36 0 50 13c11 9 50 64 65 64z" />
    <glyph glyph-name="f" unicode="f" horiz-adv-x="293" 
d="M76 -10c-4 0 -10 -1 -14 -1c-18 0 -24 18 -28 32l5 11c9 2 20 3 27 11c14 13 12 27 16 44l-3 6l1 5v16l7 11c-1 5 -3 10 -3 14c0 15 8 32 8 46c0 18 -1 24 -2 43c-1 21 -14 31 -16 52l5 16c-5 10 2 41 -4 52c1 4 6 12 6 17c0 8 0 17 -8 17c-6 0 -11 -4 -16 -4
c-9 0 -32 12 -32 21c0 50 59 23 74 81c0 18 -3 24 1 42c5 13 1 26 6 38l-1 7l7 24c10 15 25 42 36 55c31 34 80 61 124 61c4 0 8 1 10 1c12 7 49 10 61 10c17 0 34 -2 51 -4l34 -21c4 -7 17 -11 17 -22c0 -34 -23 -70 -61 -70c-28 0 -58 58 -75 76c-3 5 -19 6 -24 6
c-34 0 -96 -56 -107 -86l2 -10c-2 -23 -9 -45 -9 -68c-1 -3 7 -31 0 -46c-3 -8 1 -19 5 -28l16 -5c19 -1 29 6 47 5c27 -2 52 -5 56 -30c0 -2 1 -3 1 -5c0 -20 -28 -34 -52 -34c-5 0 -9 1 -21 0c-3 2 -13 4 -21 4c-7 0 -13 0 -15 -2c-11 -3 -15 -8 -15 -15c0 -4 1 -10 1 -15
c0 -6 -4 -15 -4 -22c3 -30 10 -52 16 -80c-8 -19 -5 -29 -1 -53l-8 -29c0 -11 2 -33 6 -41l-2 -10c1 -4 5 -10 5 -15c0 -14 -5 -27 -9 -41l8 -14h12c2 0 11 5 31 3c3 -6 15 -13 15 -20c-3 -25 -22 -33 -44 -33c-9 0 -17 1 -25 4l-70 -13c-8 1 -15 5 -27 6z" />
    <glyph glyph-name="g" unicode="g" horiz-adv-x="497" 
d="M125 -176c10 -5 17 -16 27 -24c9 -7 62 -26 74 -26h36c10 0 23 6 44 6c36 13 79 24 79 72c0 77 -52 56 -91 94c-10 4 -19 2 -24 2c-9 0 -19 1 -28 1c-17 0 -70 -16 -79 -22c-6 -3 -11 -9 -16 -14c-6 -5 -7 -13 -9 -20l-7 -5c-6 -12 -14 -23 -14 -36c0 -9 4 -18 8 -28z
M43 -163c1 6 1 15 4 19c7 29 13 39 32 60c1 10 8 13 12 13l28 7c8 5 21 8 21 22c0 8 -3 10 -10 10c-5 0 -9 -1 -16 -1c-2 0 -27 6 -31 8c-13 11 -32 31 -32 50c0 11 -1 19 -1 26c0 11 2 17 15 32c10 13 42 17 47 34l9 7c-4 6 -51 38 -64 57c-10 15 -6 37 -13 50
c-1 3 -5 12 -5 13c0 11 0 23 -3 32c6 55 35 101 55 134c8 8 25 3 36 12c25 20 77 26 108 26c18 0 52 -7 68 -16c32 -18 28 -2 64 -43c1 -1 6 -8 14 -3l13 2c8 5 27 6 34 11c12 6 22 22 35 22c9 0 14 -13 18 -19l-6 -17l6 -11l-4 -10c1 -1 1 -4 1 -6c0 -11 -9 -29 -20 -31
c-9 0 -20 8 -28 8c-24 0 -28 -14 -28 -29c0 -10 2 -19 2 -27c0 -12 -11 -38 -15 -57c-3 -8 -17 -46 -22 -56c-14 -31 -99 -56 -131 -57c-13 -1 -25 -6 -40 -8c-30 -5 -47 -13 -47 -38c0 -4 1 -8 3 -14c4 -25 44 -24 68 -28l10 4l8 -3c15 3 32 0 37 0c32 3 45 -3 51 -8
c32 -3 96 -29 103 -39c6 -9 9 -10 17 -21c9 -11 15 -25 21 -37l-2 -8v-17c0 -8 2 -16 2 -23c0 -4 -4 -14 -4 -31c-1 -31 -38 -77 -71 -76c-14 0 -28 3 -42 3c-15 0 -35 -7 -51 -10l-6 1c-41 0 -86 -24 -127 -24c-13 0 -24 5 -35 12c-51 35 -74 -14 -88 93zM127 228
c-1 -39 57 -90 94 -90c16 0 37 7 48 20c3 6 11 8 15 13c11 27 26 52 33 88l-3 12c1 5 2 9 2 13c0 6 -1 11 -2 18l-12 15c-2 7 -3 14 -8 22v14c-7 13 -18 19 -28 28c-13 10 -14 18 -31 18c-26 0 -64 -9 -75 -35c-4 -7 -12 -13 -16 -20c1 -12 -11 -32 -12 -42
c-1 -8 -7 -12 -7 -20c3 -14 2 -38 2 -54z" />
    <glyph glyph-name="h" unicode="h" horiz-adv-x="510" 
d="M62 594c-18 -13 -34 -5 -34 1c3 33 29 94 71 94c25 0 77 -3 77 -37c0 -25 -12 -48 -12 -73s12 -50 12 -72c0 -19 -11 -46 -18 -64l8 -23c-1 -4 -4 -14 -4 -18c0 -16 2 -30 2 -45l6 -5c32 7 45 53 77 70c6 4 11 10 15 13l8 -1c20 5 66 9 85 1c19 2 52 -21 70 -31
c5 -4 7 -10 9 -15c12 -33 17 -74 20 -113c-5 -9 -11 -18 -12 -29c0 -6 12 -6 13 -12c6 -20 7 -41 7 -62c0 -7 -3 -16 -4 -23c-2 -5 -1 -11 -3 -17l-7 -10c6 -11 10 -23 15 -35l-2 -16l9 -22c1 -8 4 -9 0 -28l5 -15l-5 -13c-8 -2 -16 -8 -25 -9c-10 0 -16 7 -24 7
c-5 0 -15 -5 -17 -5c-14 0 -19 4 -19 19c0 3 -12 15 -18 15c-7 -4 -9 -12 -14 -15c-10 -7 -22 -13 -35 -13c-3 0 -6 -1 -9 -1c-11 0 -11 5 -16 23l5 6l-2 4c16 14 25 23 46 29l18 12c9 27 17 48 15 73c-2 6 -12 21 -12 37c0 4 5 11 9 17c0 1 -12 16 -12 17c0 8 13 7 15 20
c-1 14 -10 41 -3 47v10c0 4 0 7 -3 11c-8 13 -16 17 -20 33l-8 9l-16 -5c-16 14 -13 18 -47 18c-10 0 -7 3 -25 3l-10 7h-13c-1 -8 -9 -19 -17 -23c-13 -9 -31 -9 -37 -26c-9 -26 -16 -44 -14 -60c0 -17 -5 -36 -7 -52l5 -15c0 -7 -3 -14 -3 -21c0 -11 1 -18 -2 -27l6 -9v-5
c0 -6 0 -13 2 -20l-1 -7l2 -7c1 -7 -4 -24 0 -34c0 -8 7 -14 12 -19c0 -2 5 -4 11 -2c8 0 16 -3 22 -8c4 -3 9 -7 10 -13c0 -7 -4 -13 -8 -15c-9 -5 -18 2 -27 -2c-10 -5 -18 1 -27 2c-15 0 -32 -8 -48 -7c-16 0 -38 9 -51 17c-4 3 -12 14 -12 20c3 17 20 22 21 38
c3 12 3 25 4 37c-1 2 -3 24 -4 30l4 6l-4 21c11 20 7 31 9 45c0 12 -4 19 -5 28c0 19 9 25 4 59c-2 14 3 22 3 30c0 9 -4 17 -16 32l11 16c-7 12 -17 24 -17 37c-1 29 23 37 23 56c0 13 -7 25 -8 37c0 6 3 12 4 18l-3 7l3 10c-2 19 0 42 -13 57z" />
    <glyph glyph-name="i" unicode="i" horiz-adv-x="264" 
d="M91 591c-1 11 4 30 6 39c30 26 17 7 47 20c16 7 49 -12 49 -31c0 -1 -1 -6 -3 -7l3 -9c-6 -17 -13 -36 -27 -48c-5 -3 -13 -4 -20 -4c-2 0 -18 6 -21 6c-16 0 -25 22 -34 34zM176 176c0 -10 1 -21 1 -32c0 -6 0 -14 -1 -19l5 -18l-2 -9l2 -6l-1 -20c10 -22 37 -42 37 -65
c0 -4 -4 -5 -5 -6c0 -3 -12 -10 -14 -10c-12 -2 -40 3 -49 2c-22 0 -37 -1 -60 7c-2 0 -5 -2 -7 -2c-15 0 -33 1 -42 13c-1 2 -1 4 -1 5c0 5 3 11 7 14c16 14 36 14 49 33c3 3 -3 17 -3 20c-1 4 -1 4 -1 5c0 4 -2 9 -2 13c0 10 7 23 7 32c0 6 -3 19 -3 24s-4 46 -5 48l2 8
l-1 9c0 4 1 8 1 13c0 12 -3 12 -3 20c0 12 11 37 11 51c0 26 -47 62 -47 67s1 10 1 16c4 0 7 5 8 5l20 -1c18 6 33 21 50 30c5 3 25 8 28 8c18 0 21 -16 21 -30c0 -20 1 -42 1 -62c0 -11 0 -22 -1 -31c-1 -7 -5 -17 -9 -22c-4 -3 -16 -2 -16 -8c3 -16 26 -31 26 -48
c0 -9 -4 -43 -4 -54z" />
    <glyph glyph-name="j" unicode="j" horiz-adv-x="264" 
d="M-122 -249c1 3 1 5 1 6c0 6 -8 10 -9 16c-1 8 -2 15 -2 22c0 23 28 51 51 51c42 0 29 -36 33 -52c7 -20 22 -36 39 -36c14 0 19 -2 33 -1c28 3 47 36 47 64c0 15 9 29 9 42c1 15 -5 26 -5 39c0 41 8 80 8 122c0 12 7 27 12 39c4 11 -6 15 -6 38c0 10 7 23 7 32
c0 6 -3 19 -3 24s-4 46 -5 48c-4 26 8 37 -1 50c0 12 11 37 11 53c-6 36 -47 53 -47 65c0 5 1 10 1 16c3 0 8 5 28 4c18 6 33 21 50 30c5 3 25 8 28 8c18 0 21 -16 21 -30c0 -20 1 -42 1 -62c0 -11 -1 -22 -1 -31c0 -4 -3 -14 -1 -26c3 -15 2 -35 2 -51c0 -10 -4 -42 -4 -52
c0 -8 3 -39 0 -54l5 -18l-2 -9l2 -6l-1 -20l5 -10c-5 -34 -3 -73 -9 -105c-5 -29 -60 -174 -78 -182c-32 -13 -5 -28 -47 -39c-11 -3 -18 -21 -29 -21c-15 2 -48 5 -58 7c-15 2 -30 10 -44 10c-3 0 -33 8 -42 19zM192 618c1 -12 -4 -31 -6 -40c-30 -25 -17 -7 -47 -19
c-16 -7 -49 11 -49 30c0 2 1 6 2 7l-2 9c6 17 13 37 26 48c6 4 14 5 21 5c2 0 18 -7 20 -7c16 0 25 -22 35 -33z" />
    <glyph glyph-name="k" unicode="k" horiz-adv-x="449" 
d="M380 429c10 0 17 11 26 11h11h7c6 -2 11 -8 16 -14l2 -13c-3 -8 -17 -8 -22 -14c-18 -18 -96 -89 -113 -93l1 -5c0 -7 -9 -11 -13 -16c-11 -17 -48 -26 -59 -47v-4c0 -8 6 -5 11 -8c33 -23 92 -107 121 -119c18 -8 29 -28 38 -45l18 -8c1 -3 6 -8 10 -8s4 2 9 2
c4 0 8 -5 13 -6s7 8 10 8c5 0 7 -17 7 -23c-2 -8 -2 -20 -9 -22c-13 -4 -25 -7 -38 -7c-12 0 -34 13 -50 10c-15 0 -53 -10 -66 -13h-3c-9 0 -20 6 -29 6s-12 -8 -17 -8c-2 0 -7 2 -7 5c1 8 5 9 5 16s7 11 11 14c21 0 37 7 37 20v4c-4 11 -15 15 -19 26c-1 6 -9 9 -13 13
c-8 7 -12 16 -19 22c-4 3 -11 3 -13 8c-4 4 -2 12 -8 14c-6 -2 -12 3 -10 15c-20 19 -37 42 -59 53l-3 -1l5 -15c-2 -11 -4 -23 -4 -34c0 -29 9 -63 8 -96c0 -8 7 -14 12 -19l12 -2l14 -17c-4 -6 -5 -12 -6 -19c-14 -7 -23 -6 -39 0c-27 -6 -45 -9 -83 -8c-15 0 -30 1 -42 8
c-4 2 -7 15 -7 23c0 3 1 7 2 8c12 11 25 12 35 24c5 8 6 18 9 27l-4 53l4 6l-4 21c-2 22 9 32 9 45c0 12 -4 19 -5 28c0 6 4 2 4 57c0 11 -2 33 -2 44c0 3 6 14 6 30c0 2 -15 -2 -14 28c0 7 6 10 6 23c0 1 -7 30 -7 48c0 13 7 16 9 25l-2 12c2 5 3 11 4 18l-3 7l3 10v8
c0 10 15 44 -13 49l-19 -6c-5 7 -21 10 -23 21v9c0 18 7 31 30 35c21 4 40 29 55 29h15c24 0 56 -3 56 -28c0 -29 -12 -57 -12 -87c0 -22 12 -41 12 -60s-11 -46 -18 -64l8 -23c-1 -4 -4 -14 -4 -18c0 -16 2 -30 2 -47c0 -4 -1 -8 -1 -12v-4c0 -14 7 -57 -2 -72l2 -17
c3 -1 6 -1 9 -1c13 0 58 44 63 44c3 11 21 16 32 23c4 10 44 34 44 60l-1 5l-25 15c-1 2 -3 3 -6 3c-5 0 -16 -5 -19 -5c-9 0 -21 15 -21 24c0 16 17 14 29 16l22 -13c3 12 11 7 22 10c4 0 5 4 8 4c6 0 11 -6 15 -6c7 2 14 6 18 6c6 0 13 -5 19 -6z" />
    <glyph glyph-name="l" unicode="l" horiz-adv-x="268" 
d="M243 17c0 -10 -79 -34 -96 -38h-5c-6 0 -14 3 -22 5c-7 1 -24 5 -32 5l-5 2c-9 -1 -19 -2 -28 -2c-6 0 -11 1 -15 2l-17 16l11 20l1 14c46 11 36 48 64 71c5 17 -7 32 -7 36c-3 9 -4 18 -4 28c1 12 10 16 9 25c-1 16 -5 25 -5 40c0 5 -5 25 -5 35c0 4 0 11 1 17
c1 3 8 5 8 8c-3 14 -6 30 -7 46c0 11 8 25 8 35c0 17 -5 34 3 52c-5 7 -12 20 -12 29c0 12 9 23 9 36c0 15 -4 21 -9 37l3 8c-1 7 -1 15 -1 21c0 24 2 44 1 67c-1 16 -31 35 -34 50c0 12 17 17 25 24c14 5 43 6 65 6c14 0 30 -9 37 -20c2 -5 3 -9 3 -15c0 -4 -1 -9 -1 -14
c0 -9 -1 -15 -2 -23c1 -22 -16 -31 -16 -40c2 -7 13 -12 13 -19c0 -3 -7 -18 -7 -22c0 -5 4 -32 4 -51c0 -6 -1 -13 -2 -14c-2 -4 -3 -7 -3 -10c0 -5 5 -10 11 -17l4 -24l-1 -12c-3 -14 -6 -27 -6 -41c0 -5 7 -9 8 -12l-10 -26c1 -8 5 -19 5 -26c0 -9 -8 -18 -8 -26
c0 -5 2 -8 2 -15c-5 -26 -4 -29 -4 -32c0 -4 -4 -14 -4 -22c0 -1 1 -6 3 -28l-3 -10c4 -17 8 -35 11 -53c0 -5 -5 -11 -5 -28v-22v-10l5 -9l-1 -5c7 -4 14 -8 22 -10c7 1 8 1 9 1c9 0 14 -5 19 -13c4 -4 8 -10 11 -16c1 -3 2 -7 2 -11z" />
    <glyph glyph-name="m" unicode="m" horiz-adv-x="811" 
d="M750 27c2 -3 7 -16 7 -18c0 -23 -2 -30 -16 -30c-6 0 -11 2 -19 3c-17 2 -35 11 -51 11c-2 0 -4 -1 -6 -1c-21 5 -21 5 -33 7c-5 -1 -8 -1 -12 -1c-17 0 -32 2 -32 23c0 20 17 18 32 21c6 -1 12 1 31 6c8 4 9 12 9 20c0 2 0 2 -1 18c2 17 1 51 2 69c0 11 -2 19 -2 32
c0 16 -8 30 -9 44l2 28l-2 10c0 5 1 9 1 14c0 38 -38 67 -74 67c-18 0 -37 -12 -55 -15c-23 -3 -43 -14 -43 -43c0 -25 -14 -41 -16 -64c0 -6 14 -41 14 -78c-6 -13 -14 -34 -14 -50c1 -19 7 -35 7 -52c0 -27 61 -6 61 -33c0 -13 -4 -15 -11 -15c-8 0 -6 1 -14 1
c-11 0 -25 -8 -35 -8c-4 0 -64 6 -67 6c-12 0 -24 -7 -36 -7c-18 0 -53 6 -53 29c0 7 2 19 12 20c8 0 18 -3 28 -3c18 0 25 18 25 36c0 10 -3 22 -6 29l2 6v16c0 24 4 56 5 75c1 15 0 18 0 21c0 22 9 23 9 53c-1 41 -17 68 -54 91h-4c-37 0 -83 -14 -117 -31
c-25 -13 -21 -40 -29 -66c6 -5 12 -32 12 -61c0 -14 -2 -36 -6 -50l5 -15l-2 -20c0 -11 1 0 1 -38c0 -29 39 -30 48 -52v-6c0 -5 -2 -13 -5 -19l-28 1c-17 1 -34 -6 -49 -7l-7 -2h-11c-7 0 -15 4 -23 4c-6 -1 -13 -2 -18 -2c-4 0 -7 1 -10 2c-7 6 -12 15 -18 22l-3 13l1 13
l-7 15c0 6 1 14 6 16c9 7 21 9 31 16l4 10c-1 8 -9 33 -9 37c5 27 8 44 8 72c0 36 -9 65 -9 101c0 22 -43 11 -49 27l3 8c0 19 -8 21 44 52c19 17 28 33 53 33c62 0 40 -20 52 -64l-6 -10v-11l8 -8l10 5l-3 8c13 15 19 40 37 49c56 27 14 31 110 41l5 -3l16 1
c109 -40 37 -39 92 -95c2 -2 4 -2 6 -2c13 0 27 34 43 44l8 13c12 8 28 22 43 24l24 11h11c37 0 82 -3 101 -31c1 -25 9 -32 11 -35c10 -15 10 -25 15 -40c0 -8 9 -20 9 -32s2 -15 6 -27c0 -4 -5 -21 -5 -22c0 -10 6 -16 6 -25c0 -15 -6 -29 -6 -42c0 -5 0 -10 2 -15l-3 -17
c4 -23 15 -46 15 -69c0 -6 -9 -39 -5 -59z" />
    <glyph glyph-name="n" unicode="n" horiz-adv-x="510" 
d="M475 21c6 -12 -13 -15 -27 -15c-17 0 -19 1 -33 1c-7 0 -16 -1 -21 -5l-26 7c-7 -3 -16 -3 -25 -3h-16h-6l-12 11c3 7 6 13 9 19l25 6l14 10l7 21c1 10 -4 28 -4 41c1 8 5 66 6 80l4 11c-9 12 -11 29 -11 44c0 7 9 29 9 42c-1 5 -8 10 -9 16v8c0 33 -32 48 -57 63l-9 -2
l-31 13c-32 0 -77 -26 -97 -50c-3 -5 -4 -8 -4 -12s1 -9 1 -15c0 -4 -9 -27 -9 -32c0 -8 5 -16 5 -21c0 -17 -6 -23 -6 -73c0 -29 11 -56 11 -83c0 -20 -2 -40 -9 -54l1 -13l17 -6l17 1l22 12c6 0 11 -2 17 -4l5 -14l-8 -22l-13 -5l-16 3c-14 -6 -24 -8 -39 -11l-7 2l-6 -3
l-16 4c-9 -2 -21 -6 -30 -6c-16 0 -28 4 -44 10l-11 4c6 20 20 29 25 47c6 11 11 30 11 44c-3 24 -12 50 -12 74c0 15 6 36 4 46c-3 2 -4 8 -4 14c0 8 3 18 3 21l-4 7c5 15 4 34 9 48l-8 16c1 6 3 10 3 16c0 10 -8 17 -18 17c-1 0 -2 0 -5 -1c-13 0 -13 22 -13 31
c0 7 1 18 7 23c21 13 48 14 70 27c3 3 24 14 28 14c10 0 14 -11 17 -20l-3 -11c1 -6 1 -12 1 -18c0 -5 2 -15 2 -22l5 -7c33 24 56 50 98 66l10 -1l9 7c12 2 21 9 33 10c8 1 13 0 25 -1c12 1 29 -11 46 -11c3 0 4 0 8 1c7 0 14 -16 19 -20c1 -1 3 -1 4 -1c2 0 4 1 8 3l7 -5
l-7 -3c18 -27 33 -109 34 -143c1 -23 -2 -43 -4 -69c0 -5 -3 -21 -3 -26c0 -4 1 -63 1 -67c0 -8 -1 -16 -1 -24s24 -36 29 -50z" />
    <glyph glyph-name="o" unicode="o" horiz-adv-x="499" 
d="M139 190c0 -11 9 -33 14 -41c13 -20 32 -84 52 -94c17 -8 30 -20 51 -20c67 1 51 8 94 46c3 2 7 2 8 5c5 9 33 74 23 83c-4 3 -5 16 -5 20c0 8 9 25 9 34c0 7 0 12 3 18c-8 22 -14 61 -15 71c0 5 -8 14 -9 17c-1 4 -1 7 -1 11c0 2 -5 2 -5 4c-23 30 -54 62 -91 69
c-8 0 -16 -9 -24 -13c-5 1 -8 1 -12 1c-33 0 -51 -20 -66 -48c-21 -39 -24 -63 -24 -87c0 -11 1 -22 1 -33c0 -12 -1 -26 -3 -43zM121 26c-6 15 -16 0 -46 40c-3 7 -7 14 -9 22v16c-10 17 -14 31 -23 48l4 13c-1 1 -1 8 -1 16c0 17 1 40 2 46l-4 9c5 78 6 107 54 166
c13 17 37 21 55 31c7 4 13 5 21 5c11 0 22 -3 31 -3l24 13h12c9 0 21 0 26 -2c4 5 41 4 56 4c14 0 30 -17 43 -21c17 -7 32 -16 42 -30l5 -13c12 -6 20 -30 19 -46c15 0 33 -74 35 -84c-3 -42 -3 -70 -18 -125c-8 -28 -26 -56 -31 -87c-1 -2 -21 -28 -33 -30
c-5 -1 -32 -11 -38 -13l-16 6c-29 -10 -31 -28 -80 -28c-5 0 -10 0 -14 4c-9 6 -11 17 -24 20l-20 -5c-25 11 -48 18 -72 28z" />
    <glyph glyph-name="p" unicode="p" horiz-adv-x="494" 
d="M242 383c-32 0 -76 -28 -76 -64c0 -5 3 -19 -8 -57c5 -17 6 -35 6 -55s-2 -42 -2 -62c0 -1 2 -12 2 -54c0 -29 45 -39 64 -47l7 3l15 -5c37 8 73 32 106 51l8 28l17 15c4 8 4 16 8 22l-3 8c4 6 7 13 7 20s-4 15 -7 20l5 14c-6 31 -15 56 -22 88c-9 41 -11 35 -45 61
l-12 -4l-9 2l-5 6l-30 10l-6 -2c-7 1 -13 2 -20 2zM454 212c3 -6 8 -14 8 -22c0 -24 -8 -42 -24 -61c-13 -15 -14 -31 -17 -49l-12 -6c-7 -11 -24 -24 -35 -30l-10 -1c-32 -27 -55 -33 -95 -33c-20 0 -38 -4 -57 -7c-8 0 -19 7 -25 8l-13 -6v-10l-3 -6c1 -16 9 -32 9 -48
s-16 -40 -16 -58c-3 -21 6 -68 0 -84c0 -25 30 -28 47 -28c24 0 32 -13 41 -31l-14 -19c-15 -14 -52 -3 -70 -11c-26 0 -23 10 -44 18c-2 1 -4 1 -7 1c-12 0 -31 -9 -42 -9c-41 0 -36 2 -62 27c-3 3 -4 6 -4 9c0 14 13 32 25 37c8 6 16 -10 29 2l17 25c-4 20 -8 41 -9 60
c-1 9 -1 19 -1 28c0 21 1 41 6 61c-11 20 14 56 6 70c-6 9 1 18 1 37c-3 19 -8 31 -10 49c-2 13 3 43 3 92c0 3 8 21 10 25c9 27 -7 38 -7 51s5 27 7 44c0 14 -14 26 -27 39l-11 2l-14 23c8 25 9 32 32 42c23 11 41 15 65 21c2 0 4 1 6 1c8 0 16 -3 21 -8c6 -3 6 -12 11 -17
c3 -3 9 -6 12 -10l-5 -4l-5 -14v-10c2 -3 5 -6 7 -6h1c10 3 16 12 25 21v8c7 0 15 -2 22 -2c1 0 23 17 24 18c0 2 6 4 8 4c5 2 9 5 16 6h4c10 0 22 -2 31 -2c8 -1 17 -4 25 -7c0 -2 7 -2 9 -2c14 0 34 -9 47 -16l16 -19l11 -3l3 -8c4 -1 8 -6 11 -9l4 -11
c11 -8 13 -23 14 -35c3 -21 6 -24 6 -36c0 -4 0 -9 -1 -18v-5c0 -13 12 -41 0 -68z" />
    <glyph glyph-name="q" unicode="q" horiz-adv-x="524" 
d="M366 154c0 8 0 19 -1 20l-1 8c-8 7 2 13 2 25l-5 30c-4 2 -9 5 -13 5l-7 3c11 17 14 14 14 34c0 7 10 37 12 44l-7 17l1 13l-4 21c-6 8 -13 17 -22 23c-24 16 -53 27 -83 27h-9c-23 -2 -55 -22 -72 -39l-9 -24l-7 -8c-3 -9 -8 -18 -13 -26c0 -1 -5 -6 -9 -27
c0 -10 -9 -23 -9 -33c0 -32 8 -54 9 -83l2 -15c7 -6 13 -23 17 -32c-4 -8 -4 -20 5 -25c4 -7 5 -16 11 -22c11 -11 25 -24 39 -28c13 -5 26 -5 37 -12c5 -2 6 -10 11 -12c4 -3 9 -4 13 -4c33 0 61 18 87 37c11 9 18 18 18 34c0 12 2 35 -7 49zM453 -303
c-14 -1 -31 -7 -41 -9c-8 6 -22 14 -32 14c-3 0 -30 -8 -33 -9c-18 4 -39 16 -53 8c-11 0 -26 7 -28 19c0 1 -2 2 -2 4c0 9 7 18 20 18c12 0 25 -3 37 -4l11 2l7 -1l17 7c12 27 12 45 14 75c0 8 -4 13 -6 22c1 41 2 40 -1 67v11l6 12l-2 11c1 4 5 10 5 13
c0 41 -29 44 -64 44c-6 0 -31 -9 -38 -9c-25 -3 -64 -3 -84 8l-20 6c-27 25 -45 9 -68 50c-3 6 -16 4 -18 10c-6 23 -27 35 -33 54l-16 49l4 7c-3 8 -4 13 -4 20c0 11 3 23 3 34c0 8 -6 17 -6 28c4 16 3 36 11 50l-1 3c6 32 10 30 30 53c4 16 38 41 48 45l7 12
c13 5 23 11 37 17c19 8 29 13 47 13h8l10 4c4 -1 8 -1 11 -1c15 0 30 4 43 4c9 0 15 -9 23 -11l29 6l14 -13l10 -1c0 -4 8 -8 10 -8c5 0 25 -11 31 -13c11 0 28 27 33 36c4 8 11 12 20 15l18 -32c-6 -29 0 -59 -9 -88l4 -12l-4 -4c3 -15 3 -30 3 -43c0 -23 -2 -46 -4 -68
c8 -25 5 -83 -7 -87l8 -45c-3 -10 -5 -23 -7 -34l6 -16v-6l5 -12l-5 -29v-8c0 -20 5 -43 5 -65c0 -6 0 -11 -3 -28c3 -12 4 -23 7 -34v-6l-3 -30l1 -3l-8 -17l3 -15c-1 -5 -4 -9 -5 -15c0 -18 77 -17 77 -51c0 -8 -3 -17 -10 -22c-5 -3 -39 -11 -43 -11c-7 0 -19 9 -25 9z
" />
    <glyph glyph-name="r" unicode="r" horiz-adv-x="332" 
d="M83 239c0 5 -8 19 -8 23c6 20 -3 33 -3 46c0 12 7 8 7 27c0 47 -55 16 -55 55c0 14 12 19 24 26c12 8 81 51 89 51c24 0 28 -25 28 -44v-8l9 -18c22 21 33 61 75 61c36 0 52 -9 71 -41c1 -3 3 -8 3 -12s-2 -8 -2 -13c0 -15 -9 -52 -27 -52c-4 0 -11 1 -16 2l-10 -2
c-23 9 -19 27 -47 27c-45 0 -49 -46 -49 -82v-19c0 -15 -7 -29 -8 -44c0 -5 -1 -10 -1 -16c0 -24 5 -44 11 -70c2 -4 2 -6 2 -11c0 -12 -5 -25 -5 -37c0 -31 32 -30 55 -42c3 -3 4 -12 4 -16c0 -20 -4 -25 -23 -32c-1 -1 -3 -1 -4 -1c-10 0 -19 6 -29 10h-1h-8
c-34 0 -72 -8 -106 -8h-4c-11 0 -20 12 -21 23c-1 3 -1 5 -1 8c0 6 1 12 1 18v9c5 0 12 -3 15 -3c17 0 18 10 26 24c-2 14 14 11 14 27c-3 15 -9 30 -9 45c0 4 -6 43 2 70z" />
    <glyph glyph-name="s" unicode="s" horiz-adv-x="352" 
d="M33 108c1 12 1 23 6 33c1 3 4 3 5 3c6 0 14 -3 16 -7c4 -7 5 -16 7 -25c0 -3 4 -4 4 -5c3 -12 19 -16 27 -32l9 -5l1 -10c9 -13 24 -20 40 -20c34 0 65 20 69 57c0 14 -10 33 -21 48c-20 26 -57 51 -84 67c-7 11 -23 23 -33 32c-5 5 -15 0 -19 5c-17 27 -17 43 -21 75
c0 5 -4 15 -5 20l5 9c0 25 15 55 33 71c8 7 20 8 26 16c5 7 17 2 25 5l6 5l8 4c2 -1 3 -1 7 -1c9 0 22 4 29 4c6 0 46 -12 50 -15c16 -7 45 -5 57 -18c14 -15 23 -28 23 -49c0 -8 0 -14 3 -18c5 -9 11 -21 13 -31c0 -2 1 -5 1 -6c0 -10 -5 -20 -18 -20c-36 0 -56 40 -64 69
c0 4 -3 8 -4 13c0 19 -40 23 -57 23c-9 -1 -40 -30 -41 -32c-7 -13 -7 -29 -7 -42c0 -10 0 -20 4 -24c13 -14 29 -23 44 -36l21 -5c62 -51 81 -14 103 -84c17 -17 17 -33 17 -55c0 -52 -15 -59 -36 -94c-3 -5 -12 -1 -15 -6c-24 -32 -65 -28 -99 -32c-6 -6 -12 -2 -14 -2
c-7 0 -15 -2 -21 -3c-5 0 -10 3 -13 7l-4 5l-9 6l-45 9c-23 17 -21 24 -21 35c-2 18 -11 35 -16 51z" />
    <glyph glyph-name="t" unicode="t" horiz-adv-x="340" 
d="M235 74c18 -1 34 10 41 24c6 10 9 22 14 32l-5 10c1 4 5 7 7 9l14 -10l2 -20c6 -8 10 -20 10 -30c0 -2 0 -5 -1 -7c-3 -17 -8 -30 -8 -48c0 -9 -5 -27 -10 -35l-36 -17l-43 8l-17 -4c-14 4 -26 6 -39 9l-7 7c-20 0 -43 -1 -56 14c-22 23 -33 44 -33 77c0 8 5 23 -1 31
c0 5 5 20 5 24c-5 36 -9 69 -9 104c0 18 0 91 8 106v18c-7 -1 -14 -1 -21 -1h-9l-13 7l-2 11l2 8l-2 5l4 11c0 4 -2 6 -2 9c0 9 8 16 21 16c33 16 24 22 57 50c5 4 19 16 21 23l22 25h16l6 5h6c0 -11 5 -22 7 -34c0 -14 -6 -30 -8 -42c0 -19 18 -24 35 -24c6 0 14 1 18 3
l9 -6c8 3 17 6 25 6c4 0 6 0 8 -1c14 -6 21 -21 30 -31c1 -16 -7 -25 -10 -38c-9 -5 -16 -6 -24 -6c-6 0 -13 1 -21 1c-11 0 -32 -9 -43 -9c-9 0 -21 6 -30 6c-10 -2 -25 -21 -25 -30s2 -16 5 -23l-1 -8c1 -6 5 -24 5 -27c0 -13 1 -82 1 -90c0 -24 -10 -40 0 -76
c13 -18 10 -29 29 -41l20 1l4 -1z" />
    <glyph glyph-name="u" unicode="u" horiz-adv-x="513" 
d="M406 404l-5 -10l11 -4zM410 439c4 0 7 2 11 2c32 0 36 -31 36 -59c0 -10 -1 -19 -1 -27c0 -26 -7 -47 -7 -71c0 -4 1 -8 1 -13c0 -9 -7 -27 -8 -36c0 -9 1 -14 7 -23v-40c-3 -10 -9 -45 -8 -56c0 -9 -11 -18 -11 -26c0 -1 0 -2 1 -3c8 -19 24 -13 41 -21
c7 -3 9 -10 14 -16l-6 -14c0 -1 -13 -3 -15 -4l-20 -17c-21 -8 -41 -21 -63 -24c-2 0 -6 -1 -7 -1c-26 0 -40 23 -40 49c0 7 13 19 4 27c-4 0 -11 -7 -15 -9l-20 -21c-3 0 -27 -15 -30 -19c-8 -6 -21 -7 -30 -10l-9 -9l-9 -5l-23 1c-10 0 -21 -5 -32 -5c-48 13 -51 8 -84 45
c-5 5 -6 9 -6 13c0 8 6 15 6 26c0 1 -11 20 -11 24c4 9 5 23 -1 30l-8 13c-1 4 -1 7 -1 10c0 7 1 15 1 21c0 52 11 107 13 161c0 12 -7 41 -10 51c-4 7 -13 18 -23 16c-8 0 -13 6 -13 14v8c0 3 0 8 2 12c3 7 11 13 14 20l17 -8l9 2c7 -4 22 -9 30 -5c6 0 17 1 29 1
c15 0 31 -2 37 -10c5 -7 4 -15 6 -21c0 -14 -5 -28 -7 -44c0 -1 -1 -9 -1 -10c0 -6 2 -14 2 -21c0 -22 -10 -43 -11 -65c0 -2 2 -11 2 -28c-6 -24 -15 -43 -15 -68c0 -19 24 -37 30 -53c11 -27 20 -40 50 -40c16 0 30 6 47 6c24 0 77 19 85 46c-1 9 12 30 12 47
c0 14 -8 31 -9 46c0 9 -3 19 -3 32c-1 16 10 36 9 52c-1 15 -9 28 -10 44l4 8c0 17 -20 41 -37 41c-3 0 -5 5 -7 8l-5 24c3 6 7 12 13 17l12 -6l4 -7c6 -1 13 -4 20 -4c10 1 10 8 17 8c1 0 2 -2 4 -2l7 3c7 -3 13 -6 19 -7z" />
    <glyph glyph-name="v" unicode="v" horiz-adv-x="467" 
d="M145 139c-17 22 -53 125 -70 153c-16 26 -25 100 -57 104c-4 0 -13 -15 -21 -15c-18 1 -28 21 -28 40c0 27 20 32 33 32c8 0 17 -3 25 -3c16 -1 27 -20 43 -20c8 0 19 4 27 4c18 0 51 7 71 7c29 -1 41 1 52 -15c1 -3 -3 -6 -7 -9c-15 -13 -61 -18 -61 -42
c0 -5 12 -25 13 -31c1 -24 0 -24 11 -43c10 -6 17 -25 13 -35c0 -37 30 -59 39 -92c7 -28 -7 -53 23 -67c1 -1 2 -1 3 -1c20 0 45 62 45 83c0 18 36 78 42 104c6 -1 16 21 22 23c0 8 9 11 9 19c0 5 -9 14 -9 18c-14 70 -37 21 -60 70c-2 39 42 16 47 16c7 1 13 6 19 6
c4 0 9 -5 27 -5c14 0 30 2 39 2c6 1 36 19 42 19c19 0 23 -20 23 -21c0 -9 -4 -22 -9 -30c-9 -17 -29 -21 -44 -32c-27 -19 -25 -45 -50 -64c-8 -6 -12 -18 -16 -27c-6 -10 -6 -25 -15 -33c1 -13 -17 -41 -23 -49c-14 -21 -16 -67 -41 -93c-3 -37 -48 -112 -50 -125
c-10 -8 -25 -9 -38 -6c-5 3 -16 3 -17 10c-4 25 -24 43 -19 60c0 15 -25 70 -33 88z" />
    <glyph glyph-name="w" unicode="w" horiz-adv-x="781" 
d="M804 440c1 -30 -34 -40 -54 -54c-27 -19 -25 -45 -50 -65c-9 -5 -11 -17 -17 -26c-6 -10 -6 -25 -15 -33c1 -13 -19 -40 -23 -49c-4 -19 -29 -100 -41 -92c-1 -16 -21 -41 -31 -66c-13 -34 -19 -66 -55 -66c-6 3 -15 4 -19 10c-4 15 -25 29 -17 42c7 10 -1 11 -1 18
c0 15 -21 72 -33 88c-8 11 -31 121 -67 123c-18 1 -31 -40 -38 -57c-7 -19 -20 -41 -20 -60c0 -6 -13 -32 -21 -32c-3 -38 -40 -99 -41 -126c-3 -2 -26 -6 -47 -6c-26 14 -36 51 -36 70c0 15 -21 72 -33 88c-9 10 -20 49 -24 66c-2 16 -23 12 -23 36c0 20 -23 34 -23 59
c0 27 -33 97 -66 98c-9 -9 -15 -6 -25 -6c-8 0 -15 14 -15 28c1 25 6 27 22 27h16l19 9c10 -3 54 -22 71 -22c18 0 36 6 56 6c32 0 68 6 68 -16c0 -8 -9 -9 -9 -15c0 -8 -9 -13 -15 -15c-5 0 -10 3 -15 3c-12 0 -30 -6 -30 -22c0 -5 12 -25 13 -31c1 -24 0 -24 11 -43
c6 -35 43 -94 52 -127c7 -28 -7 -57 23 -70c21 0 48 64 48 85c0 5 25 61 26 64c9 24 24 48 30 72c5 20 17 116 49 116c35 -1 38 -15 38 -29c0 -13 11 -12 11 -30c0 -2 1 -5 1 -7c4 -11 13 -20 13 -31c8 -59 49 -115 64 -170c7 -28 -3 -54 26 -68c20 0 44 62 44 83
c0 23 42 74 44 129c0 9 16 21 16 25v16c0 6 -1 13 -2 23c-2 20 -41 8 -54 45l3 14c1 4 5 6 9 9h12c3 0 20 -8 24 -8s9 5 23 5c30 -13 38 -4 42 -1l9 -5l16 5l7 -3c13 6 16 6 20 6c3 0 34 6 34 -17z" />
    <glyph glyph-name="x" unicode="x" horiz-adv-x="491" 
d="M317 365c9 -2 22 34 22 41c0 27 -32 14 -47 31l-6 10l9 11c30 6 73 -3 113 3l14 -4c9 1 18 6 27 8c10 0 17 2 28 -16c4 -8 7 -17 11 -26l-2 -6l-22 5c-22 -4 -20 -6 -38 -20c-21 -18 -35 -35 -54 -55c-3 -3 0 -6 -3 -7c-13 -20 -35 -30 -50 -48l-15 -8
c-3 -13 -18 -22 -18 -33c0 -2 1 -5 2 -7c7 -18 119 -140 138 -165l25 -12c3 0 3 -7 8 -7c14 -4 21 -5 21 -14c0 -31 -10 -38 -21 -38c-5 0 -12 1 -22 1c-27 0 -39 -18 -68 -18c-26 0 -70 2 -91 20l-2 10c3 11 0 7 12 14c22 13 8 9 20 35l-23 21c-5 20 -6 25 -18 41l-4 14
l-26 38c-19 -2 -23 -18 -23 -19c0 -3 -18 -25 -20 -27c-4 -3 -12 -14 -14 -17l-19 -20c-7 -13 -22 -27 -22 -42c0 -3 0 -16 32 -16c11 -1 31 -10 33 -30c0 -15 -22 -18 -42 -18c-14 0 -25 2 -32 2c-6 0 -15 -5 -21 -8c-17 1 -19 1 -20 1c-6 0 -13 -1 -18 -3
c-25 -6 -38 -26 -46 -26c-18 0 -20 15 -20 29c0 7 1 12 1 17l-4 6c6 20 15 43 34 53l7 -6l15 6l12 -3c25 12 46 40 69 59c6 6 10 13 14 20c11 24 41 47 41 63v12c0 8 -1 16 -5 22c-32 55 -59 75 -92 117l-1 11l-16 15c-12 32 -21 33 -49 33c-10 0 -20 3 -20 16
c0 6 2 34 60 34c17 0 35 -9 51 -9c22 0 36 8 57 13c38 2 60 -12 60 -29c0 -5 0 -18 -18 -18c-9 0 -18 3 -27 3c-20 0 -26 -36 -18 -47c4 -6 4 -15 11 -21c24 -17 51 -58 67 -64l8 5l8 -2c17 22 38 43 47 69z" />
    <glyph glyph-name="y" unicode="y" horiz-adv-x="467" 
d="M417 450c22 0 20 27 41 11c3 -3 6 -11 6 -13c0 -17 -9 -27 -9 -44c0 -10 -21 -13 -26 -18c-29 -19 -15 -42 -45 -65c-9 -4 -17 -20 -17 -27c0 -15 11 -8 0 -27c0 -13 -18 -46 -24 -54c-18 -26 -17 -73 -41 -92c-3 -38 -38 -78 -38 -99c-15 -16 -11 -57 -26 -87
c-2 -3 -4 -8 -4 -11c0 -2 -8 -51 -11 -52c-3 0 -9 5 -11 5c-5 0 -3 -34 -6 -39c-20 -43 -70 -111 -120 -114c-18 -1 -36 -15 -52 -15s-31 11 -45 11c-3 0 -23 6 -29 11c1 1 -10 11 -10 13c0 6 -7 10 -9 17c-3 8 -3 13 -3 21c0 23 28 52 51 52c43 0 27 -38 34 -53
c7 -14 25 -27 39 -27c2 0 3 1 4 1c41 9 64 22 72 69c1 13 12 23 15 36c0 3 -1 5 -1 9c0 19 20 33 22 47c2 13 23 58 23 85c0 15 -11 26 -17 40c-1 3 -2 0 -2 18c0 15 -25 71 -33 88c-1 1 -65 147 -70 153c-15 26 -26 98 -54 104c-13 0 -12 -14 -24 -14c-18 0 -28 20 -28 39
c-1 20 7 35 15 37c9 1 19 3 29 3c35 0 46 -19 59 -22c10 0 17 -5 25 -5c40 0 112 23 124 -9c0 -2 -4 -5 -8 -8c-15 -12 -61 -17 -61 -42c0 -5 12 -25 13 -31c1 -23 11 -41 21 -60c4 -40 33 -77 42 -110c7 -28 -7 -53 23 -67c23 -1 48 61 48 83c0 4 26 60 26 63
c0 5 -4 8 -4 13c0 6 0 27 29 47c-3 5 -7 12 -7 18c0 9 12 10 12 13c0 4 -5 6 -6 9c-25 68 -45 25 -64 70l1 14c8 19 33 2 46 2c7 1 12 6 19 6c-4 0 14 -4 26 -4c15 0 31 1 40 1z" />
    <glyph glyph-name="z" unicode="z" horiz-adv-x="407" 
d="M111 -9c-32 8 -40 9 -68 9c-4 0 -11 6 -17 7c-9 1 -12 16 -12 23c0 20 29 37 38 49c21 28 118 147 124 168c6 20 27 32 33 52c3 9 26 33 27 43c1 7 7 11 9 16c8 15 21 12 23 26c0 1 1 2 1 5c0 8 -7 9 -15 9c-18 0 -7 4 -24 4c-18 0 -35 -8 -52 -8c-8 0 -16 10 -24 10
c-10 0 -19 -5 -32 -5s-21 -1 -26 -5c-22 -16 -32 -66 -47 -66c-19 0 -26 31 -26 47c0 23 7 51 18 71c29 13 31 12 54 12c8 0 16 -7 24 -9c8 0 8 2 16 2c5 0 10 -4 17 -4c5 0 10 4 17 4c12 0 27 -6 41 -6c15 0 28 9 34 9c17 0 36 -3 55 -3c9 0 16 -5 26 -5c15 1 27 3 40 3
s25 -14 25 -26c0 -18 -8 -25 -16 -40c0 -1 -2 -6 -4 -6c-14 -9 -17 -19 -17 -21c0 -1 0 -3 -1 -4c-32 -45 -52 -92 -93 -133c-16 -15 -15 -47 -42 -73c-14 -14 -27 -31 -33 -49c-2 -1 -4 -4 -7 -4c-8 0 -6 -4 -6 -12c0 -6 -2 -13 -2 -18c0 -8 3 -13 21 -13c12 0 21 7 31 7
c13 0 20 -9 32 -9c7 0 14 4 23 4s16 -5 23 -5c12 0 32 28 41 36c10 9 23 63 32 63c12 0 17 -21 17 -34c0 -8 -3 -6 -3 -23c0 -13 3 -27 3 -37c0 -25 -1 -53 -26 -53c-18 0 -16 -5 -24 -5c-13 0 -20 6 -30 6s-15 -11 -24 -11c-18 0 -43 13 -64 13c-34 0 -77 -3 -110 -11z" />
    <glyph glyph-name="braceleft" unicode="{" horiz-adv-x="426" 
d="M201 43c17 -5 22 -84 41 -91c8 -18 78 -60 78 -61c0 -12 -1 -53 -13 -53c-27 0 -101 21 -110 35c-3 3 -2 14 -3 18l-24 6c-16 4 -14 45 -14 56c0 9 -2 13 -7 17c-3 11 -33 19 -29 68c1 3 -17 54 -17 58c0 12 14 46 6 54c0 19 5 52 4 69s-27 24 -27 41c0 14 -45 22 -42 44
c-1 8 18 38 21 48c11 33 58 14 72 65c24 48 -16 131 -8 144c0 25 26 99 9 126c26 23 47 61 68 79c36 23 85 46 104 46c35 0 49 -27 48 -71c0 -30 -30 -48 -55 -31c-18 -4 -64 -11 -66 -19c-3 -8 -12 -59 -44 -62c27 -8 7 -53 3 -85c-2 -21 -3 -65 -3 -86
c0 -27 5 -50 -15 -78c-4 -6 -50 -27 -50 -53c0 -10 32 -9 29 -19c23 -22 22 -49 24 -79c0 -9 -12 -29 0 -51c0 -6 3 -48 0 -51c13 -19 -4 -28 -2 -47c3 -5 2 -25 22 -37z" />
    <glyph glyph-name="bar" unicode="|" horiz-adv-x="325" 
d="M132 912h78v-1140h-78v1140z" />
    <glyph glyph-name="braceright" unicode="}" horiz-adv-x="426" 
d="M221 606c-17 6 -23 85 -41 92c-8 18 -79 60 -79 61c0 12 2 53 14 53c26 0 100 -21 110 -36c3 -2 2 -13 3 -17l24 -7c16 -5 14 -44 14 -55c0 -10 2 -13 6 -18c4 -10 34 -18 30 -67c-1 -3 17 -55 17 -58c0 -12 -15 -47 -7 -55c0 -18 -4 -51 -3 -68s27 -24 27 -41
c0 -14 45 -22 41 -45c1 -8 -17 -37 -20 -47c-12 -34 -58 -14 -72 -65c-24 -48 16 -132 8 -144c0 -25 -26 -99 -9 -127c-26 -22 -47 -60 -69 -78c-35 -23 -84 -46 -103 -46c-36 0 -49 26 -48 71c0 29 29 48 55 31c18 4 63 11 66 19s12 59 44 62c-27 7 -7 53 -3 85
c2 21 3 65 3 86c0 27 -6 50 15 78c3 6 50 26 50 53c0 10 -32 9 -30 19c-22 22 -21 49 -23 79c0 9 12 29 0 51c0 6 -3 48 0 51c-13 19 4 28 2 47c-4 5 -2 25 -22 36z" />
    <glyph glyph-name="asciitilde" unicode="~" horiz-adv-x="510" 
d="M119 600c0 26 2 32 20 51s62 24 79 20c16 -2 37 -23 54 -44s28 -40 53 -40s28 8 39 29c9 19 2 55 18 55s24 -11 24 -31c0 -21 1 -42 1 -51c0 -10 -44 -69 -80 -69c-34 0 -55 10 -51 20c3 9 -10 13 -17 9c-7 -3 -40 46 -41 56c-1 11 -25 12 -41 12c-15 0 -25 -17 -25 -37
c0 -19 -5 -29 -16 -29c-12 0 -17 29 -17 49z" />
    <glyph glyph-name="Adieresis" unicode="&#xc4;" horiz-adv-x="700" 
d="M209 748c-2 10 3 27 4 35c26 22 16 6 41 17c15 6 44 -10 44 -27c0 -1 -2 -5 -3 -6l3 -8c-5 -16 -12 -32 -23 -42c-6 -3 -13 -5 -19 -5c-2 0 -15 7 -18 7c-13 0 -21 19 -29 29zM561 772c1 -10 -4 -28 -5 -36c-26 -21 -16 -5 -41 -17c-15 -5 -43 11 -43 28c0 1 1 4 2 5
l-2 8c5 16 11 32 23 43c5 3 12 4 18 4c2 0 16 -7 18 -7c14 0 22 -18 30 -28zM306 521c0 -13 -2 -23 -2 -32c0 -5 2 -9 2 -14c-15 -14 -18 -54 -28 -76c-4 -10 -19 -16 -19 -29c0 -6 3 -12 9 -15l16 3l7 -5c26 3 45 6 65 6c12 0 27 0 43 -4l27 5l8 8c0 15 -3 28 -11 36
c-5 25 -11 43 -18 65c0 10 -15 62 -15 103c0 14 -22 44 -34 49l-9 -8c-10 -32 -27 -62 -41 -92zM564 418l1 -8c-11 0 -12 3 -16 -20c-5 -2 -7 -9 -7 -14c0 -20 36 -65 36 -80c3 -8 15 -19 11 -36c0 -37 59 -171 84 -180c4 0 20 -28 21 -32c23 1 41 -6 41 -29
c0 -11 -12 -20 -24 -20c-20 0 -43 1 -61 9c-18 -7 -26 -8 -36 -8c-9 0 -17 1 -34 2c-9 -9 -18 -9 -20 -9c-6 0 -13 4 -16 9l-10 -3l-20 4c-1 -2 -20 -2 -25 -5h-15c-8 0 -52 2 -43 16c20 0 97 24 97 49c0 27 -20 67 -34 91l3 9c-5 25 -25 76 -25 104c0 4 0 8 1 10
c-4 10 -10 16 -20 22l-7 1c-13 6 -32 10 -45 14c-28 -19 -45 -23 -78 -23s-52 37 -72 37c-6 0 -8 -4 -8 -11c0 -31 -93 -185 -110 -234c7 -23 57 -39 80 -48c1 -5 2 -11 2 -18v-6c-4 -8 -12 -16 -20 -16c-3 0 -16 4 -21 5c-4 -1 -11 -1 -17 -1c-22 0 -45 4 -68 4
c-26 0 -27 -3 -53 -16c-26 0 -22 4 -43 15c-4 -1 -10 -3 -16 -3c-7 0 -15 3 -19 9c1 11 -13 26 -17 33c0 29 15 31 32 31h17c7 0 11 0 17 1l17 -6c18 22 39 42 55 65c8 8 13 34 19 46c37 0 72 92 72 122c6 26 23 39 37 56c0 8 3 16 6 22c-6 11 0 22 2 27c52 53 19 42 40 84
c-2 8 -6 16 -6 25c0 1 3 15 4 16v14c0 24 9 16 31 29c1 8 2 30 15 31c1 20 26 45 26 59c0 13 -16 22 -16 30c0 10 32 48 41 57c5 1 43 15 47 15c40 0 25 -62 61 -89c5 -22 9 -34 9 -50c0 -8 -1 -16 -3 -28c16 -19 24 -45 30 -68c17 -15 24 -77 32 -87c9 -21 22 -38 38 -25z
" />
    <glyph glyph-name="Aring" unicode="&#xc5;" horiz-adv-x="700" 
d="M355 884c-14 0 -37 -58 -37 -69c0 -22 27 -40 48 -40c25 0 54 40 54 49c0 33 -35 60 -65 60zM336 735c-35 11 -68 39 -68 62c0 50 25 123 92 123c16 0 36 -10 52 -10c19 0 51 -45 51 -79c0 -25 -14 -68 -45 -75c14 -20 13 -59 40 -80c5 -22 9 -34 9 -50
c0 -8 -1 -16 -3 -28c16 -19 24 -45 30 -68c17 -15 24 -77 32 -87c9 -21 22 -38 38 -25l1 -8c-11 0 -12 3 -16 -20c-5 -2 -7 -9 -7 -14c0 -20 36 -65 36 -80c3 -8 15 -19 11 -36c0 -37 59 -171 84 -180c4 0 20 -28 21 -32c23 1 41 -6 41 -29c0 -11 -12 -20 -24 -20
c-20 0 -43 1 -61 9c-18 -7 -26 -8 -36 -8c-9 0 -17 1 -34 2c-9 -9 -18 -9 -20 -9c-6 0 -13 4 -16 9l-10 -3l-20 4c-1 -2 -20 -2 -25 -5h-15c-8 0 -52 2 -43 16c20 0 97 24 97 49c0 27 -20 67 -34 91l3 9c-5 25 -25 76 -25 104c0 4 0 8 1 10c-4 10 -10 16 -20 22l-7 1
c-13 6 -32 10 -45 14c-28 -19 -45 -23 -78 -23s-52 37 -72 37c-6 0 -8 -4 -8 -11c0 -31 -93 -185 -110 -234c7 -23 57 -39 80 -48c1 -5 2 -11 2 -18v-6c-4 -8 -12 -16 -20 -16c-3 0 -16 4 -21 5c-4 -1 -11 -1 -17 -1c-22 0 -45 4 -68 4c-26 0 -27 -3 -53 -16
c-26 0 -22 4 -43 15c-4 -1 -10 -3 -16 -3c-7 0 -15 3 -19 9c1 11 -13 26 -17 33c0 29 15 31 32 31h17c7 0 11 0 17 1l17 -6c18 22 39 42 55 65c8 8 13 34 19 46c37 0 72 92 72 122c6 26 23 39 37 56c0 8 3 16 6 22c-6 11 0 22 2 27c52 53 19 42 40 84c-2 8 -6 16 -6 25
c0 1 3 15 4 16v14c0 24 9 16 31 29c1 8 2 30 15 31c1 20 26 45 26 59c0 13 -16 22 -16 30c0 7 15 27 27 42zM306 521c0 -13 -2 -23 -2 -32c0 -5 2 -9 2 -14c-15 -14 -18 -54 -28 -76c-4 -10 -19 -16 -19 -29c0 -6 3 -12 9 -15l16 3l7 -5c26 3 45 6 65 6c12 0 27 0 43 -4
l27 5l8 8c0 15 -3 28 -11 36c-5 25 -11 43 -18 65c0 10 -15 62 -15 103c0 14 -22 44 -34 49l-9 -8c-10 -32 -27 -62 -41 -92z" />
    <glyph glyph-name="Ccedilla" unicode="&#xc7;" horiz-adv-x="711" 
d="M404 -38c-10 -14 -20 -27 -26 -29c-11 -5 -31 -60 -22 -48c9 11 9 16 45 16c37 0 73 -30 89 -34c16 -5 28 -21 28 -57c0 -37 -21 -78 -32 -76c-12 3 -41 -25 -60 -25c-18 0 -11 -11 -35 8c-24 20 -17 -3 -28 -5c-12 -3 -39 16 -39 29c0 14 16 34 27 21
c12 -14 23 -16 39 -16s45 25 59 25s18 18 18 45c0 28 -41 32 -38 39c2 7 -25 7 -46 7c-20 0 -48 -20 -66 -25s-16 23 -7 34c9 12 14 18 11 28c-2 9 0 28 19 47c10 10 15 16 19 24c-41 3 -69 37 -99 37h-21c-10 0 -20 1 -22 1c-59 19 -146 116 -162 174c-6 22 -7 31 -16 53
l2 14c-5 27 -7 46 -7 75c0 3 -7 3 -6 12c2 7 3 15 3 22c0 28 -6 59 -6 88c0 27 39 48 39 117c0 4 50 39 58 50c13 17 66 52 90 52c9 0 11 -11 24 -11c28 0 31 24 47 28c38 9 75 18 111 32c15 -6 32 -8 48 -8c20 0 39 2 57 2c7 0 58 -21 85 -21c8 0 13 4 19 8c5 0 9 2 14 2
c7 0 13 0 19 -3c5 -32 14 -41 23 -43c11 -33 1 -73 18 -103c1 -5 4 -11 5 -17c-5 -7 -25 -24 -32 -24c-13 0 -28 17 -37 25c-12 43 -45 70 -74 100c-2 -7 -26 8 -32 10c-11 16 -52 29 -69 29s-33 -5 -52 -5c-45 0 -88 -29 -116 -63c-10 -12 -24 -6 -44 -36
c1 -3 -21 -32 -23 -36c-5 -7 -32 -105 -32 -113c-5 -6 -3 -16 -5 -22c-1 -28 -1 -55 -1 -84c0 -8 1 -20 1 -33c1 -15 30 -115 35 -118c33 -26 74 -117 114 -117c17 0 46 -34 93 -34c54 0 106 14 152 42c2 0 9 11 10 12c15 20 48 21 68 56l16 28c2 13 9 40 24 40
c5 0 12 -8 13 -12c-5 -19 -13 -104 -13 -125c0 -7 -2 -13 -3 -19l3 -21c-5 -8 -18 -19 -28 -17c-23 0 -102 -19 -127 -37c-5 -4 -17 -8 -26 -8c-19 0 -49 0 -55 1c-13 3 -26 9 -38 12z" />
    <glyph glyph-name="Eacute" unicode="&#xc9;" horiz-adv-x="677" 
d="M465 858c-11 0 -30 -12 -30 -24c0 -8 -50 -26 -53 -34c-10 -23 -24 -29 -50 -29c-6 0 -22 4 -22 12c4 8 10 15 17 20c31 21 43 61 77 83c9 5 8 16 14 23c7 5 28 6 36 6c7 0 13 -2 19 -5c6 -6 24 -8 24 -19s-24 -27 -32 -33zM496 221c0 -4 -13 -7 -15 -7
c-42 0 -33 120 -92 120c-15 0 -29 -2 -44 -2c-4 0 -10 1 -14 1c-20 -1 -35 -9 -52 -9c-1 0 -2 0 -10 1c-10 7 -28 16 -40 16c-11 0 -14 -32 -14 -39c0 -12 16 -16 16 -28c0 -15 -9 -30 -12 -44c1 -1 6 -50 6 -51c0 -7 -3 -14 -4 -19c-3 -3 -3 -27 -3 -30c0 -9 0 -40 3 -46
l-1 -4c8 -30 18 -32 46 -37c13 1 62 3 74 9l24 -5c3 1 8 -1 12 -4l12 4l10 -4h8c11 0 22 -3 34 -3h23c21 0 37 1 60 14c36 3 77 60 77 95c0 3 -2 5 -2 8c5 13 20 33 35 33c23 0 26 -16 26 -32v-14c0 -16 6 -29 6 -45c0 -3 -2 -7 -2 -11c0 -2 3 -7 3 -9c0 -11 -4 -20 -6 -30
c0 -11 -12 -36 -15 -47c1 -2 3 -5 3 -9c0 -7 -14 -17 -20 -21h-9c-13 5 -39 14 -54 14c-4 0 -6 -2 -10 -3c-3 0 -7 -1 -10 -2l-8 2c-5 -2 -15 -2 -27 -2c-44 0 -122 6 -137 6c-7 0 -22 -6 -29 -8c-9 2 -18 6 -27 8c-14 -2 -41 -6 -54 -5c-4 3 -9 7 -14 11l-14 -11l-14 2
c-9 -8 -126 -15 -132 -16c-5 -2 -10 -4 -16 -4c-5 0 -8 8 -8 12c0 1 0 1 1 2c-11 7 -35 40 -35 52s27 18 45 18c6 0 11 0 13 -1c16 3 18 12 18 27c0 18 -3 41 -8 61c-2 1 -2 4 -2 6c0 14 4 13 9 24v15c-7 57 0 75 -5 82c13 50 15 121 -2 166c6 15 9 31 9 49c5 4 3 12 -1 27
c-8 8 -10 34 -10 47l-8 8l4 5c0 5 -2 9 -2 13c0 18 7 39 7 57c0 3 -22 12 -24 12c-4 0 -16 -3 -23 -5c-16 0 -30 25 -30 38c0 12 12 35 26 35c10 0 23 -3 34 -4c7 2 14 4 20 4c18 0 34 -6 52 -6c13 0 25 7 40 7c14 0 29 -3 45 -3h20c13 10 28 15 44 19l27 -9c10 0 32 0 40 3
c9 6 27 11 40 11c6 0 23 -5 28 -8c4 -2 13 -3 18 -3h27c5 -6 14 -8 21 -10c45 10 105 3 105 -46c0 -7 -3 -15 -6 -21c1 -10 7 -15 11 -23c-4 -28 -3 -62 -18 -85l-6 -4c-27 3 -40 31 -55 48c-36 4 -43 43 -54 48c-26 10 -13 45 -95 45c-41 0 -94 -29 -102 -29
c-11 0 -21 6 -32 6c-29 0 -34 -57 -34 -78c0 -11 9 -81 13 -89c-7 -36 -4 -59 -13 -93l4 -11c-3 -5 12 -6 14 -6c6 0 11 3 17 5c6 -2 27 -2 31 -2h15l12 3c6 1 13 2 19 2h16c18 0 20 11 37 11c3 0 8 -2 12 -2c12 3 26 11 32 21l-3 20c8 12 28 49 44 49c3 0 13 -3 15 -4
l5 -17c-1 -5 -3 -10 -3 -15c0 -11 3 -20 7 -31c5 -20 0 -24 -1 -32l1 -2l-2 -8c0 -2 10 -137 10 -145c0 -1 -2 -8 -3 -9z" />
    <glyph glyph-name="Ntilde" unicode="&#xd1;" horiz-adv-x="803" 
d="M535 699c-6 20 24 24 26 24c12 0 27 -4 39 -6c14 11 28 -3 73 16c18 -10 51 7 65 7c20 0 50 -6 50 -31c0 -33 -33 -30 -63 -41c-10 -8 -31 -22 -32 -50c1 -16 5 -32 5 -48c0 -13 -13 -22 -13 -34c-4 -17 6 -29 8 -44c6 0 7 -33 7 -38l-3 -5c1 -2 1 -3 1 -6
c0 -8 -5 -19 -5 -27c-2 -26 8 -42 7 -68l-6 -25c7 -23 8 -48 12 -76l-5 -12c8 -20 -8 -37 -10 -91l12 -32l-3 -11c14 -36 3 -73 3 -90l-6 -12c-4 -12 -10 -29 -24 -29c-4 0 -20 5 -23 7c-13 12 -15 30 -28 42l-14 36c-20 16 -38 44 -59 56c-18 10 -31 5 -45 28
c-12 21 -17 43 -29 64l-8 3c0 14 -17 15 -21 19c-12 10 -24 42 -36 55c-34 34 -87 71 -104 114l-7 4c-8 12 -19 26 -30 37l2 12c-15 16 -26 35 -38 52l-7 5l-11 -5l4 -7l-6 -12c7 -32 12 -65 12 -97c0 -8 -2 -17 -3 -25c-2 -8 -2 -17 -2 -27v-12c0 -16 -1 -31 -6 -45l3 -7
l-3 -5c3 -13 3 -26 7 -40l-3 -18l4 -12c-2 -7 -2 -15 -2 -23c0 -19 3 -38 6 -53c0 -7 -9 -40 -11 -44c5 -8 -1 -18 -1 -21c0 -27 98 -9 98 -62c0 -28 -46 -29 -65 -29c-37 0 -141 16 -168 38c-11 9 -16 23 -29 28c-7 1 0 7 0 15s15 17 30 17s33 -23 45 -22l14 -3
c16 7 23 11 23 27c0 13 3 24 3 28c0 1 -7 18 -7 31c0 4 3 5 4 16c-2 20 0 26 -2 46l3 4l-2 29c-5 7 -5 74 -5 87c0 20 0 42 1 63c0 11 0 28 5 34l-2 9l2 11c-1 16 -1 47 0 53l-1 10c1 2 5 24 5 32c-8 22 0 42 -10 59c-15 25 -15 17 -44 38c-34 25 -31 38 -71 40
c-15 19 -9 64 -2 80c10 -3 19 -6 27 -10l15 5c19 -5 38 -11 56 -17c73 15 56 -14 112 -57c0 -8 27 -22 33 -30c24 -36 62 -74 91 -108c9 -10 21 -18 33 -27c35 -28 91 -96 113 -136l12 -8c5 -14 17 -15 26 -25c24 -32 36 -73 65 -100c7 -8 21 -7 28 -3c1 8 1 16 1 24
c0 15 -7 47 3 54c-2 18 -4 32 -4 50c0 21 -12 47 -12 65l3 13c0 42 -23 104 -14 123l5 8c1 13 2 28 2 42c0 81 -47 73 -99 106zM266 831c0 23 2 29 20 45c18 17 61 21 78 18c16 -2 37 -21 54 -39c16 -17 28 -34 53 -34s27 7 37 25c10 16 3 48 19 48s24 -10 24 -28
s1 -35 1 -43c0 -9 -45 -60 -79 -60s-55 9 -51 18c3 7 -10 10 -17 7s-40 40 -41 49s-25 9 -40 9s-25 -15 -25 -31c0 -17 -5 -26 -16 -26c-12 0 -17 26 -17 42z" />
    <glyph glyph-name="Odieresis" unicode="&#xd6;" horiz-adv-x="788" 
d="M180 433c0 -5 -4 -24 -7 -26v-17c0 -29 5 -61 8 -90c24 -44 24 -103 49 -145c24 -10 36 -51 50 -73l14 -8c7 -10 18 -15 30 -18l7 -6c1 -6 3 -11 6 -16c6 -3 13 -7 20 -9l15 -4c8 6 26 10 38 11c5 0 13 -5 16 -6c3 1 6 1 9 1h5l6 7l12 -7c24 11 37 4 49 27c4 1 8 4 12 5
c-1 9 30 27 38 30c13 15 19 27 26 46l4 4c4 6 7 11 9 18l8 8c0 7 2 13 5 20v9c2 3 4 7 5 10v3c0 15 24 67 24 100c0 13 7 28 10 42l-3 11c1 6 1 10 1 16c0 25 -11 50 -13 75c-20 40 -22 97 -52 133c-4 -1 -19 10 -21 19l-13 10c-4 11 -12 20 -17 30c-22 9 -44 23 -64 35
c-11 4 -38 3 -46 3c-50 0 -109 -24 -145 -53l-16 -3c-39 -56 -77 -88 -77 -166c0 -8 -1 -17 -2 -26zM225 686l19 -9l20 18l3 10l12 -2c32 -1 60 23 89 23c9 0 17 -6 26 -6c7 5 34 7 41 7c32 -4 63 -11 94 -18c5 -2 9 -6 15 -8l8 2l13 -8c37 -2 69 -42 91 -68
c7 -3 15 -11 21 -17c10 -25 32 -35 38 -65c4 -3 25 -82 31 -92l-4 -11c2 -1 6 -20 6 -26c0 -7 -5 -14 -5 -20c0 -14 9 -24 9 -40c0 -68 -33 -180 -66 -239c-28 -16 -36 -73 -118 -101c-47 -41 -56 -24 -107 -37l-24 4l-14 -5h-7c-4 0 -8 -1 -15 -3c-31 3 -98 25 -126 23
c-7 1 -14 5 -20 9c-6 0 -17 15 -27 15c-46 0 -80 35 -104 70l-1 8c-18 24 -57 102 -57 133l-17 30c2 6 2 8 2 11c0 14 5 30 5 45c0 12 -2 28 -6 38c2 11 1 23 2 34l2 8c0 6 -2 11 -2 18c0 5 2 11 2 16l5 6l-2 10c2 5 2 22 2 28c3 21 16 39 22 61c6 4 9 10 9 17
c0 17 17 31 26 47c4 7 45 40 54 48l14 3c2 1 4 5 5 8c17 1 17 12 28 21zM278 784c-1 11 4 28 5 36c26 21 16 5 41 17c15 5 43 -11 43 -28c0 -1 -1 -4 -2 -5l2 -8c-4 -16 -11 -32 -23 -42c-5 -4 -12 -5 -18 -5c-2 0 -16 7 -18 7c-14 0 -22 18 -30 28zM538 808
c1 -10 -3 -27 -4 -35c-27 -22 -16 -6 -42 -17c-14 -6 -43 10 -43 27c0 1 1 5 2 6l-2 8c5 16 12 32 23 42c6 3 12 5 18 5c2 0 16 -7 18 -7c14 0 22 -18 30 -29z" />
    <glyph glyph-name="Udieresis" unicode="&#xdc;" horiz-adv-x="726" 
d="M508 677l-12 -12c-7 4 -14 10 -19 17c0 3 -5 12 -5 16c0 8 2 18 10 20c14 -8 40 -6 48 -7l19 -12l12 2c8 -2 19 -6 27 -6c6 0 24 10 21 10c11 1 23 0 33 2c10 -4 18 -2 19 -2c9 0 16 1 25 4c6 -1 11 -3 14 -7c-2 -28 -16 -36 -40 -50l-2 -7l-7 -4c-5 -25 -24 -56 -24 -92
v-20l-3 -10l3 -9l-6 -18l1 -8c6 -9 8 -15 8 -25c0 -6 -1 -13 -2 -22l5 -15c-3 -36 -4 -69 -13 -104c4 -8 5 -17 6 -27c-4 -48 -20 -40 -20 -103c0 -33 -11 -40 -20 -49c-5 -4 -7 -20 -11 -26l1 -9l-8 -11l3 -2c-32 -88 -64 -89 -137 -125c-22 1 1 6 -81 6l-10 -5
c-16 7 -35 0 -53 7c0 3 -14 10 -18 11c-4 -1 -10 -2 -16 -2c-17 8 -23 16 -44 19l-30 22c-8 14 -16 28 -24 43l-10 8c-1 5 -2 11 -2 15c-4 2 -31 88 -35 99c0 7 1 16 2 23c-5 26 -8 52 -14 78c4 9 5 25 -3 43l5 6c3 6 4 13 7 20c-3 11 -5 26 -11 37c0 13 0 22 -1 28
c-6 27 2 53 2 62l5 9l-6 48l3 10c-2 24 -8 48 -2 65c-9 31 -17 41 -32 67c0 17 -6 35 -9 51l6 8l37 -21c3 -5 6 -11 11 -15l24 -6c5 5 13 -2 18 -2l21 2l10 -3c9 1 17 7 25 11c11 4 32 -1 41 -2l11 -18c19 0 18 18 27 15l28 -4l5 -16c-26 -14 -45 -23 -65 -45l-22 -8
c1 -6 0 -15 3 -29c-19 -25 -19 -55 -26 -85c7 -20 1 -29 -2 -41l1 -5c-3 -3 -4 -11 -5 -14c5 -18 -1 -29 7 -53c-3 -8 -5 -42 -6 -53l1 -7c-4 -10 -5 -21 -9 -31c7 -11 6 -32 2 -38c6 -20 12 -39 17 -59c-6 -97 19 -100 39 -110c8 -17 13 -25 20 -42c14 -6 23 -2 35 -2
c9 0 20 -5 29 -8c9 -9 35 -15 53 -15c4 0 7 1 11 1l10 -2c4 1 9 3 12 7c27 8 57 10 82 18l22 31c7 5 26 37 26 51c-2 10 4 26 8 36c0 60 11 45 6 65c-1 0 -2 8 -2 9l4 16c-4 23 9 64 1 86c10 30 12 63 18 92l-5 13l1 12c-4 8 -4 17 -9 44c1 4 3 11 3 15c0 9 2 20 2 31
c0 22 -2 46 -6 62c2 19 -6 29 -22 30c-11 3 -34 8 -47 20zM275 784c-1 11 3 28 4 36c27 21 16 5 41 17c15 5 44 -11 44 -28c0 -1 -1 -4 -3 -5l3 -8c-5 -16 -12 -32 -23 -42c-6 -4 -13 -5 -18 -5c-3 0 -16 7 -19 7c-13 0 -21 18 -29 28zM535 808c1 -10 -4 -27 -5 -35
c-26 -22 -16 -6 -41 -17c-15 -6 -43 10 -43 27c0 1 1 5 2 6l-2 8c4 16 11 32 23 42c5 3 12 5 18 5c2 0 16 -7 18 -7c14 0 22 -18 30 -29z" />
    <glyph glyph-name="aacute" unicode="&#xe1;" horiz-adv-x="423" 
d="M294 624c-12 0 -30 -18 -30 -30c0 -13 -19 -8 -25 -22c-5 -11 -23 -9 -27 -20c-10 -24 -23 -37 -50 -37c-8 0 -23 7 -23 16c2 18 51 71 84 134c8 6 18 12 26 20c4 6 27 9 36 9s41 -19 41 -29c0 -15 -23 -33 -32 -41zM253 178l5 7l-9 11c-2 6 -6 16 -14 16
c-35 0 -51 -38 -69 -46c-21 -9 -43 -16 -43 -45c0 -22 46 -61 61 -61c19 0 23 13 38 20c0 19 9 16 17 24c13 11 14 57 14 74zM328 286c0 -10 7 -22 7 -33c0 -23 -11 -49 -11 -73c0 -3 2 -7 2 -24c0 -10 -1 -25 -1 -37c0 -18 3 -31 19 -31c13 0 16 29 33 29
c16 0 23 -21 23 -34c0 -104 -39 -65 -68 -89c-3 -2 -6 -2 -9 -2c-5 0 -11 1 -15 1c-13 0 -44 9 -54 17c-8 7 -20 41 -26 41c-15 0 -50 -65 -132 -65c-46 0 -56 72 -65 97c-1 5 -3 8 -3 12c0 17 15 28 22 49c10 33 80 62 106 73c13 6 10 16 34 21c4 0 6 1 10 1
c5 0 10 -1 17 -1c22 0 37 48 37 66c0 8 -7 14 -7 22s4 16 4 25c0 37 -34 66 -71 66c-15 0 -63 -35 -63 -50c0 -14 3 -27 3 -41c0 -12 -24 -33 -37 -33c-20 0 -51 19 -51 42c0 13 -1 28 1 34s7 8 8 12c8 29 60 72 90 72s58 -2 86 -2c11 0 21 -8 33 -8c6 0 11 6 17 6
c33 0 75 -50 75 -82c0 -11 -9 -28 -10 -42c0 -6 3 -11 3 -17c0 -7 -7 -14 -7 -22z" />
    <glyph glyph-name="agrave" unicode="&#xe0;" horiz-adv-x="423" 
d="M125 624c-9 8 -32 26 -32 41c0 10 32 29 42 29c9 0 31 -3 36 -9c8 -8 17 -14 25 -20c33 -63 82 -116 84 -134c0 -9 -14 -16 -22 -16c-28 0 -41 13 -51 37c-4 11 -21 9 -27 20c-6 14 -25 9 -25 22c0 12 -17 30 -30 30zM253 178l5 7l-9 11c-2 6 -6 16 -14 16
c-35 0 -51 -38 -69 -46c-21 -9 -43 -16 -43 -45c0 -22 46 -61 61 -61c19 0 23 13 38 20c0 19 9 16 17 24c13 11 14 57 14 74zM328 286c0 -10 7 -22 7 -33c0 -23 -11 -49 -11 -73c0 -3 2 -7 2 -24c0 -10 -1 -25 -1 -37c0 -18 3 -31 19 -31c13 0 16 29 33 29
c16 0 23 -21 23 -34c0 -104 -39 -65 -68 -89c-3 -2 -6 -2 -9 -2c-5 0 -11 1 -15 1c-13 0 -44 9 -54 17c-8 7 -20 41 -26 41c-15 0 -50 -65 -132 -65c-46 0 -56 72 -65 97c-1 5 -3 8 -3 12c0 17 15 28 22 49c10 33 80 62 106 73c13 6 10 16 34 21c4 0 6 1 10 1
c5 0 10 -1 17 -1c22 0 37 48 37 66c0 8 -7 14 -7 22s4 16 4 25c0 37 -34 66 -71 66c-15 0 -63 -35 -63 -50c0 -14 3 -27 3 -41c0 -12 -24 -33 -37 -33c-20 0 -51 19 -51 42c0 13 -1 28 1 34s7 8 8 12c8 29 60 72 90 72s58 -2 86 -2c11 0 21 -8 33 -8c6 0 11 6 17 6
c33 0 75 -50 75 -82c0 -11 -9 -28 -10 -42c0 -6 3 -11 3 -17c0 -7 -7 -14 -7 -22z" />
    <glyph glyph-name="acircumflex" unicode="&#xe2;" horiz-adv-x="423" 
d="M253 178l5 7l-9 11c-2 6 -6 16 -14 16c-35 0 -51 -38 -69 -46c-21 -9 -43 -16 -43 -45c0 -22 46 -61 61 -61c19 0 23 13 38 20c0 19 9 16 17 24c13 11 14 57 14 74zM328 286c0 -10 7 -22 7 -33c0 -23 -11 -49 -11 -73c0 -3 2 -7 2 -24c0 -10 -1 -25 -1 -37
c0 -18 3 -31 19 -31c13 0 16 29 33 29c16 0 23 -21 23 -34c0 -104 -39 -65 -68 -89c-3 -2 -6 -2 -9 -2c-5 0 -11 1 -15 1c-13 0 -44 9 -54 17c-8 7 -20 41 -26 41c-15 0 -50 -65 -132 -65c-46 0 -56 72 -65 97c-1 5 -3 8 -3 12c0 17 15 28 22 49c10 33 80 62 106 73
c13 6 10 16 34 21c4 0 6 1 10 1c5 0 10 -1 17 -1c22 0 37 48 37 66c0 8 -7 14 -7 22s4 16 4 25c0 37 -34 66 -71 66c-15 0 -63 -35 -63 -50c0 -14 3 -27 3 -41c0 -12 -24 -33 -37 -33c-20 0 -51 19 -51 42c0 13 -1 28 1 34s7 8 8 12c8 29 60 72 90 72s58 -2 86 -2
c11 0 21 -8 33 -8c6 0 11 6 17 6c33 0 75 -50 75 -82c0 -11 -9 -28 -10 -42c0 -6 3 -11 3 -17c0 -7 -7 -14 -7 -22zM319 513c-26 0 -40 14 -49 36c0 3 -70 55 -77 55c-27 0 -68 -91 -119 -91h-2c-4 5 -7 10 -7 16c0 26 52 52 59 75c8 23 47 88 73 88c14 0 26 -5 37 -9
c8 -7 9 -18 17 -25c9 -8 11 -25 19 -36c7 -9 17 -17 24 -27c9 -12 25 -18 31 -34c4 -10 12 -21 12 -32s-8 -16 -18 -16z" />
    <glyph glyph-name="adieresis" unicode="&#xe4;" horiz-adv-x="423" 
d="M253 178l5 7l-9 11c-2 6 -6 16 -14 16c-35 0 -51 -38 -69 -46c-21 -9 -43 -16 -43 -45c0 -22 46 -61 61 -61c19 0 23 13 38 20c0 19 9 16 17 24c13 11 14 57 14 74zM328 286c0 -10 7 -22 7 -33c0 -23 -11 -49 -11 -73c0 -3 2 -7 2 -24c0 -10 -1 -25 -1 -37
c0 -18 3 -31 19 -31c13 0 16 29 33 29c16 0 23 -21 23 -34c0 -104 -39 -65 -68 -89c-3 -2 -6 -2 -9 -2c-5 0 -11 1 -15 1c-13 0 -44 9 -54 17c-8 7 -20 41 -26 41c-15 0 -50 -65 -132 -65c-46 0 -56 72 -65 97c-1 5 -3 8 -3 12c0 17 15 28 22 49c10 33 80 62 106 73
c13 6 10 16 34 21c4 0 6 1 10 1c5 0 10 -1 17 -1c22 0 37 48 37 66c0 8 -7 14 -7 22s4 16 4 25c0 37 -34 66 -71 66c-15 0 -63 -35 -63 -50c0 -14 3 -27 3 -41c0 -12 -24 -33 -37 -33c-20 0 -51 19 -51 42c0 13 -1 28 1 34s7 8 8 12c8 29 60 72 90 72s58 -2 86 -2
c11 0 21 -8 33 -8c6 0 11 6 17 6c33 0 75 -50 75 -82c0 -11 -9 -28 -10 -42c0 -6 3 -11 3 -17c0 -7 -7 -14 -7 -22zM80 593c-1 10 3 27 4 35c27 22 16 6 41 17c15 6 44 -10 44 -27c0 -1 -1 -5 -3 -6l3 -8c-5 -16 -12 -32 -23 -42c-6 -3 -13 -5 -18 -5c-3 0 -16 7 -19 7
c-13 0 -21 19 -29 29zM340 617c1 -11 -4 -28 -5 -36c-26 -21 -16 -5 -41 -17c-15 -5 -43 11 -43 28c0 1 1 4 2 5l-2 8c4 16 11 32 23 43c5 3 12 4 18 4c2 0 16 -7 18 -7c14 0 22 -18 30 -28z" />
    <glyph glyph-name="atilde" unicode="&#xe3;" horiz-adv-x="423" 
d="M253 178l5 7l-9 11c-2 6 -6 16 -14 16c-35 0 -51 -38 -69 -46c-21 -9 -43 -16 -43 -45c0 -22 46 -61 61 -61c19 0 23 13 38 20c0 19 9 16 17 24c13 11 14 57 14 74zM328 286c0 -10 7 -22 7 -33c0 -23 -11 -49 -11 -73c0 -3 2 -7 2 -24c0 -10 -1 -25 -1 -37
c0 -18 3 -31 19 -31c13 0 16 29 33 29c16 0 23 -21 23 -34c0 -104 -39 -65 -68 -89c-3 -2 -6 -2 -9 -2c-5 0 -11 1 -15 1c-13 0 -44 9 -54 17c-8 7 -20 41 -26 41c-15 0 -50 -65 -132 -65c-46 0 -56 72 -65 97c-1 5 -3 8 -3 12c0 17 15 28 22 49c10 33 80 62 106 73
c13 6 10 16 34 21c4 0 6 1 10 1c5 0 10 -1 17 -1c22 0 37 48 37 66c0 8 -7 14 -7 22s4 16 4 25c0 37 -34 66 -71 66c-15 0 -63 -35 -63 -50c0 -14 3 -27 3 -41c0 -12 -24 -33 -37 -33c-20 0 -51 19 -51 42c0 13 -1 28 1 34s7 8 8 12c8 29 60 72 90 72s58 -2 86 -2
c11 0 21 -8 33 -8c6 0 11 6 17 6c33 0 75 -50 75 -82c0 -11 -9 -28 -10 -42c0 -6 3 -11 3 -17c0 -7 -7 -14 -7 -22zM65 600c0 26 2 32 20 51s62 24 79 20c16 -2 37 -23 54 -44s28 -40 53 -40s28 8 39 29c9 19 2 55 18 55s24 -11 24 -31c0 -21 1 -42 1 -51
c0 -10 -44 -69 -80 -69c-34 0 -55 10 -51 20c3 9 -10 13 -17 9c-7 -3 -40 46 -41 56c-1 11 -25 12 -41 12c-15 0 -25 -17 -25 -37c0 -19 -5 -29 -16 -29c-12 0 -17 29 -17 49z" />
    <glyph glyph-name="aring" unicode="&#xe5;" horiz-adv-x="423" 
d="M253 178l5 7l-9 11c-2 6 -6 16 -14 16c-35 0 -51 -38 -69 -46c-21 -9 -43 -16 -43 -45c0 -22 46 -61 61 -61c19 0 23 13 38 20c0 19 9 16 17 24c13 11 14 57 14 74zM328 286c0 -10 7 -22 7 -33c0 -23 -11 -49 -11 -73c0 -3 2 -7 2 -24c0 -10 -1 -25 -1 -37
c0 -18 3 -31 19 -31c13 0 16 29 33 29c16 0 23 -21 23 -34c0 -104 -39 -65 -68 -89c-3 -2 -6 -2 -9 -2c-5 0 -11 1 -15 1c-13 0 -44 9 -54 17c-8 7 -20 41 -26 41c-15 0 -50 -65 -132 -65c-46 0 -56 72 -65 97c-1 5 -3 8 -3 12c0 17 15 28 22 49c10 33 80 62 106 73
c13 6 10 16 34 21c4 0 6 1 10 1c5 0 10 -1 17 -1c22 0 37 48 37 66c0 8 -7 14 -7 22s4 16 4 25c0 37 -34 66 -71 66c-15 0 -63 -35 -63 -50c0 -14 3 -27 3 -41c0 -12 -24 -33 -37 -33c-20 0 -51 19 -51 42c0 13 -1 28 1 34s7 8 8 12c8 29 60 72 90 72s58 -2 86 -2
c11 0 21 -8 33 -8c6 0 11 6 17 6c33 0 75 -50 75 -82c0 -11 -9 -28 -10 -42c0 -6 3 -11 3 -17c0 -7 -7 -14 -7 -22zM187 654c-14 0 -37 -57 -37 -68c0 -22 28 -40 48 -40c25 0 54 40 54 49c0 33 -34 59 -65 59zM244 681c19 0 51 -45 51 -79c0 -25 -13 -68 -43 -75
c-18 -4 -34 -27 -54 -27c-43 0 -98 38 -98 68c0 50 25 123 93 123c16 0 35 -10 51 -10z" />
    <glyph glyph-name="ccedilla" unicode="&#xe7;" horiz-adv-x="434" 
d="M193 -1c-41 9 -85 22 -115 52c-24 23 -39 39 -42 66c0 8 6 21 6 31c-6 22 -14 42 -14 65c0 4 5 12 5 15c0 7 -5 16 0 27c1 5 27 76 35 85c16 23 23 53 41 75c3 -1 54 30 60 33c18 9 92 11 111 11c12 0 18 -5 27 -5c92 -9 75 -7 92 -89l-7 -16c-12 -1 -25 -21 -32 -29
c-1 -1 -1 -3 -15 -3c-16 0 -27 23 -31 35l-22 26c-4 0 -9 2 -10 3c-10 8 -37 18 -62 18c-18 -3 -35 -8 -54 -15c-20 -8 -27 -19 -30 -41c0 -1 -1 -1 -9 -12l1 -8c-5 -7 -5 -21 -8 -29l2 -8c-2 -4 -2 -10 -2 -17s0 -14 1 -18c-1 -15 -9 -17 -9 -38c0 -11 16 -43 19 -51l1 -18
c10 -15 23 -32 31 -49l23 -13c0 -3 6 -10 8 -10c4 1 36 -21 52 -21c5 0 10 0 16 3c73 26 50 44 85 68c9 6 6 19 19 18c8 0 9 -3 9 -9v-9c0 -3 3 -18 6 -22c0 -18 -22 -22 -28 -36c0 -7 4 -12 4 -16c0 -24 -63 -45 -80 -54c-2 1 -24 -4 -34 -1c-9 -16 -39 -55 -50 -59
c-12 -5 -32 -59 -23 -48s9 16 45 16c37 0 73 -30 89 -34c16 -5 28 -21 28 -57c0 -37 -21 -78 -32 -75c-12 2 -41 -26 -59 -26c-19 0 -12 -11 -36 8c-24 20 -17 -3 -28 -5c-12 -3 -39 16 -39 29c0 14 16 35 27 21c12 -14 23 -16 39 -16s46 25 59 25c14 0 19 18 19 46
c0 27 -41 32 -39 38c2 7 -25 7 -46 7c-20 0 -48 -20 -66 -25c-18 -4 -16 23 -7 34c9 12 14 19 12 28c-3 9 0 29 18 48c18 18 23 27 39 51z" />
    <glyph glyph-name="eacute" unicode="&#xe9;" horiz-adv-x="397" 
d="M321 624c-12 0 -29 -18 -29 -30c0 -13 -20 -8 -25 -22c-6 -11 -24 -9 -28 -20c-10 -24 -22 -37 -50 -37c-8 0 -23 7 -23 16c0 0 86 119 95 127c8 7 7 19 15 27c4 6 27 9 36 9s41 -19 41 -29c0 -15 -22 -33 -32 -41zM180 323c12 -4 41 -5 50 -5c14 0 28 -6 39 -6
c14 0 25 5 25 21v16c0 2 -4 24 -8 27c-14 15 -45 16 -65 16c-3 -1 -27 -15 -31 -15c-18 -1 -51 -32 -53 -50c0 -4 -2 -12 11 -12c4 0 24 8 32 8zM357 135c8 -3 15 -12 15 -20l-5 -11l-6 -4c-9 -18 -27 -70 -36 -82c-13 -15 -33 -41 -54 -41c-16 0 -32 -2 -49 -2
c-8 0 -16 0 -24 2c-49 13 -91 34 -125 71c-19 20 -18 59 -35 76l-6 23l3 10l-1 4c0 13 -3 35 -3 66c0 12 1 26 5 35c7 10 10 31 10 41c0 44 19 44 27 71c36 49 71 38 112 54c4 2 11 -2 17 -2c2 0 17 19 27 19c10 -2 17 -11 26 -13c35 -6 70 -3 101 -31c5 -5 -4 -9 2 -15
c12 -16 26 -53 26 -75c0 -20 -9 -24 -21 -24c-6 0 -14 1 -20 1c-17 0 -41 -8 -58 -10c-10 -1 -29 -2 -42 -2c-16 2 -29 3 -42 3c-15 0 -30 -1 -45 -1c-6 0 -16 6 -21 7l-10 -17c0 -10 -2 -21 -2 -31c0 -9 -3 -12 1 -43c6 -38 32 -82 65 -110c22 -18 26 -26 53 -26
c17 0 36 0 50 13c11 9 50 64 65 64z" />
    <glyph glyph-name="egrave" unicode="&#xe8;" horiz-adv-x="397" 
d="M155 624c-9 8 -32 26 -32 41c0 10 32 29 41 29s32 -3 37 -9c8 -8 6 -20 14 -27c10 -8 95 -127 95 -127c0 -9 -15 -16 -23 -16c-27 0 -41 13 -50 37c-4 11 -22 9 -27 20c-6 14 -25 9 -25 22c0 12 -17 30 -30 30zM180 323c12 -4 41 -5 50 -5c14 0 28 -6 39 -6
c14 0 25 5 25 21v16c0 2 -4 24 -8 27c-14 15 -45 16 -65 16c-3 -1 -27 -15 -31 -15c-18 -1 -51 -32 -53 -50c0 -4 -2 -12 11 -12c4 0 24 8 32 8zM357 135c8 -3 15 -12 15 -20l-5 -11l-6 -4c-9 -18 -27 -70 -36 -82c-13 -15 -33 -41 -54 -41c-16 0 -32 -2 -49 -2
c-8 0 -16 0 -24 2c-49 13 -91 34 -125 71c-19 20 -18 59 -35 76l-6 23l3 10l-1 4c0 13 -3 35 -3 66c0 12 1 26 5 35c7 10 10 31 10 41c0 44 19 44 27 71c36 49 71 38 112 54c4 2 11 -2 17 -2c2 0 17 19 27 19c10 -2 17 -11 26 -13c35 -6 70 -3 101 -31c5 -5 -4 -9 2 -15
c12 -16 26 -53 26 -75c0 -20 -9 -24 -21 -24c-6 0 -14 1 -20 1c-17 0 -41 -8 -58 -10c-10 -1 -29 -2 -42 -2c-16 2 -29 3 -42 3c-15 0 -30 -1 -45 -1c-6 0 -16 6 -21 7l-10 -17c0 -10 -2 -21 -2 -31c0 -9 -3 -12 1 -43c6 -38 32 -82 65 -110c22 -18 26 -26 53 -26
c17 0 36 0 50 13c11 9 50 64 65 64z" />
    <glyph glyph-name="ecircumflex" unicode="&#xea;" horiz-adv-x="397" 
d="M345 513c-26 0 -39 14 -49 36c0 3 -69 55 -77 55c-26 0 -67 -91 -119 -91h-2c-3 5 -7 10 -7 16c0 26 52 52 59 75s47 88 73 88c14 0 27 -5 37 -9c8 -7 9 -18 17 -25c9 -8 11 -25 19 -36c7 -9 18 -17 24 -27c9 -12 25 -18 31 -34c5 -10 13 -21 13 -32s-8 -16 -19 -16z
M180 323c12 -4 41 -5 50 -5c14 0 28 -6 39 -6c14 0 25 5 25 21v16c0 2 -4 24 -8 27c-14 15 -45 16 -65 16c-3 -1 -27 -15 -31 -15c-18 -1 -51 -32 -53 -50c0 -4 -2 -12 11 -12c4 0 24 8 32 8zM357 135c8 -3 15 -12 15 -20l-5 -11l-6 -4c-9 -18 -27 -70 -36 -82
c-13 -15 -33 -41 -54 -41c-16 0 -32 -2 -49 -2c-8 0 -16 0 -24 2c-49 13 -91 34 -125 71c-19 20 -18 59 -35 76l-6 23l3 10l-1 4c0 13 -3 35 -3 66c0 12 1 26 5 35c7 10 10 31 10 41c0 44 19 44 27 71c36 49 71 38 112 54c4 2 11 -2 17 -2c2 0 17 19 27 19
c10 -2 17 -11 26 -13c35 -6 70 -3 101 -31c5 -5 -4 -9 2 -15c12 -16 26 -53 26 -75c0 -20 -9 -24 -21 -24c-6 0 -14 1 -20 1c-17 0 -41 -8 -58 -10c-10 -1 -29 -2 -42 -2c-16 2 -29 3 -42 3c-15 0 -30 -1 -45 -1c-6 0 -16 6 -21 7l-10 -17c0 -10 -2 -21 -2 -31
c0 -9 -3 -12 1 -43c6 -38 32 -82 65 -110c22 -18 26 -26 53 -26c17 0 36 0 50 13c11 9 50 64 65 64z" />
    <glyph glyph-name="edieresis" unicode="&#xeb;" horiz-adv-x="397" 
d="M180 323c12 -4 41 -5 50 -5c14 0 28 -6 39 -6c14 0 25 5 25 21v16c0 2 -4 24 -8 27c-14 15 -45 16 -65 16c-3 -1 -27 -15 -31 -15c-18 -1 -51 -32 -53 -50c0 -4 -2 -12 11 -12c4 0 24 8 32 8zM357 135c8 -3 15 -12 15 -20l-5 -11l-6 -4c-9 -18 -27 -70 -36 -82
c-13 -15 -33 -41 -54 -41c-16 0 -32 -2 -49 -2c-8 0 -16 0 -24 2c-49 13 -91 34 -125 71c-19 20 -18 59 -35 76l-6 23l3 10l-1 4c0 13 -3 35 -3 66c0 12 1 26 5 35c7 10 10 31 10 41c0 44 19 44 27 71c36 49 71 38 112 54c4 2 11 -2 17 -2c2 0 17 19 27 19
c10 -2 17 -11 26 -13c35 -6 70 -3 101 -31c5 -5 -4 -9 2 -15c12 -16 26 -53 26 -75c0 -20 -9 -24 -21 -24c-6 0 -14 1 -20 1c-17 0 -41 -8 -58 -10c-10 -1 -29 -2 -42 -2c-16 2 -29 3 -42 3c-15 0 -30 -1 -45 -1c-6 0 -16 6 -21 7l-10 -17c0 -10 -2 -21 -2 -31
c0 -9 -3 -12 1 -43c6 -38 32 -82 65 -110c22 -18 26 -26 53 -26c17 0 36 0 50 13c11 9 50 64 65 64zM96 588c-1 10 4 27 5 35c26 22 16 6 41 17c15 6 43 -10 43 -27c0 -1 -1 -5 -2 -6l2 -8c-4 -16 -11 -32 -22 -42c-6 -3 -13 -5 -19 -5c-2 0 -16 7 -18 7
c-14 0 -22 19 -30 29zM356 612c1 -11 -3 -28 -4 -36c-26 -21 -16 -5 -41 -17c-15 -5 -44 11 -44 28c0 1 2 4 3 5l-3 8c5 16 12 32 23 43c6 3 13 4 18 4c3 0 16 -7 19 -7c13 0 21 -18 29 -28z" />
    <glyph glyph-name="iacute" unicode="&#xed;" horiz-adv-x="264" 
d="M254 624c-12 0 -29 -18 -29 -30c0 -13 -20 -8 -27 -22c-4 -11 -23 -9 -27 -20c-10 -24 -22 -37 -50 -37c-7 0 -22 7 -22 16c0 0 86 119 95 127c8 7 7 19 13 27c6 6 29 9 37 9c10 0 42 -19 42 -29c0 -15 -23 -33 -32 -41zM198 -9c-12 -2 -40 3 -49 2c-22 0 -37 -1 -60 7
c-2 0 -5 -2 -7 -2c-15 0 -33 1 -42 13c-1 2 -1 4 -1 5c0 5 3 11 7 14c16 14 36 14 49 33c3 3 -3 17 -3 20c-1 4 -1 4 -1 5c0 4 -2 9 -2 13c0 10 7 23 7 32c0 6 -3 19 -3 24s-4 46 -5 48l2 8l-1 9c0 4 1 8 1 13c0 12 -3 12 -3 20c0 12 11 37 11 51c0 26 -47 62 -47 67
s1 10 1 16c4 0 7 5 8 5l20 -1c18 6 33 21 50 30c5 3 25 8 28 8c18 0 21 -16 21 -30c0 -20 1 -42 1 -62c0 -11 0 -22 -1 -31c-1 -7 -5 -17 -9 -22c-4 -3 6 -14 6 -19c3 -16 4 -20 4 -37c0 -9 -4 -42 -4 -51v-3c0 -10 1 -21 1 -32c0 -6 0 -14 -1 -19l5 -18l-2 -9l2 -6l-1 -20
c10 -22 37 -42 37 -65c0 -4 -4 -5 -5 -6c0 -3 -12 -10 -14 -10z" />
    <glyph glyph-name="igrave" unicode="&#xec;" horiz-adv-x="264" 
d="M176 176c0 -10 1 -21 1 -32c0 -6 0 -14 -1 -19l5 -18l-2 -9l2 -6l-1 -20c10 -22 37 -42 37 -65c0 -4 -4 -5 -5 -6c0 -3 -12 -10 -14 -10c-12 -2 -40 3 -49 2c-22 0 -37 -1 -60 7c-2 0 -5 -2 -7 -2c-15 0 -33 1 -42 13c-1 2 -1 4 -1 5c0 5 3 11 7 14c16 14 36 14 49 33
c3 3 -3 17 -3 20c-1 4 -1 4 -1 5c0 4 -2 9 -2 13c0 10 7 23 7 32c0 6 -3 19 -3 24s-4 46 -5 48l2 8l-1 9c0 4 1 8 1 13c0 12 -3 12 -3 20c0 12 11 37 11 51c0 26 -47 62 -47 67s1 10 1 16c4 0 7 5 8 5l20 -1c18 6 33 21 50 30c5 3 25 8 28 8c18 0 21 -16 21 -30
c0 -20 1 -42 1 -62c0 -11 0 -22 -1 -31c-1 -7 -5 -17 -9 -22c-4 -3 -16 -2 -16 -8c3 -16 26 -31 26 -48c0 -9 -4 -43 -4 -54zM20 624c-9 8 -32 26 -32 41c0 10 32 29 42 29c8 0 31 -3 36 -9c7 -8 7 -20 15 -27c9 -8 94 -127 94 -127c0 -9 -15 -16 -22 -16
c-28 0 -40 13 -50 37c-4 11 -22 9 -27 20c-7 14 -26 9 -26 22c0 12 -18 30 -30 30z" />
    <glyph glyph-name="icircumflex" unicode="&#xee;" horiz-adv-x="264" 
d="M176 176c0 -10 1 -21 1 -32c0 -6 0 -14 -1 -19l5 -18l-2 -9l2 -6l-1 -20c10 -22 37 -42 37 -65c0 -4 -4 -5 -5 -6c0 -3 -12 -10 -14 -10c-12 -2 -40 3 -49 2c-22 0 -37 -1 -60 7c-2 0 -5 -2 -7 -2c-15 0 -33 1 -42 13c-1 2 -1 4 -1 5c0 5 3 11 7 14c16 14 36 14 49 33
c3 3 -3 17 -3 20c-1 4 -1 4 -1 5c0 4 -2 9 -2 13c0 10 7 23 7 32c0 6 -3 19 -3 24s-4 46 -5 48l2 8l-1 9c0 4 1 8 1 13c0 12 -3 12 -3 20c0 12 11 37 11 51c0 26 -47 62 -47 67s1 10 1 16c4 0 7 5 8 5l20 -1c18 6 33 21 50 30c5 3 25 8 28 8c18 0 21 -16 21 -30
c0 -20 1 -42 1 -62c0 -11 0 -22 -1 -31c-1 -7 -5 -17 -9 -22c-4 -3 -16 -2 -16 -8c3 -16 26 -31 26 -48c0 -9 -4 -43 -4 -54zM252 513c-26 0 -40 14 -49 36c0 3 -70 55 -78 55c-26 0 -67 -91 -118 -91h-2c-4 5 -7 10 -7 16c0 26 52 52 59 75c8 23 47 88 73 88
c14 0 26 -5 36 -9c8 -7 10 -18 18 -25c9 -8 11 -25 19 -36c7 -9 17 -17 24 -27c9 -12 25 -18 31 -34c4 -10 12 -21 12 -32s-8 -16 -18 -16z" />
    <glyph glyph-name="idieresis" unicode="&#xef;" horiz-adv-x="264" 
d="M176 176c0 -10 1 -21 1 -32c0 -6 0 -14 -1 -19l5 -18l-2 -9l2 -6l-1 -20c10 -22 37 -42 37 -65c0 -4 -4 -5 -5 -6c0 -3 -12 -10 -14 -10c-12 -2 -40 3 -49 2c-22 0 -37 -1 -60 7c-2 0 -5 -2 -7 -2c-15 0 -33 1 -42 13c-1 2 -1 4 -1 5c0 5 3 11 7 14c16 14 36 14 49 33
c3 3 -3 17 -3 20c-1 4 -1 4 -1 5c0 4 -2 9 -2 13c0 10 7 23 7 32c0 6 -3 19 -3 24s-4 46 -5 48l2 8l-1 9c0 4 1 8 1 13c0 12 -3 12 -3 20c0 12 11 37 11 51c0 26 -47 62 -47 67s1 10 1 16c4 0 7 5 8 5l20 -1c18 6 33 21 50 30c5 3 25 8 28 8c18 0 21 -16 21 -30
c0 -20 1 -42 1 -62c0 -11 0 -22 -1 -31c-1 -7 -5 -17 -9 -22c-4 -3 -16 -2 -16 -8c3 -16 26 -31 26 -48c0 -9 -4 -43 -4 -54zM7 593c-1 10 3 27 4 35c27 22 16 6 41 17c15 6 44 -10 44 -27c0 -1 -1 -5 -3 -6l3 -8c-5 -16 -12 -32 -23 -42c-6 -3 -13 -5 -18 -5
c-3 0 -16 7 -19 7c-13 0 -21 19 -29 29zM267 617c1 -11 -4 -28 -5 -36c-26 -21 -16 -5 -41 -17c-15 -5 -43 11 -43 28c0 1 1 4 2 5l-2 8c4 16 11 32 23 43c5 3 12 4 18 4c2 0 16 -7 18 -7c14 0 22 -18 30 -28z" />
    <glyph glyph-name="ntilde" unicode="&#xf1;" horiz-adv-x="510" 
d="M475 21c6 -12 -13 -15 -27 -15c-17 0 -19 1 -33 1c-7 0 -16 -1 -21 -5l-26 7c-7 -3 -16 -3 -25 -3h-16h-6l-12 11c3 7 6 13 9 19l25 6l14 10l7 21c1 10 -4 28 -4 41c1 8 5 66 6 80l4 11c-9 12 -11 29 -11 44c0 7 9 29 9 42c-1 5 -8 10 -9 16v8c0 33 -32 48 -57 63l-9 -2
l-31 13c-32 0 -77 -26 -97 -50c-3 -5 -4 -8 -4 -12s1 -9 1 -15c0 -4 -9 -27 -9 -32c0 -8 5 -16 5 -21c0 -17 -6 -23 -6 -73c0 -29 11 -56 11 -83c0 -20 -2 -40 -9 -54l1 -13l17 -6l17 1l22 12c6 0 11 -2 17 -4l5 -14l-8 -22l-13 -5l-16 3c-14 -6 -24 -8 -39 -11l-7 2l-6 -3
l-16 4c-9 -2 -21 -6 -30 -6c-16 0 -28 4 -44 10l-11 4c6 20 20 29 25 47c6 11 11 30 11 44c-3 24 -12 50 -12 74c0 15 6 36 4 46c-3 2 -4 8 -4 14c0 8 3 18 3 21l-4 7c5 15 4 34 9 48l-8 16c1 6 3 10 3 16c0 10 -8 17 -18 17c-1 0 -2 0 -5 -1c-13 0 -13 22 -13 31
c0 7 1 18 7 23c21 13 48 14 70 27c3 3 24 14 28 14c10 0 14 -11 17 -20l-3 -11c1 -6 1 -12 1 -18c0 -5 2 -15 2 -22l5 -7c33 24 56 50 98 66l10 -1l9 7c12 2 21 9 33 10c8 1 13 0 25 -1c12 1 29 -11 46 -11c3 0 4 0 8 1c7 0 14 -16 19 -20c1 -1 3 -1 4 -1c2 0 4 1 8 3l7 -5
l-7 -3c18 -27 33 -109 34 -143c1 -23 -2 -43 -4 -69c0 -5 -3 -21 -3 -26c0 -4 1 -63 1 -67c0 -8 -1 -16 -1 -24s24 -36 29 -50zM119 600c0 26 2 32 20 51s62 24 79 20c16 -2 37 -23 54 -44s28 -40 53 -40s28 8 39 29c9 19 2 55 18 55s24 -11 24 -31c0 -21 1 -42 1 -51
c0 -10 -44 -69 -80 -69c-34 0 -55 10 -51 20c3 9 -10 13 -17 9c-7 -3 -40 46 -41 56c-1 11 -25 12 -41 12c-15 0 -25 -17 -25 -37c0 -19 -5 -29 -16 -29c-12 0 -17 29 -17 49z" />
    <glyph glyph-name="oacute" unicode="&#xf3;" horiz-adv-x="499" 
d="M357 624c-13 0 -31 -18 -31 -30c0 -13 -18 -8 -25 -22c-6 -11 -23 -9 -27 -20c-10 -24 -22 -37 -51 -37c-6 0 -21 7 -21 16c0 0 84 119 93 127c8 7 8 19 15 27c6 6 29 9 37 9c10 0 42 -19 42 -29c0 -15 -23 -33 -32 -41zM139 190c0 -11 9 -33 14 -41
c13 -20 32 -84 52 -94c17 -8 30 -20 51 -20c67 1 51 8 94 46c3 2 7 2 8 5c5 9 33 74 23 83c-4 3 -5 16 -5 20c0 8 9 25 9 34c0 7 0 12 3 18c-8 22 -14 61 -15 71c0 5 -8 14 -9 17c-1 4 -1 7 -1 11c0 2 -5 2 -5 4c-23 30 -54 62 -91 69c-8 0 -16 -9 -24 -13c-5 1 -8 1 -12 1
c-33 0 -51 -20 -66 -48c-21 -39 -24 -63 -24 -87c0 -11 1 -22 1 -33c0 -12 -1 -26 -3 -43zM121 26c-6 15 -16 0 -46 40c-3 7 -7 14 -9 22v16c-10 17 -14 31 -23 48l4 13c-1 1 -1 8 -1 16c0 17 1 40 2 46l-4 9c5 78 6 107 54 166c13 17 37 21 55 31c7 4 13 5 21 5
c11 0 22 -3 31 -3l24 13h12c9 0 21 0 26 -2c4 5 41 4 56 4c14 0 30 -17 43 -21c17 -7 32 -16 42 -30l5 -13c12 -6 20 -30 19 -46c15 0 33 -74 35 -84c-3 -42 -3 -70 -18 -125c-8 -28 -26 -56 -31 -87c-1 -2 -21 -28 -33 -30c-5 -1 -32 -11 -38 -13l-16 6
c-29 -10 -31 -28 -80 -28c-5 0 -10 0 -14 4c-9 6 -11 17 -24 20l-20 -5c-25 11 -48 18 -72 28z" />
    <glyph glyph-name="ograve" unicode="&#xf2;" horiz-adv-x="499" 
d="M193 624c-9 8 -32 26 -32 41c0 10 32 29 42 29c8 0 31 -3 36 -9c7 -8 7 -20 15 -27c9 -8 94 -127 94 -127c0 -9 -15 -16 -22 -16c-28 0 -40 13 -50 37c-4 11 -22 9 -27 20c-7 14 -26 9 -26 22c0 12 -18 30 -30 30zM139 190c0 -11 9 -33 14 -41c13 -20 32 -84 52 -94
c17 -8 30 -20 51 -20c67 1 51 8 94 46c3 2 7 2 8 5c5 9 33 74 23 83c-4 3 -5 16 -5 20c0 8 9 25 9 34c0 7 0 12 3 18c-8 22 -14 61 -15 71c0 5 -8 14 -9 17c-1 4 -1 7 -1 11c0 2 -5 2 -5 4c-23 30 -54 62 -91 69c-8 0 -16 -9 -24 -13c-5 1 -8 1 -12 1c-33 0 -51 -20 -66 -48
c-21 -39 -24 -63 -24 -87c0 -11 1 -22 1 -33c0 -12 -1 -26 -3 -43zM121 26c-6 15 -16 0 -46 40c-3 7 -7 14 -9 22v16c-10 17 -14 31 -23 48l4 13c-1 1 -1 8 -1 16c0 17 1 40 2 46l-4 9c5 78 6 107 54 166c13 17 37 21 55 31c7 4 13 5 21 5c11 0 22 -3 31 -3l24 13h12
c9 0 21 0 26 -2c4 5 41 4 56 4c14 0 30 -17 43 -21c17 -7 32 -16 42 -30l5 -13c12 -6 20 -30 19 -46c15 0 33 -74 35 -84c-3 -42 -3 -70 -18 -125c-8 -28 -26 -56 -31 -87c-1 -2 -21 -28 -33 -30c-5 -1 -32 -11 -38 -13l-16 6c-29 -10 -31 -28 -80 -28c-5 0 -10 0 -14 4
c-9 6 -11 17 -24 20l-20 -5c-25 11 -48 18 -72 28z" />
    <glyph glyph-name="ocircumflex" unicode="&#xf4;" horiz-adv-x="499" 
d="M139 190c0 -11 9 -33 14 -41c13 -20 32 -84 52 -94c17 -8 30 -20 51 -20c67 1 51 8 94 46c3 2 7 2 8 5c5 9 33 74 23 83c-4 3 -5 16 -5 20c0 8 9 25 9 34c0 7 0 12 3 18c-8 22 -14 61 -15 71c0 5 -8 14 -9 17c-1 4 -1 7 -1 11c0 2 -5 2 -5 4c-23 30 -54 62 -91 69
c-8 0 -16 -9 -24 -13c-5 1 -8 1 -12 1c-33 0 -51 -20 -66 -48c-21 -39 -24 -63 -24 -87c0 -11 1 -22 1 -33c0 -12 -1 -26 -3 -43zM121 26c-6 15 -16 0 -46 40c-3 7 -7 14 -9 22v16c-10 17 -14 31 -23 48l4 13c-1 1 -1 8 -1 16c0 17 1 40 2 46l-4 9c5 78 6 107 54 166
c13 17 37 21 55 31c7 4 13 5 21 5c11 0 22 -3 31 -3l24 13h12c9 0 21 0 26 -2c4 5 41 4 56 4c14 0 30 -17 43 -21c17 -7 32 -16 42 -30l5 -13c12 -6 20 -30 19 -46c15 0 33 -74 35 -84c-3 -42 -3 -70 -18 -125c-8 -28 -26 -56 -31 -87c-1 -2 -21 -28 -33 -30
c-5 -1 -32 -11 -38 -13l-16 6c-29 -10 -31 -28 -80 -28c-5 0 -10 0 -14 4c-9 6 -11 17 -24 20l-20 -5c-25 11 -48 18 -72 28zM375 513c-26 0 -40 14 -49 36c0 3 -70 55 -77 55c-27 0 -68 -91 -119 -91h-2c-4 5 -7 10 -7 16c0 26 52 52 59 75c8 23 47 88 73 88
c14 0 26 -5 37 -9c8 -7 9 -18 17 -25c9 -8 11 -25 19 -36c7 -9 17 -17 24 -27c9 -12 25 -18 31 -34c4 -10 12 -21 12 -32s-8 -16 -18 -16z" />
    <glyph glyph-name="odieresis" unicode="&#xf6;" horiz-adv-x="499" 
d="M139 190c0 -11 9 -33 14 -41c13 -20 32 -84 52 -94c17 -8 30 -20 51 -20c67 1 51 8 94 46c3 2 7 2 8 5c5 9 33 74 23 83c-4 3 -5 16 -5 20c0 8 9 25 9 34c0 7 0 12 3 18c-8 22 -14 61 -15 71c0 5 -8 14 -9 17c-1 4 -1 7 -1 11c0 2 -5 2 -5 4c-23 30 -54 62 -91 69
c-8 0 -16 -9 -24 -13c-5 1 -8 1 -12 1c-33 0 -51 -20 -66 -48c-21 -39 -24 -63 -24 -87c0 -11 1 -22 1 -33c0 -12 -1 -26 -3 -43zM121 26c-6 15 -16 0 -46 40c-3 7 -7 14 -9 22v16c-10 17 -14 31 -23 48l4 13c-1 1 -1 8 -1 16c0 17 1 40 2 46l-4 9c5 78 6 107 54 166
c13 17 37 21 55 31c7 4 13 5 21 5c11 0 22 -3 31 -3l24 13h12c9 0 21 0 26 -2c4 5 41 4 56 4c14 0 30 -17 43 -21c17 -7 32 -16 42 -30l5 -13c12 -6 20 -30 19 -46c15 0 33 -74 35 -84c-3 -42 -3 -70 -18 -125c-8 -28 -26 -56 -31 -87c-1 -2 -21 -28 -33 -30
c-5 -1 -32 -11 -38 -13l-16 6c-29 -10 -31 -28 -80 -28c-5 0 -10 0 -14 4c-9 6 -11 17 -24 20l-20 -5c-25 11 -48 18 -72 28zM129 593c-1 10 3 27 4 35c27 22 16 6 41 17c15 6 44 -10 44 -27c0 -1 -1 -5 -3 -6l3 -8c-5 -16 -12 -32 -23 -42c-6 -3 -13 -5 -18 -5
c-3 0 -16 7 -19 7c-13 0 -21 19 -29 29zM389 617c1 -11 -4 -28 -5 -36c-26 -21 -16 -5 -41 -17c-15 -5 -43 11 -43 28c0 1 1 4 2 5l-2 8c4 16 11 32 23 43c5 3 12 4 18 4c2 0 16 -7 18 -7c14 0 22 -18 30 -28z" />
    <glyph glyph-name="otilde" unicode="&#xf5;" horiz-adv-x="499" 
d="M139 190c0 -11 9 -33 14 -41c13 -20 32 -84 52 -94c17 -8 30 -20 51 -20c67 1 51 8 94 46c3 2 7 2 8 5c5 9 33 74 23 83c-4 3 -5 16 -5 20c0 8 9 25 9 34c0 7 0 12 3 18c-8 22 -14 61 -15 71c0 5 -8 14 -9 17c-1 4 -1 7 -1 11c0 2 -5 2 -5 4c-23 30 -54 62 -91 69
c-8 0 -16 -9 -24 -13c-5 1 -8 1 -12 1c-33 0 -51 -20 -66 -48c-21 -39 -24 -63 -24 -87c0 -11 1 -22 1 -33c0 -12 -1 -26 -3 -43zM121 26c-6 15 -16 0 -46 40c-3 7 -7 14 -9 22v16c-10 17 -14 31 -23 48l4 13c-1 1 -1 8 -1 16c0 17 1 40 2 46l-4 9c5 78 6 107 54 166
c13 17 37 21 55 31c7 4 13 5 21 5c11 0 22 -3 31 -3l24 13h12c9 0 21 0 26 -2c4 5 41 4 56 4c14 0 30 -17 43 -21c17 -7 32 -16 42 -30l5 -13c12 -6 20 -30 19 -46c15 0 33 -74 35 -84c-3 -42 -3 -70 -18 -125c-8 -28 -26 -56 -31 -87c-1 -2 -21 -28 -33 -30
c-5 -1 -32 -11 -38 -13l-16 6c-29 -10 -31 -28 -80 -28c-5 0 -10 0 -14 4c-9 6 -11 17 -24 20l-20 -5c-25 11 -48 18 -72 28zM112 600c0 26 2 32 20 51s62 24 79 20c16 -2 39 -23 55 -44c17 -21 27 -40 52 -40s29 8 39 29c9 19 2 55 18 55s24 -11 24 -31c0 -21 1 -42 1 -51
c0 -10 -44 -69 -80 -69c-34 0 -54 10 -51 20c3 9 -10 13 -17 9c-7 -3 -40 46 -41 56c-1 11 -25 12 -41 12c-15 0 -25 -17 -25 -37c0 -19 -5 -29 -16 -29c-12 0 -17 29 -17 49z" />
    <glyph glyph-name="uacute" unicode="&#xfa;" horiz-adv-x="513" 
d="M353 624c-13 0 -30 -18 -30 -30c0 -13 -20 -8 -25 -22c-6 -11 -24 -9 -28 -20c-10 -24 -21 -37 -50 -37c-8 0 -22 7 -22 16c0 0 85 119 94 127c8 7 7 19 15 27c5 6 28 9 36 9c10 0 42 -19 42 -29c0 -15 -22 -33 -32 -41zM410 439c4 0 7 2 11 2c32 0 36 -31 36 -59
c0 -10 -1 -19 -1 -27c0 -26 -7 -47 -7 -71c0 -4 1 -8 1 -13c0 -9 -7 -27 -8 -36c0 -9 1 -14 7 -23v-40c-3 -10 -9 -45 -8 -56c0 -9 -11 -18 -11 -26c0 -1 0 -2 1 -3c8 -19 24 -13 41 -21c7 -3 9 -10 14 -16l-6 -14c0 -1 -13 -3 -15 -4l-20 -17c-21 -8 -41 -21 -63 -24
c-2 0 -6 -1 -7 -1c-26 0 -40 23 -40 49c0 7 13 19 4 27c-4 0 -11 -7 -15 -9l-20 -21c-3 0 -27 -15 -30 -19c-8 -6 -21 -7 -30 -10l-9 -9l-9 -5l-23 1c-10 0 -21 -5 -32 -5c-48 13 -51 8 -84 45c-5 5 -6 9 -6 13c0 8 6 15 6 26c0 1 -11 20 -11 24c4 9 5 23 -1 30l-8 13
c-1 4 -1 7 -1 10c0 7 1 15 1 21c0 52 11 107 13 161c0 12 -7 41 -10 51c-4 7 -13 18 -23 16c-8 0 -13 6 -13 14v8c0 3 0 8 2 12c3 7 11 13 14 20l17 -8l9 2c7 -4 22 -9 30 -5c6 0 17 1 29 1c15 0 31 -2 37 -10c5 -7 4 -15 6 -21c0 -14 -5 -28 -7 -44c0 -1 -1 -9 -1 -10
c0 -6 2 -14 2 -21c0 -22 -10 -43 -11 -65c0 -2 2 -11 2 -28c-6 -24 -15 -43 -15 -68c0 -19 24 -37 30 -53c11 -27 20 -40 50 -40c16 0 30 6 47 6c24 0 77 19 85 46c-1 9 12 30 12 47c0 14 -8 31 -9 46c0 9 -3 19 -3 32c-1 16 10 36 9 52c-1 15 -9 28 -10 44l4 8
c0 17 -20 41 -37 41c-3 0 -5 5 -7 8l-5 24c3 6 7 12 13 17l12 -6l4 -7c6 -1 13 -4 20 -4c10 1 10 8 17 8c1 0 2 -2 4 -2l7 3c7 -3 13 -6 19 -7z" />
    <glyph glyph-name="ugrave" unicode="&#xf9;" horiz-adv-x="513" 
d="M406 404l-5 -10l11 -4zM410 439c4 0 7 2 11 2c32 0 36 -31 36 -59c0 -10 -1 -19 -1 -27c0 -26 -7 -47 -7 -71c0 -4 1 -8 1 -13c0 -9 -7 -27 -8 -36c0 -9 1 -14 7 -23v-40c-3 -10 -9 -45 -8 -56c0 -9 -11 -18 -11 -26c0 -1 0 -2 1 -3c8 -19 24 -13 41 -21
c7 -3 9 -10 14 -16l-6 -14c0 -1 -13 -3 -15 -4l-20 -17c-21 -8 -41 -21 -63 -24c-2 0 -6 -1 -7 -1c-26 0 -40 23 -40 49c0 7 13 19 4 27c-4 0 -11 -7 -15 -9l-20 -21c-3 0 -27 -15 -30 -19c-8 -6 -21 -7 -30 -10l-9 -9l-9 -5l-23 1c-10 0 -21 -5 -32 -5c-48 13 -51 8 -84 45
c-5 5 -6 9 -6 13c0 8 6 15 6 26c0 1 -11 20 -11 24c4 9 5 23 -1 30l-8 13c-1 4 -1 7 -1 10c0 7 1 15 1 21c0 52 11 107 13 161c0 12 -7 41 -10 51c-4 7 -13 18 -23 16c-8 0 -13 6 -13 14v8c0 3 0 8 2 12c3 7 11 13 14 20l17 -8l9 2c7 -4 22 -9 30 -5c6 0 17 1 29 1
c15 0 31 -2 37 -10c5 -7 4 -15 6 -21c0 -14 -5 -28 -7 -44c0 -1 -1 -9 -1 -10c0 -6 2 -14 2 -21c0 -22 -10 -43 -11 -65c0 -2 2 -11 2 -28c-6 -24 -15 -43 -15 -68c0 -19 24 -37 30 -53c11 -27 20 -40 50 -40c16 0 30 6 47 6c24 0 77 19 85 46c-1 9 12 30 12 47
c0 14 -8 31 -9 46c0 9 -3 19 -3 32c-1 16 10 36 9 52c-1 15 -9 28 -10 44l4 8c0 17 -20 41 -37 41c-3 0 -5 5 -7 8l-5 24c3 6 7 12 13 17l12 -6l4 -7c6 -1 13 -4 20 -4c10 1 10 8 17 8c1 0 2 -2 4 -2l7 3c7 -3 13 -6 19 -7zM193 624c-9 8 -32 26 -32 41c0 10 32 29 42 29
c8 0 31 -3 36 -9c7 -8 7 -20 15 -27c9 -8 94 -127 94 -127c0 -9 -15 -16 -22 -16c-28 0 -40 13 -50 37c-4 11 -22 9 -27 20c-7 14 -26 9 -26 22c0 12 -18 30 -30 30z" />
    <glyph glyph-name="ucircumflex" unicode="&#xfb;" horiz-adv-x="513" 
d="M406 404l-5 -10l11 -4zM410 439c4 0 7 2 11 2c32 0 36 -31 36 -59c0 -10 -1 -19 -1 -27c0 -26 -7 -47 -7 -71c0 -4 1 -8 1 -13c0 -9 -7 -27 -8 -36c0 -9 1 -14 7 -23v-40c-3 -10 -9 -45 -8 -56c0 -9 -11 -18 -11 -26c0 -1 0 -2 1 -3c8 -19 24 -13 41 -21
c7 -3 9 -10 14 -16l-6 -14c0 -1 -13 -3 -15 -4l-20 -17c-21 -8 -41 -21 -63 -24c-2 0 -6 -1 -7 -1c-26 0 -40 23 -40 49c0 7 13 19 4 27c-4 0 -11 -7 -15 -9l-20 -21c-3 0 -27 -15 -30 -19c-8 -6 -21 -7 -30 -10l-9 -9l-9 -5l-23 1c-10 0 -21 -5 -32 -5c-48 13 -51 8 -84 45
c-5 5 -6 9 -6 13c0 8 6 15 6 26c0 1 -11 20 -11 24c4 9 5 23 -1 30l-8 13c-1 4 -1 7 -1 10c0 7 1 15 1 21c0 52 11 107 13 161c0 12 -7 41 -10 51c-4 7 -13 18 -23 16c-8 0 -13 6 -13 14v8c0 3 0 8 2 12c3 7 11 13 14 20l17 -8l9 2c7 -4 22 -9 30 -5c6 0 17 1 29 1
c15 0 31 -2 37 -10c5 -7 4 -15 6 -21c0 -14 -5 -28 -7 -44c0 -1 -1 -9 -1 -10c0 -6 2 -14 2 -21c0 -22 -10 -43 -11 -65c0 -2 2 -11 2 -28c-6 -24 -15 -43 -15 -68c0 -19 24 -37 30 -53c11 -27 20 -40 50 -40c16 0 30 6 47 6c24 0 77 19 85 46c-1 9 12 30 12 47
c0 14 -8 31 -9 46c0 9 -3 19 -3 32c-1 16 10 36 9 52c-1 15 -9 28 -10 44l4 8c0 17 -20 41 -37 41c-3 0 -5 5 -7 8l-5 24c3 6 7 12 13 17l12 -6l4 -7c6 -1 13 -4 20 -4c10 1 10 8 17 8c1 0 2 -2 4 -2l7 3c7 -3 13 -6 19 -7zM375 513c-26 0 -40 14 -49 36c0 3 -70 55 -77 55
c-27 0 -68 -91 -119 -91h-2c-4 5 -7 10 -7 16c0 26 52 52 59 75c8 23 47 88 73 88c14 0 26 -5 37 -9c8 -7 9 -18 17 -25c9 -8 11 -25 19 -36c7 -9 17 -17 24 -27c9 -12 25 -18 31 -34c4 -10 12 -21 12 -32s-8 -16 -18 -16z" />
    <glyph glyph-name="udieresis" unicode="&#xfc;" horiz-adv-x="513" 
d="M410 439c4 0 7 2 11 2c32 0 36 -31 36 -59c0 -10 -1 -19 -1 -27c0 -26 -7 -47 -7 -71c0 -4 1 -8 1 -13c0 -9 -7 -27 -8 -36c0 -9 1 -14 7 -23v-40c-3 -10 -9 -45 -8 -56c0 -9 -11 -18 -11 -26c0 -1 0 -2 1 -3c8 -19 24 -13 41 -21c7 -3 9 -10 14 -16l-6 -14
c0 -1 -13 -3 -15 -4l-20 -17c-21 -8 -41 -21 -63 -24c-2 0 -6 -1 -7 -1c-26 0 -40 23 -40 49c0 7 13 19 4 27c-4 0 -11 -7 -15 -9l-20 -21c-3 0 -27 -15 -30 -19c-8 -6 -21 -7 -30 -10l-9 -9l-9 -5l-23 1c-10 0 -21 -5 -32 -5c-48 13 -51 8 -84 45c-5 5 -6 9 -6 13
c0 8 6 15 6 26c0 1 -11 20 -11 24c4 9 5 23 -1 30l-8 13c-1 4 -1 7 -1 10c0 7 1 15 1 21c0 52 11 107 13 161c0 12 -7 41 -10 51c-4 7 -13 18 -23 16c-8 0 -13 6 -13 14v8c0 3 0 8 2 12c3 7 11 13 14 20l17 -8l9 2c7 -4 22 -9 30 -5c6 0 17 1 29 1c15 0 31 -2 37 -10
c5 -7 4 -15 6 -21c0 -14 -5 -28 -7 -44c0 -1 -1 -9 -1 -10c0 -6 2 -14 2 -21c0 -22 -10 -43 -11 -65c0 -2 2 -11 2 -28c-6 -24 -15 -43 -15 -68c0 -19 24 -37 30 -53c11 -27 20 -40 50 -40c16 0 30 6 47 6c24 0 77 19 85 46c-1 9 12 30 12 47c0 14 -8 31 -9 46
c0 9 -3 19 -3 32c-1 16 10 36 9 52c-1 15 -9 28 -10 44l4 8c0 17 -20 41 -37 41c-3 0 -5 5 -7 8l-5 24c3 6 7 12 13 17l12 -6l4 -7c6 -1 13 -4 20 -4c10 1 10 8 17 8c1 0 2 -2 4 -2l7 3c7 -3 13 -6 19 -7zM123 593c-1 10 4 27 5 35c26 22 16 6 41 17c15 6 43 -10 43 -27
c0 -1 -1 -5 -2 -6l2 -8c-5 -16 -11 -32 -23 -42c-5 -3 -12 -5 -18 -5c-2 0 -16 7 -18 7c-14 0 -22 19 -30 29zM383 617c1 -11 -3 -28 -5 -36c-26 -21 -15 -5 -41 -17c-14 -5 -43 11 -43 28c0 1 1 4 2 5l-2 8c5 16 12 32 23 43c6 3 12 4 18 4c2 0 16 -7 18 -7
c14 0 22 -18 30 -28z" />
    <glyph glyph-name="dagger" unicode="&#x2020;" horiz-adv-x="619" 
d="M254 648c5 4 -1 3 -1 11c0 17 -3 33 -3 50l-5 5c-1 6 -3 13 -7 19l-29 16c-5 0 -8 1 -13 1v1s-3 1 -4 3c-5 2 -20 18 -20 25c0 16 9 22 24 22c17 0 32 -3 48 -3c9 0 17 -1 41 -5c8 0 18 2 26 6l23 -3l10 1c6 -1 14 -4 20 -4c14 0 36 12 66 11c2 0 13 -14 15 -16
c0 -12 0 -37 -13 -37c-31 -16 -69 -12 -69 -50c0 -4 2 -17 -3 -22l4 -11l2 -8c-1 -17 -5 -27 -5 -28l6 -16c-3 -12 -8 -27 -12 -37c8 -14 10 -30 10 -45c0 -3 -6 -15 -7 -19c-2 -13 6 -23 18 -23c0 0 4 3 5 4c10 1 19 1 31 4l4 -2c27 2 31 -6 54 -6l19 11l11 -5
c14 0 23 8 24 9l15 30c8 8 10 10 15 20c0 0 5 5 5 6c4 7 11 12 18 14l6 -7c2 -8 4 -22 6 -30l5 -16c-2 -38 11 -98 -7 -146l-11 -29c-6 -5 -14 -9 -22 -12c-24 7 3 57 -19 85l-7 4l-7 -2c-14 6 -29 -1 -32 -2c-2 2 -7 2 -10 3c-1 1 -7 1 -14 1c-11 0 -26 -1 -33 -2
c-10 2 -22 4 -33 4c-13 0 -21 -5 -32 -10c-2 2 -8 -12 -10 -35c-1 -17 4 -38 3 -62c-1 -12 -15 -21 -8 -34c9 -16 0 -76 -2 -114c0 -12 -6 -45 -7 -59c0 -10 14 -1 14 -11c-1 -27 -13 -19 -14 -44c0 -12 0 -56 -1 -68c-1 -30 7 -61 6 -87c-1 -17 -13 -29 -13 -43
c-1 -17 2 -33 1 -46c-2 -25 -8 -41 -9 -43c-4 -7 -31 6 -36 2c0 17 -12 30 -12 47c0 3 -10 7 -10 10c0 8 17 17 17 25c0 9 -7 19 -8 28c-1 25 10 64 -2 75c-8 7 0 19 0 30c0 16 -10 32 -2 47c4 11 -2 23 -2 35c0 7 2 43 0 50c0 9 13 -7 12 2c0 16 -15 27 -15 43
c-1 22 5 43 3 62c0 13 -8 25 -8 36c-1 23 5 37 4 55c-1 15 -8 34 -9 46c-3 20 9 20 7 32c-3 11 -16 33 -19 33c-28 1 -63 0 -67 -2c-17 0 -35 -5 -52 -5c-11 0 -22 9 -31 9c-19 0 -25 -10 -30 -90l-11 -7c-24 5 -28 18 -28 38c-9 100 -6 143 0 156v8c11 15 18 65 36 65
c9 0 14 -4 14 -11c0 -2 0 -4 -2 -6c4 -9 7 -18 11 -26c0 -8 -5 -21 -5 -28c0 -11 9 -26 22 -26c12 0 37 6 49 1c0 1 8 2 9 2c4 0 10 3 15 3c5 2 4 -4 25 -1c12 0 26 -3 40 -3l4 -2h6l4 13l-1 9c0 11 -4 32 -4 40c0 4 -2 11 1 30l-3 16c2 7 4 13 6 19c-1 5 -1 11 -1 16z" />
    <glyph glyph-name="degree" unicode="&#xb0;" horiz-adv-x="513" 
d="M229 718c-29 0 -81 -126 -81 -151c0 -48 62 -88 106 -88c56 0 119 88 119 108c0 72 -75 131 -144 131zM345 757c39 0 102 -88 102 -155c0 -49 -27 -136 -86 -148c-36 -8 -67 -53 -106 -53c-85 0 -193 74 -193 134c0 99 50 242 182 242c32 0 70 -20 101 -20z" />
    <glyph glyph-name="cent" unicode="&#xa2;" horiz-adv-x="418" 
d="M235 625l1 8l26 65l-8 22l12 44l16 10h13l9 -17l-3 -27l-10 -46l-7 -41l-5 -21c4 -1 7 -2 12 -2c92 -9 75 -7 92 -89l-7 -16c-12 -1 -25 -20 -32 -28c-1 -1 -1 -4 -15 -4c-15 0 -27 23 -31 36l-22 26c-4 0 -9 1 -10 2l-15 -48l-13 -83l-20 -99l-9 -11l-11 -77
c12 -6 24 -11 32 -11c5 0 11 0 16 2c73 26 50 46 85 68c9 7 6 20 19 19c8 0 9 -4 9 -9v-10c0 -3 4 -18 6 -21c0 -18 -22 -23 -28 -37c0 -7 4 -11 4 -16c0 -24 -63 -44 -80 -53c-2 1 -24 -7 -33 -7c-11 2 -25 6 -38 8l-19 -51l-22 -78l-17 -32h-11l-12 13l4 19l8 7l6 59
l15 48l-1 19l3 7c-31 9 -59 22 -82 45c-24 24 -39 38 -41 66c0 8 5 20 5 31c-5 21 -13 42 -13 65c0 3 4 11 4 14c0 7 -4 16 0 28c1 4 27 75 35 84c16 23 23 54 41 75c3 -1 54 30 60 33c12 7 52 10 82 11zM160 254v5l14 43l3 45l25 75l7 75l18 66c-8 1 -15 2 -23 2
c-18 -3 -35 -7 -54 -14c-20 -7 -27 -20 -30 -41c0 -2 -1 -2 -9 -13l1 -8c-5 -7 -5 -20 -8 -28l2 -8c-2 -5 -2 -11 -2 -18c0 -6 0 -13 1 -18c-1 -15 -9 -17 -9 -37c0 -12 16 -44 19 -52l1 -18c11 -15 23 -32 31 -49z" />
    <glyph glyph-name="sterling" unicode="&#xa3;" horiz-adv-x="645" 
d="M280 306v-27c0 -32 21 -33 9 -48c-2 -2 -12 -26 -12 -30c0 -28 -2 -34 -9 -48c-9 -18 -33 -50 -33 -69c0 -39 19 -36 57 -37c19 0 35 8 50 8c36 0 73 32 109 23l27 -3c14 10 12 -10 21 3c3 30 30 45 30 66l3 27l29 41l11 -36l-1 -14c20 -16 15 -14 15 -31v-11
c0 -14 1 -29 1 -42c0 -14 -1 -28 -4 -44v-2c0 -25 -37 -35 -53 -41c-25 2 -39 2 -64 5c-7 -5 -68 -13 -83 -13c-19 0 -68 14 -133 14c-13 0 -28 -12 -29 -12c-12 0 -23 9 -35 13c-5 -3 -9 -6 -14 -9c-9 1 -19 2 -30 2c-15 0 -71 -14 -102 -14c-2 0 -6 1 -8 2
c-4 11 -6 23 -6 35c0 7 2 13 6 19c9 3 17 9 26 13l9 -3c32 8 51 17 51 41c0 11 12 18 12 30c0 19 18 8 18 27c0 24 15 27 15 51c0 9 5 57 9 66l-9 36c-9 2 -18 0 -34 0c-35 0 -31 -3 -55 -3c-22 0 -26 10 -26 21c0 12 7 19 7 28c0 10 9 12 40 12s45 4 61 4
c-12 15 -22 25 -23 49c4 5 -26 37 -19 40c-8 14 -19 26 -21 41c2 18 4 40 4 60c0 16 6 40 6 57c14 35 18 72 60 84c15 4 18 33 51 40c25 0 37 3 74 3c6 0 15 -1 23 -3l22 9l8 -1l23 7c30 -6 44 -17 71 -17c6 0 14 0 24 2c3 -1 10 -4 15 -4c3 0 4 2 6 2c12 -4 22 -12 31 -19
c7 -16 9 -34 9 -51c0 -30 6 -51 14 -80c10 -3 17 -12 25 -18l-10 -13l-12 -2l-12 -7l-7 4l-9 -12l-8 3c-8 5 -9 10 -9 18s1 14 1 23c0 11 -4 12 -13 20c1 6 -15 32 -19 38c-80 20 -49 61 -147 61c-13 0 -22 -2 -34 -6c-12 0 -18 -2 -18 -16c-9 -24 -61 -50 -61 -107
c0 -23 3 -44 16 -63c1 -10 -4 -20 4 -23c0 -14 -11 -43 25 -49c8 -13 13 -30 22 -58c14 1 24 -4 44 -4s60 3 78 3s13 -17 13 -31c0 -13 -26 -22 -47 -22c-22 0 -24 -3 -45 -3c-11 0 -22 -2 -31 -5z" />
    <glyph glyph-name="section" unicode="&#xa7;" horiz-adv-x="595" 
d="M360 428c21 -7 53 -61 63 -61c1 0 23 -17 56 -67c10 -4 18 -10 25 -20c3 -24 25 -43 19 -60l5 -5c2 -6 4 -11 6 -18c-2 -4 8 -3 8 -9v-23l6 -23c1 -10 4 -18 4 -25c0 -3 -1 -10 -1 -16c-2 -8 0 -31 -6 -36l-1 -17l-16 -66c-12 -5 1 -23 -12 -24c-6 -14 -1 -16 -17 -30
c-9 -3 -15 -21 -22 -32c-42 -25 -64 -53 -99 -59c-20 -8 -34 -30 -64 -30c-6 0 -30 -4 -53 -8l-22 6c-24 7 -29 -6 -59 7c-7 2 -14 12 -20 10c-12 7 -29 28 -31 54c-14 35 6 48 8 46c-7 20 1 65 74 67c34 -13 20 -56 19 -80c-1 -26 7 -38 24 -50c9 -6 22 -13 33 -7
c21 -5 41 12 44 15c22 10 37 34 39 76c2 27 -5 73 -18 67c-1 13 -5 29 -12 32c-9 16 -6 12 -16 25c-3 1 -17 15 -32 22h-3c-1 0 -1 3 -33 19l-17 21h-3h-1c-20 0 -53 53 -62 53c-1 0 -24 19 -57 68c-10 3 -17 11 -25 19c-3 24 -9 40 -26 57l3 9c-4 6 -5 10 -6 17
c1 5 -10 15 -10 21l-8 20l3 15c-3 9 -4 17 -4 24c0 3 1 10 1 16c2 8 0 32 6 36l2 18l16 66c11 4 11 37 22 38l8 27c8 3 14 10 21 20c42 26 49 49 86 56l40 17c19 8 6 16 35 16c7 0 28 15 54 8l22 -6c25 -7 38 -1 59 -19c6 -5 17 -15 24 -13c11 -6 25 -12 28 -37
c11 -22 -4 -38 3 -57c7 -21 -21 -64 -74 -53c-36 3 -37 45 -37 77c0 16 -1 28 -12 36c-8 6 -27 27 -39 20c-21 4 -41 -13 -44 -15c-22 -10 -37 -34 -39 -77c-2 -27 6 -72 18 -67c2 -11 6 -27 12 -32c9 -16 12 -9 22 -17c2 -1 10 -28 18 -18c9 -7 14 -23 36 -25zM410 -111
c36 20 59 78 67 97c11 42 6 76 2 101l-5 30c-5 30 -17 56 -20 57c-13 15 -23 39 -31 56l-34 26c-36 47 -46 35 -89 81c-21 12 -36 19 -48 43l-24 18c-17 13 -40 83 -43 100c-1 23 -13 32 -15 56c-2 19 15 37 11 59c-7 12 4 38 7 55c-35 -19 -64 -84 -72 -104
c-11 -41 -7 -75 -2 -100l13 -60c4 -20 10 -27 13 -27c12 -16 23 -40 44 -57l23 -26c40 -45 46 -34 92 -79c18 -12 33 -20 44 -43l24 -19c17 -14 41 -82 51 -101c2 -21 4 -33 6 -55c2 -20 -11 -31 -9 -52c6 -12 -2 -40 -5 -56z" />
    <glyph glyph-name="bullet" unicode="&#x2022;" horiz-adv-x="499" 
d="M323 450c14 0 30 -17 43 -21c17 -7 32 -16 42 -30c5 -13 24 -23 24 -59c15 0 19 -37 22 -45v1c4 -14 12 -28 12 -43v-3c-3 -43 -2 -64 -17 -119c-8 -28 -26 -56 -31 -87v3c-5 0 -4 -15 -8 -15h-2s-19 -18 -23 -18c-5 -1 -32 -11 -38 -13l-16 6c-23 -8 -41 -28 -68 -28
h-12c-5 0 -10 0 -14 4c-9 6 -11 17 -24 20l-20 -5c-25 11 -48 18 -72 28l-5 6l-13 2l-28 32c-3 7 -7 14 -9 22v16c-10 17 -14 31 -23 48l4 13c-1 1 -1 8 -1 16c0 17 1 40 2 46l-4 9c5 78 6 107 54 166c13 17 37 21 55 31c7 4 13 5 21 5c11 0 22 -3 31 -3l24 13
c22 0 -2 1 47 1c16 0 32 1 47 1z" />
    <glyph glyph-name="paragraph" unicode="&#xb6;" horiz-adv-x="659" 
d="M82 670c6 20 23 46 43 53c20 18 71 13 86 27c9 1 19 2 28 2c12 0 23 -5 33 -8l12 3l6 -4l21 13c5 -1 25 -9 30 -9c7 0 14 2 19 3c10 -1 20 -6 34 -6c39 1 75 3 112 11c12 -5 21 -12 33 -14c4 0 18 5 21 5c20 0 31 -26 36 -41c0 -8 -5 -28 -2 -36c-6 -6 -8 -17 -9 -25
c3 -6 8 -10 10 -16c-22 -16 -41 -12 -65 -23l-3 -10c-8 -3 -13 -10 -13 -19c0 -20 7 -48 7 -54c-1 -11 -7 -43 -1 -55c-6 -11 -9 -25 -9 -41c-4 -11 -8 -19 -8 -33c10 -16 19 -59 19 -81c0 -13 -9 -28 -9 -44c0 -13 8 -26 8 -41c0 -2 -2 -7 -3 -10c5 -10 4 -29 9 -40
c-5 -13 -14 -28 -14 -41c0 -11 10 -31 13 -44c0 -10 3 -13 13 -20c5 -15 15 -17 26 -17c22 0 32 -1 38 -3l8 -18c2 -13 3 -34 3 -41c0 -4 -14 -21 -18 -25c-3 -2 -11 -7 -15 -7c-29 0 -60 15 -90 23c-19 -5 -26 -1 -30 -1c-12 -1 -20 -5 -26 -6c-12 2 -31 4 -44 4
s-52 -2 -74 0c-16 2 -34 -7 -55 -7c-26 1 -32 17 -37 37c4 7 11 14 18 19c3 14 13 16 19 16c39 0 63 2 98 16c5 9 -1 30 10 49l-1 19c4 6 3 14 6 19l-5 8l-1 16l6 14c-5 17 -7 34 -11 51l5 20l-2 10c1 11 3 22 5 33c-8 14 -2 25 1 30c-5 5 -10 10 -17 13
c-20 4 -37 -17 -44 -26l-9 -2c-34 7 -53 19 -90 19h-10c-17 6 -33 15 -51 20c-27 20 -23 20 -57 26c-8 13 -14 33 -28 42c-3 16 -16 30 -16 48c0 3 1 8 1 11c-9 24 -20 53 -12 72l-4 16c8 22 28 100 46 100z" />
    <glyph glyph-name="germandbls" unicode="&#xdf;" horiz-adv-x="551" 
d="M440 454c-57 4 -84 -56 -85 -58c1 1 -7 -8 -7 -49c0 -7 0 -19 4 -23c12 -16 26 -25 40 -39l20 -7c55 -53 72 -15 92 -90c17 -17 16 -36 16 -60v-1c0 -55 -14 -63 -33 -102c-3 -4 -10 -1 -14 -6c-22 -34 -58 -30 -90 -34h2v0v0c-1 -1 -2 -2 -3 -2l-5 -2c-2 0 -4 1 -7 1
c-5 0 -12 -3 -18 -4h-1c-3 0 -8 4 -11 8l-4 6l-8 6l-41 10c-7 7 -13 15 -17 24c-1 2 -1 3 -1 4v10v1c-2 18 -10 37 -15 54l7 8v-2c1 13 1 25 6 37c1 2 3 2 4 2c6 0 13 -2 15 -8c4 -7 5 -17 6 -26c0 -4 3 -5 3 -6c4 -14 19 -17 25 -34l8 -7l1 -9c8 -16 22 -23 37 -23
c31 0 59 23 62 59v3c0 14 -8 36 -19 52c-18 29 -51 56 -76 73h1l-8 10c-9 11 -14 15 -23 25c-4 5 -13 0 -17 5c-16 30 -16 47 -19 79v3c0 6 -4 16 -5 22l5 10c0 27 13 59 29 77c7 7 19 8 24 18c5 6 16 2 23 4l5 7l8 3c2 -1 3 -1 5 -1c9 0 21 5 28 5c1 3 21 60 -6 142
c-1 4 -9 21 -8 24l-2 6c-18 9 -21 7 -24 8c-8 -1 -12 4 -24 9l-24 5c-24 0 -43 -7 -56 -20c-22 -21 -28 -44 -34 -73c-6 -20 -7 -29 -8 -32c0 -5 -3 -11 -8 -20l-1 -1v-20l-2 -12l1 -11c-1 0 -4 -20 -4 -26c1 -24 0 -31 -1 -38c0 -2 -2 -7 -6 -19c-1 -5 0 -5 3 -15l-1 -19
c-2 -31 -7 -52 -12 -57c0 -8 5 -16 12 -25c-3 -6 -3 -10 -4 -14c1 0 4 -7 6 -13c1 -7 2 -14 2 -19c-7 -21 -1 -5 -16 -27l2 -7c-1 -3 -2 -9 -2 -17l1 -17c3 -5 4 -7 5 -9l2 -30l1 -20v-1l1 -15c-1 -7 -1 -7 8 -34l-3 -10c0 -2 5 -9 7 -12c1 -1 1 0 10 -1c0 0 2 -1 8 -7
c6 -2 11 -7 24 -16c-7 -14 -18 -22 -36 -22c-3 0 -5 -1 -13 -3l-19 2s-5 0 -10 -2h-4s0 -1 -6 -2l-12 2c-5 -1 -9 -2 -15 -4c-1 0 -6 2 -18 5c-4 1 -7 1 -10 1c-18 -1 -23 -4 -27 -4c0 0 -3 0 -9 1c0 2 -5 0 -16 -5c1 -1 1 -1 -1 -1l1 1c-2 1 -14 3 -26 6c-2 0 -1 1 -5 7
c8 36 16 54 25 54h11c14 0 22 0 25 2c1 2 13 19 13 21l-2 25l-1 4c-5 3 0 13 12 33c-2 7 -5 11 -11 18c2 10 4 16 4 16c0 14 0 5 -5 17v11l2 6c4 2 1 4 -7 18v29c-1 6 0 1 11 28c0 4 -1 7 -1 12c-3 7 -4 11 -4 11v9l-3 14c1 5 2 10 4 17c0 13 -7 19 -21 19
c-6 -1 -12 -3 -18 -4l-10 3l-2 8c2 3 9 21 6 30l9 9l9 14c11 2 17 5 20 9c2 2 19 42 19 44l-2 11c0 14 10 38 27 71l-1 10c58 86 75 98 80 102c-1 -1 3 3 13 14c10 9 3 3 13 9c28 18 81 49 115 32c17 -5 24 -1 61 -16c4 -4 16 -21 23 -25l25 -7c1 -3 24 -62 25 -66
c6 -7 18 -128 -34 -164z" />
    <glyph glyph-name="registered" unicode="&#xae;" horiz-adv-x="581" 
d="M291 592c137 0 248 -112 248 -249s-111 -248 -248 -248s-249 111 -249 248s112 249 249 249zM291 567c-123 0 -224 -101 -224 -224s101 -223 224 -223s223 100 223 223s-100 224 -223 224zM252 487v-123c55 0 90 21 90 59c0 27 -6 57 -90 64zM430 228v-14h-60
c-15 20 -56 86 -85 138c-14 -1 -25 -2 -33 0v-123h33v-15h-107v15h33v255h-32v15h76c79 0 131 -18 131 -77c0 -32 -31 -56 -62 -61c4 -9 77 -141 106 -133z" />
    <glyph glyph-name="copyright" unicode="&#xa9;" horiz-adv-x="581" 
d="M291 592c137 0 248 -112 248 -249s-111 -248 -248 -248s-249 111 -249 248s112 249 249 249zM291 567c-123 0 -224 -101 -224 -224s101 -223 224 -223s223 100 223 223s-100 224 -223 224zM296 195c-102 0 -156 72 -156 154c0 83 61 148 154 148c34 0 80 -16 89 -16
c6 0 5 8 5 11l-2 4l13 1c-1 -30 1 -66 9 -87l-11 -2c-8 40 -61 78 -103 78c-66 0 -110 -72 -110 -137c0 -73 51 -144 110 -143c41 0 95 40 115 85l12 -4c-13 -26 -23 -61 -22 -92l-13 1l2 5c0 3 1 11 -5 11c-9 0 -50 -17 -87 -17z" />
    <glyph glyph-name="trademark" unicode="&#x2122;" horiz-adv-x="651" 
d="M169 443h33v-14h-107v14h33v257l-57 -1l-41 -70l-9 3c11 34 13 75 10 93h11l2 -11h208l2 11h12c-4 -18 -2 -59 10 -93l-9 -3l-42 70l-56 1v-257zM543 670c0 1 -1 3 -3 3c-1 0 -2 -2 -2 -3l-87 -247h-11l-103 247c0 1 -1 3 -2 3c0 0 -2 -2 -2 -3l-4 -227h35v-14h-92v14h27
l22 243c-2 8 -19 21 -38 14v14h81l85 -209c3 -8 7 -8 10 0l75 209h76v-15h-29l17 -256h28v-14h-99v14h30z" />
    <glyph glyph-name="acute" unicode="&#xb4;" horiz-adv-x="515" 
d="M294 624c-12 0 -30 -18 -30 -30c0 -13 -19 -8 -25 -22c-5 -11 -23 -9 -27 -20c-10 -24 -23 -37 -50 -37c-8 0 -23 7 -23 16c2 18 51 71 84 134c8 6 18 12 26 20c4 6 27 9 36 9s41 -19 41 -29c0 -15 -23 -33 -32 -41z" />
    <glyph glyph-name="dieresis" unicode="&#xa8;" horiz-adv-x="423" 
d="M109 593c-1 10 4 27 5 35c26 22 16 6 41 17c15 6 43 -10 43 -27c0 -1 -1 -5 -2 -6l2 -8c-4 -16 -11 -32 -22 -42c-6 -3 -13 -5 -19 -5c-2 0 -16 7 -18 7c-14 0 -22 19 -30 29zM369 617c1 -11 -3 -28 -4 -36c-26 -21 -16 -5 -41 -17c-15 -5 -44 11 -44 28c0 1 2 4 3 5
l-3 8c5 16 12 32 23 43c6 3 13 4 18 4c3 0 16 -7 19 -7c13 0 21 -18 29 -28z" />
    <glyph glyph-name="AE" unicode="&#xc6;" horiz-adv-x="1026" 
d="M448 327c2 37 -1 73 -11 101c5 15 9 31 9 49c4 4 2 12 -1 27c-8 8 -11 34 -11 47l-5 5c-15 -28 -37 -56 -56 -83c-3 -11 -6 -20 -8 -28c-1 -5 0 -8 -1 -13c-17 -14 -28 -51 -43 -69c-6 -10 -21 -15 -23 -27c-3 -5 0 -11 5 -13l14 2l6 -4c25 3 42 5 60 5c11 0 24 0 39 -3z
M442 276c-9 4 -19 7 -27 9c-31 -17 -46 -21 -76 -21s-39 35 -57 35c-6 0 -8 -5 -10 -11c-6 -28 -125 -168 -151 -213c1 -20 43 -35 63 -43c0 -5 0 -10 -3 -16c0 -2 -1 -5 -1 -6c-6 -7 -15 -15 -23 -15c-2 0 -12 4 -17 5c-4 -1 -10 -1 -16 -1c-20 0 -40 4 -60 4
c-24 0 -26 -3 -51 -14c-24 0 -21 3 -37 13c-4 -1 -10 -3 -15 -3c-7 0 -13 3 -17 8c5 10 -6 24 -7 31c6 25 21 27 36 27h16c5 0 10 0 14 1l15 -4c22 19 45 37 64 58c9 8 21 32 27 42c33 0 85 83 92 110c11 24 30 36 46 52c2 7 6 13 11 20c-4 9 4 20 8 24c58 48 25 38 54 77
c0 6 -3 14 -1 22c0 2 7 14 8 15c1 6 2 9 4 13c4 21 11 13 33 26c3 8 9 27 20 28c5 14 38 57 51 85c0 3 -21 12 -23 12c-5 0 -16 -3 -23 -5c-16 0 -31 25 -31 38c0 12 12 35 26 35c10 0 23 -3 34 -4c7 2 14 4 21 4c17 0 33 -6 51 -6c14 0 25 7 40 7s30 -3 46 -3h19
c14 10 29 15 45 19l27 -9c9 0 32 0 40 3c9 6 26 11 40 11c5 0 23 -5 27 -8c5 -2 14 -3 18 -3h28c4 -6 13 -8 20 -10c46 10 105 3 105 -46c0 -7 -2 -15 -6 -21c1 -10 7 -15 12 -23c-5 -28 -4 -62 -18 -85l-6 -4c-28 3 -40 31 -56 48c-35 4 -42 43 -54 48
c-26 10 -12 45 -94 45c-41 0 -95 -29 -103 -29c-10 0 -20 6 -32 6c-28 0 -34 -57 -34 -78c0 -11 9 -81 14 -89c-7 -36 -5 -59 -14 -93l5 -11c-4 -5 11 -6 13 -6c6 0 12 3 17 5c6 -2 28 -2 31 -2h15l13 3c5 1 12 2 19 2h16c17 0 19 11 36 11c4 0 8 -2 13 -2c11 3 25 11 32 21
l-4 20c8 12 29 49 45 49c2 0 12 -3 15 -4l4 -17c-1 -5 -2 -10 -2 -15c0 -11 2 -20 7 -31c4 -20 0 -24 -1 -32l1 -2l-3 -8c0 -2 11 -137 11 -145c0 -1 -3 -8 -4 -9c0 -4 -12 -7 -14 -7c-43 0 -34 120 -93 120c-15 0 -28 -2 -43 -2c-5 0 -10 1 -15 1c-19 -1 -34 -9 -51 -9
c-1 0 -3 0 -11 1c-10 7 -28 16 -39 16c-12 0 -14 -32 -14 -39c0 -12 16 -16 16 -28c0 -15 -9 -30 -13 -44c1 -1 6 -50 6 -51c0 -7 -2 -14 -3 -19c-4 -3 -4 -27 -4 -30c0 -9 0 -40 4 -46l-2 -4c8 -30 19 -32 46 -37c14 1 63 3 74 9l24 -5c4 1 8 -1 13 -4l11 4l10 -4h8
c12 0 22 -3 34 -3h23c22 0 38 1 61 14c35 3 76 60 76 95c0 3 -1 5 -1 8c4 13 19 33 34 33c23 0 26 -16 26 -32v-14c0 -16 6 -29 6 -45c0 -3 -1 -7 -1 -11c0 -2 2 -7 2 -9c0 -11 -3 -20 -5 -30c0 -11 -13 -36 -15 -47c1 -2 2 -5 2 -9c0 -7 -14 -17 -19 -21h-10
c-12 5 -38 14 -53 14c-5 0 -7 -2 -10 -3c-4 0 -7 -1 -11 -2l-8 2c-4 -2 -14 -2 -27 -2c-43 0 -122 6 -137 6c-7 0 -21 -6 -28 -8c-9 2 -19 6 -28 8c-13 -2 -41 -6 -53 -5c-5 3 -9 7 -15 11l-14 -11l-13 2c-10 -8 -127 -15 -133 -16c-4 -2 -10 -4 -16 -4c-4 0 -8 8 -8 12
c0 1 0 1 2 2c-12 7 -36 40 -36 52s28 18 46 18c6 0 10 0 12 -1c16 3 19 12 19 27c0 18 -4 41 -8 61c-3 1 -3 4 -3 6c0 14 5 13 9 24v15c-6 57 0 75 -4 82c1 5 2 9 3 14z" />
    <glyph glyph-name="Oslash" unicode="&#xd8;" horiz-adv-x="788" 
d="M383 26c9 4 19 5 27 6c5 0 13 -5 16 -6c3 1 6 1 9 1h5l6 7l12 -7c24 11 37 4 49 27c4 1 8 4 12 5c-1 9 30 27 38 30c13 15 19 27 26 46l4 4c4 6 7 11 9 18l8 8c0 7 2 13 5 20v9c2 3 4 7 5 10v3c0 15 24 67 24 100c0 13 7 28 10 42l-3 11c1 6 1 10 1 16
c0 25 -11 50 -13 75c-20 40 -22 97 -52 133c-4 -1 -19 10 -21 19l-13 10c-4 11 -12 20 -17 30c-2 1 -6 2 -8 3l-18 -67l4 -15l-21 -62l-16 -102l-28 -122l-11 -15l-23 -173zM472 675c-2 1 -3 2 -6 3c-11 4 -38 3 -46 3c-50 0 -109 -24 -145 -53l-16 -3
c-39 -56 -77 -88 -77 -166c0 -8 -1 -17 -2 -26c0 -5 -4 -24 -7 -26v-17c0 -29 5 -61 8 -90c24 -44 24 -103 49 -145c24 -10 36 -51 50 -73l14 -8c7 -10 18 -15 30 -18l7 -6c1 -4 2 -9 4 -14l12 35l-3 24l19 57l6 55l20 54l2 54l33 92l8 92l26 90l11 78zM324 -8
c-20 3 -38 7 -49 6c-7 1 -14 5 -20 9c-6 0 -17 15 -27 15c-46 0 -80 35 -104 70l-1 8c-18 24 -57 102 -57 133l-17 30c2 6 2 8 2 11c0 14 5 30 5 45c0 12 -2 28 -6 38c2 11 1 23 2 34l2 8c0 6 -2 11 -2 18c0 5 2 11 2 16l5 6l-2 10c2 5 2 22 2 28c3 21 16 39 22 61
c6 4 9 10 9 17c0 17 17 31 26 47c4 7 45 40 54 48l14 3c2 1 4 5 5 8c17 1 17 12 28 21l8 4l19 -9l20 18l3 10l12 -2c32 -1 60 23 89 23c9 0 17 -6 26 -6c7 5 34 7 41 7c19 -2 37 -5 55 -10l12 27l-11 29l15 53l22 12h17l11 -21l-4 -33l-14 -56l-3 -22c3 -1 5 -4 9 -5l8 2
l13 -8c37 -2 69 -42 91 -68c7 -3 15 -11 21 -17c10 -25 32 -35 38 -65c4 -3 25 -82 31 -92l-4 -11c2 -1 6 -20 6 -26c0 -7 -5 -14 -5 -20c0 -14 9 -24 9 -40c0 -68 -33 -180 -66 -239c-28 -16 -36 -73 -118 -101c-47 -41 -56 -24 -107 -37l-24 4l-14 -5h-7
c-4 0 -8 -1 -15 -3c-8 1 -19 3 -32 6l-14 -52l-21 -38h-15l-15 14l5 24l10 9z" />
    <glyph glyph-name="yen" unicode="&#xa5;" horiz-adv-x="813" 
d="M474 142c-1 -22 -2 -54 -5 -62c-6 -7 2 -9 4 -14c22 -7 19 -18 35 -18c22 6 43 -9 43 -23c-3 -25 -36 -32 -39 -34c-13 2 -25 2 -38 2c-15 0 -31 -1 -45 -1c-16 0 -39 5 -55 3c-13 -2 -24 -5 -38 -5l-12 2c-3 0 -5 -1 -8 -1c-15 0 -41 6 -41 23c0 2 7 29 16 28
c10 10 32 8 48 12c5 9 21 14 14 25c-3 10 -2 25 -3 37c-2 5 -3 12 -3 22c-19 -2 -36 -5 -46 -6c-26 -2 -29 12 -38 12c-8 0 -12 -12 -21 -12c-8 0 -78 -23 -78 0s7 32 14 39c6 7 15 21 25 14c11 -7 31 -12 35 -3c4 10 11 5 23 10c14 4 59 -3 76 4c3 1 5 1 8 2
c4 13 8 23 8 36c0 12 -6 24 -10 36c1 6 0 14 4 20c-2 4 -3 8 -3 12s0 7 1 10c-19 0 -43 -4 -58 -4c-20 0 -50 -7 -66 -16s-32 -16 -48 -7s-38 32 -29 50c2 21 20 39 61 28c41 -12 59 4 110 6c8 0 16 0 22 1c-14 23 -39 42 -61 54c2 1 3 5 3 7s-1 3 -3 4
c-14 48 -91 75 -98 129c-42 46 -55 56 -95 56c-11 0 -25 -1 -41 -2c-12 3 -24 15 -24 28c-2 5 -3 10 -3 14c0 15 10 29 24 33c3 -1 7 -1 10 -1c7 0 14 1 19 3c4 5 10 11 16 11c9 0 23 -14 36 -14c25 0 62 8 86 16c9 -1 21 -3 30 -3c26 0 52 1 79 1h11c8 0 13 -6 22 -6
c10 0 18 -13 26 -18c0 -39 -86 -28 -112 -50c5 -23 67 -72 87 -92c11 -11 7 -20 12 -27c27 -11 30 -70 64 -82c58 47 54 89 98 123c13 21 55 48 55 68c0 28 -18 32 -40 32c-14 0 -42 4 -43 21c3 2 5 6 8 8c-3 1 -3 2 -3 3c0 7 14 15 18 17c41 -3 79 -3 120 -8
c15 4 28 8 43 13c10 -2 24 0 33 -3c3 1 29 1 50 1c12 0 24 0 25 -1c4 -6 7 -15 11 -22c-7 -26 -34 -30 -58 -30c-9 0 -18 1 -25 1s-23 -8 -28 -11c-11 -9 -18 -15 -30 -21c-7 -30 -47 -52 -66 -79c-13 -7 -17 -21 -24 -33l-6 -3c-7 -9 -16 -16 -20 -26
c-20 -9 -76 -84 -80 -105c0 -1 1 -2 1 -3c23 3 47 7 60 8c28 2 30 -12 39 -12s14 12 23 12s82 23 82 0s7 -46 0 -53s-25 -16 -36 -9c-12 7 -37 21 -41 12c-5 -10 -12 -5 -26 -10c-13 -4 -61 3 -79 -4c-4 -1 -8 -2 -15 -3c-1 -11 -2 -21 -5 -27c1 -9 1 -16 5 -24
c-2 -4 -2 -9 -2 -13c0 -9 2 -19 2 -29c0 -1 0 -2 -1 -20c18 0 42 4 56 4c19 0 46 -1 62 8c15 9 32 -7 45 7c12 14 18 -34 10 -52c-2 -21 -1 -37 -40 -26c-39 12 -56 4 -104 2c-9 0 -17 -2 -25 -2z" />
    <glyph glyph-name="ae" unicode="&#xe6;" horiz-adv-x="576" 
d="M423 454c12 0 26 -3 40 -7c1 0 2 -2 7 -5c7 -1 12 -1 17 0c-3 -2 4 -3 32 -13v0v0c-4 2 5 -8 25 -29c4 -4 8 -12 8 -23v-4c-1 -1 -2 -3 -6 -16c1 -5 -6 -29 -11 -34c-14 -16 -28 -24 -41 -24c5 0 -2 2 -23 4c-8 1 -10 3 -10 3c-83 -50 -87 -54 -96 -59c0 -2 -6 -6 -9 -9
c1 3 -12 -4 -14 -5c-1 -3 -9 -21 -9 -22l6 -15l-2 -8v-10l-1 -6l1 -9l4 -30s0 -1 3 -10l-1 -11c0 -9 5 -21 10 -29c10 -9 22 -17 31 -18h9c4 0 8 -2 12 -5c1 0 4 2 11 5c6 2 10 3 10 3c1 0 0 0 0 0v0l12 -3c8 0 2 -1 13 17c0 1 0 1 12 8c6 6 12 13 20 23c0 0 5 11 6 14
c7 10 14 19 22 25c19 -5 31 -21 31 -41c0 -8 -2 -14 -3 -19c-1 -2 -4 -10 -12 -26c-3 -1 -1 0 -1 -9c0 0 -6 -6 -24 -30c-19 -18 -69 -41 -88 -41c-113 17 -106 15 -119 25c0 -1 -13 8 -17 10c-1 1 -4 3 -9 10c-2 8 -9 11 -18 16c0 3 -4 8 -9 13c-7 -3 -11 -4 -13 -5
c0 0 -20 -19 -64 -54c-5 -1 -36 -4 -56 -6l-9 -2c-11 0 -22 4 -32 10c-4 4 -11 21 -13 25c1 2 2 2 2 2s-2 2 -11 21c-4 14 -5 15 -6 17l4 12l-1 6l3 15v12c0 6 4 18 5 22c3 2 8 7 32 36c-1 -1 6 3 23 17c6 5 -2 0 31 19c-2 3 4 8 10 13c3 1 9 3 19 5c61 6 69 10 62 36
c1 10 2 14 3 17c-2 20 -9 33 -11 37c1 1 0 5 -1 13c0 0 -1 -5 -9 36c0 1 -3 5 -8 12c-1 2 0 4 -1 8c-3 6 -28 23 -33 23h-18c-38 0 -36 1 -47 -50l4 -23c2 -9 2 -9 -19 -28c-20 -19 -17 -18 -30 -18c-8 0 -14 2 -16 4c-3 3 -10 18 -10 24c0 7 0 13 3 18c9 19 3 10 6 25l2 10
l-1 6c-1 -2 1 9 4 10c1 3 1 1 11 6c-1 0 2 3 8 9s8 8 8 9l-6 20c8 2 14 3 16 4c9 4 15 6 17 6c0 0 7 1 20 4l19 5l16 -2l9 1c0 1 2 0 15 -6l14 2c8 0 12 0 13 -1c3 -2 14 -7 44 -17c0 0 10 -9 28 -28c5 -4 1 1 5 -8c4 -5 9 -8 12 -8c5 0 11 4 17 12c-2 -1 11 12 25 27l2 2
l-2 -2c0 -1 15 7 35 18h16c6 0 8 -1 10 0c4 0 6 4 25 16zM406 399c-18 0 -36 -6 -48 -17c-8 -8 -14 -14 -16 -18c0 0 -5 -9 -9 -30l2 -31l5 -5c1 0 1 0 2 1c0 0 1 1 36 26c2 0 12 2 29 6c24 5 14 1 28 13l-2 8l2 9c2 0 -3 7 -12 17l-2 6c1 4 1 6 -1 8c-4 4 -2 1 -14 7z
M229 194l-33 -10h-11l-9 -14c1 -2 -5 -10 -16 -26c0 -3 -6 -7 -8 -9c-3 -6 -4 -11 -5 -18c-1 -4 -3 -10 -6 -14c0 -24 14 -46 30 -46h1c1 0 2 2 15 11v2s3 2 35 26c7 7 11 13 7 19c4 8 8 16 9 22l-2 10c1 5 2 10 5 15c0 11 -4 22 -12 32z" />
    <glyph glyph-name="oslash" unicode="&#xf8;" horiz-adv-x="499" 
d="M225 44c9 -5 19 -9 31 -9c67 1 51 8 94 46c3 2 7 2 8 5c5 9 33 74 23 83c-4 3 -5 16 -5 20c0 8 9 25 9 34c0 7 0 12 3 18c-8 22 -14 61 -15 71c0 5 -8 14 -9 17c-1 4 -1 7 -1 11c0 2 -5 2 -5 4c-11 15 -25 31 -41 44l-3 -11l-6 -40l-17 -37l-3 -38l-29 -66l-7 -65
l-24 -64zM271 412c-2 1 -3 1 -4 1c-8 0 -16 -9 -24 -13c-5 1 -8 1 -12 1c-33 0 -51 -20 -66 -48c-21 -39 -24 -63 -24 -87c0 -11 1 -22 1 -33c0 -12 -1 -26 -3 -43c0 -11 9 -33 14 -41c9 -13 20 -48 33 -71l2 6l14 45l15 72l25 86l10 11zM165 9c-15 6 -29 10 -44 17
c-6 15 -16 0 -46 40c-3 7 -7 14 -9 22v16c-10 17 -14 31 -23 48l4 13c-1 1 -1 8 -1 16c0 17 1 40 2 46l-4 9c5 78 6 107 54 166c13 17 37 21 55 31c7 4 13 5 21 5c11 0 22 -3 31 -3l24 13h12c9 0 21 0 26 -2c2 2 10 3 20 4l8 16l25 68l19 27h14l13 -10l-5 -17l-8 -6l-6 -51
l-13 -29c11 -6 23 -16 32 -19c17 -7 32 -16 42 -30l5 -13c12 -6 20 -30 19 -46c15 0 33 -74 35 -84c-3 -42 -3 -70 -18 -125c-8 -28 -26 -56 -31 -87c-1 -2 -21 -28 -33 -30c-5 -1 -32 -11 -38 -13l-16 6c-29 -10 -31 -28 -80 -28c-5 0 -10 0 -14 4c-9 6 -11 17 -24 20
l-24 -46l9 -21l-13 -37l-19 -8h-16l-10 14l5 23l11 40l8 37z" />
    <glyph glyph-name="questiondown" unicode="&#xbf;" horiz-adv-x="429" 
d="M370 309c-26 -45 -86 -71 -107 -99c-19 -12 -34 -30 -42 -50c-31 -32 -27 -76 -14 -114c14 -13 28 -23 47 -24c10 8 17 25 32 25c13 0 24 31 62 29c10 -3 35 -11 30 -34c4 -6 7 -20 8 -26l-13 -17c-26 -21 -47 0 -63 -18c-27 3 -60 8 -87 17c-17 19 -47 30 -67 50
c-4 7 -11 8 -11 17c-5 8 -16 15 -24 15c-12 18 3 16 -9 28c1 7 -20 14 10 38c-2 4 -3 9 -5 14c2 13 4 25 -1 37c1 13 7 30 24 37c4 12 8 22 15 34c10 16 31 17 47 26c4 1 24 8 33 17c3 7 28 31 24 40l-3 6c15 12 29 23 36 41l7 1l9 13l-14 13l-8 41l5 16c5 2 12 2 17 2
l21 -13l2 -9l4 -5c4 -8 9 -20 16 -25v-7c7 -11 13 -26 18 -41l4 -4c10 -20 3 -52 -3 -71zM287 543h-1c-3 -3 -7 -3 -9 -3c-10 6 -22 11 -30 17c-2 7 -9 8 -11 14c-2 4 -5 9 -5 13l7 40c6 5 13 11 16 19l8 5c29 14 50 9 75 -6c3 -2 6 -6 7 -8c13 -30 6 -91 -57 -91z" />
    <glyph glyph-name="exclamdown" unicode="&#xa1;" horiz-adv-x="264" 
d="M114 659l9 -5h14l24 -14c2 -10 5 -22 5 -31v-9c-9 -12 -31 -40 -47 -40h-7c-7 0 -15 1 -21 4c-13 12 -20 31 -26 48l2 9c-1 1 -2 6 -2 7c0 20 21 31 38 31h11zM83 -11c-20 18 -27 59 -13 92l-2 20l3 6l-3 9l6 19c-3 14 0 45 0 53c0 9 4 42 4 51c0 17 8 14 11 30
c0 6 2 23 -1 26c-5 5 -8 15 -9 22c-1 9 -1 20 -1 31c0 20 10 49 10 69c0 14 3 30 20 30c4 0 22 12 27 9c12 -19 27 -27 27 -91c0 -14 9 -89 9 -101c0 -8 -3 -8 -3 -20c0 -5 1 -9 1 -13l-1 -9l6 -8c-1 -2 5 -43 5 -48c0 -50 5 -50 5 -55c-11 -5 -13 -10 -13 -14
c0 -1 8 2 7 -1c0 -4 8 -20 11 -23c13 -18 0 -13 -1 -41c9 -6 -6 -24 -7 -25c-9 -13 -3 -14 -18 -14c-2 0 -5 2 -7 2c-27 -8 -42 -6 -73 -6z" />
    <glyph glyph-name="guillemotleft" unicode="&#xab;" horiz-adv-x="388" 
d="M206 400c0 -34 -21 -28 -34 -64c-1 -2 -60 -83 -60 -94c0 -35 94 -96 94 -164v-3c-4 -4 -10 -9 -14 -9c-26 0 -50 68 -71 78s-81 61 -81 97c0 17 4 34 8 47c7 11 17 12 24 23c7 12 23 15 33 25c8 9 15 23 25 32c11 12 17 32 32 40c9 6 18 17 30 17c10 0 14 -11 14 -25z
M343 400c0 -34 -22 -28 -34 -64c-1 -2 -60 -83 -60 -94c0 -35 94 -96 94 -164v-3c-4 -4 -10 -9 -15 -9c-25 0 -49 68 -70 78s-81 61 -81 97c0 17 4 34 8 47c7 11 17 12 24 23c6 12 22 15 33 25c8 9 14 23 25 32c11 12 17 32 32 40c9 6 18 17 29 17s15 -11 15 -25z" />
    <glyph glyph-name="guillemotright" unicode="&#xbb;" horiz-adv-x="388" 
d="M177 92c0 35 21 29 34 64c1 2 60 83 60 95c0 34 -94 96 -94 164v2c4 5 10 9 15 9c25 0 49 -68 70 -77c21 -12 81 -62 81 -97c0 -17 -4 -34 -8 -48c-7 -10 -17 -11 -24 -23c-7 -11 -23 -15 -33 -25c-8 -9 -15 -23 -25 -32c-11 -11 -17 -32 -32 -40c-9 -5 -18 -17 -29 -17
s-15 12 -15 25zM40 92c0 35 22 29 34 64c1 2 61 83 61 95c0 34 -95 96 -95 164v2c4 5 10 9 15 9c25 0 49 -68 70 -77c21 -12 81 -62 81 -97c0 -17 -4 -34 -8 -48c-6 -10 -17 -11 -24 -23c-6 -11 -22 -15 -33 -25c-8 -9 -14 -23 -25 -32c-11 -11 -17 -32 -32 -40
c-9 -5 -18 -17 -29 -17s-15 12 -15 25z" />
    <glyph glyph-name="ellipsis" unicode="&#x2026;" horiz-adv-x="630" 
d="M136 108h12c21 0 46 -13 46 -36c0 -2 -2 -6 -2 -9l2 -11c-6 -21 -17 -41 -32 -57c-10 -4 -23 -5 -33 -5c-21 0 -43 34 -57 49v9c0 11 3 25 7 36l29 19h17zM326 108h12c21 0 46 -13 46 -36c0 -2 -2 -6 -2 -9l2 -11c-6 -21 -17 -41 -32 -57c-10 -4 -23 -5 -33 -5
c-21 0 -43 34 -57 49v9c0 11 3 25 7 36l29 19h17zM517 108h12c21 0 46 -13 46 -36c0 -2 -2 -6 -2 -9l2 -11c-6 -21 -17 -41 -32 -57c-10 -4 -23 -5 -33 -5c-21 0 -43 34 -57 49v9c0 11 3 25 7 36l29 19h17z" />
    <glyph glyph-name="Agrave" unicode="&#xc0;" horiz-adv-x="700" 
d="M306 521c0 -13 -2 -23 -2 -32c0 -5 2 -9 2 -14c-15 -14 -18 -54 -28 -76c-4 -10 -19 -16 -19 -29c0 -6 3 -12 9 -15l16 3l7 -5c26 3 45 6 65 6c12 0 27 0 43 -4l27 5l8 8c0 15 -3 28 -11 36c-5 25 -11 43 -18 65c0 10 -15 62 -15 103c0 14 -22 44 -34 49l-9 -8
c-10 -32 -27 -62 -41 -92zM564 418l1 -8c-11 0 -12 3 -16 -20c-5 -2 -7 -9 -7 -14c0 -20 36 -65 36 -80c3 -8 15 -19 11 -36c0 -37 59 -171 84 -180c4 0 20 -28 21 -32c23 1 41 -6 41 -29c0 -11 -12 -20 -24 -20c-20 0 -43 1 -61 9c-18 -7 -26 -8 -36 -8c-9 0 -17 1 -34 2
c-9 -9 -18 -9 -20 -9c-6 0 -13 4 -16 9l-10 -3l-20 4c-1 -2 -20 -2 -25 -5h-15c-8 0 -52 2 -43 16c20 0 97 24 97 49c0 27 -20 67 -34 91l3 9c-5 25 -25 76 -25 104c0 4 0 8 1 10c-4 10 -10 16 -20 22l-7 1c-13 6 -32 10 -45 14c-28 -19 -45 -23 -78 -23s-52 37 -72 37
c-6 0 -8 -4 -8 -11c0 -31 -93 -185 -110 -234c7 -23 57 -39 80 -48c1 -5 2 -11 2 -18v-6c-4 -8 -12 -16 -20 -16c-3 0 -16 4 -21 5c-4 -1 -11 -1 -17 -1c-22 0 -45 4 -68 4c-26 0 -27 -3 -53 -16c-26 0 -22 4 -43 15c-4 -1 -10 -3 -16 -3c-7 0 -15 3 -19 9
c1 11 -13 26 -17 33c0 29 15 31 32 31h17c7 0 11 0 17 1l17 -6c18 22 39 42 55 65c8 8 13 34 19 46c37 0 72 92 72 122c6 26 23 39 37 56c0 8 3 16 6 22c-6 11 0 22 2 27c52 53 19 42 40 84c-2 8 -6 16 -6 25c0 1 3 15 4 16v14c0 24 9 16 31 29c1 8 2 30 15 31
c1 20 26 45 26 59c0 13 -16 22 -16 30c0 10 32 48 41 57c5 1 43 15 47 15c40 0 25 -62 61 -89c5 -22 9 -34 9 -50c0 -8 -1 -16 -3 -28c16 -19 24 -45 30 -68c17 -15 24 -77 32 -87c9 -21 22 -38 38 -25zM252 858c-8 6 -32 22 -32 33s18 13 24 19c6 3 13 5 19 5
c8 0 29 -1 36 -6c7 -7 6 -17 15 -23c33 -21 45 -62 76 -83c7 -5 14 -12 17 -20c0 -8 -16 -12 -22 -12c-26 0 -39 6 -50 29c-3 8 -53 26 -53 34c0 12 -19 24 -30 24z" />
    <glyph glyph-name="Atilde" unicode="&#xc3;" horiz-adv-x="700" 
d="M247 831c0 23 3 29 21 45c18 17 60 21 77 18c16 -2 38 -21 55 -39c16 -17 28 -34 53 -34s27 7 37 25c9 16 2 48 18 48s24 -10 24 -28s2 -35 2 -43c0 -9 -45 -60 -79 -60s-55 9 -51 18c3 7 -11 10 -18 7c-6 -3 -39 40 -41 49c-1 9 -25 9 -39 9c-15 0 -26 -15 -26 -31
c0 -17 -4 -26 -16 -26c-11 0 -17 26 -17 42zM306 521c0 -13 -2 -23 -2 -32c0 -5 2 -9 2 -14c-15 -14 -18 -54 -28 -76c-4 -10 -19 -16 -19 -29c0 -6 3 -12 9 -15l16 3l7 -5c26 3 45 6 65 6c12 0 27 0 43 -4l27 5l8 8c0 15 -3 28 -11 36c-5 25 -11 43 -18 65
c0 10 -15 62 -15 103c0 14 -22 44 -34 49l-9 -8c-10 -32 -27 -62 -41 -92zM564 418l1 -8c-11 0 -12 3 -16 -20c-5 -2 -7 -9 -7 -14c0 -20 36 -65 36 -80c3 -8 15 -19 11 -36c0 -37 59 -171 84 -180c4 0 20 -28 21 -32c23 1 41 -6 41 -29c0 -11 -12 -20 -24 -20
c-20 0 -43 1 -61 9c-18 -7 -26 -8 -36 -8c-9 0 -17 1 -34 2c-9 -9 -18 -9 -20 -9c-6 0 -13 4 -16 9l-10 -3l-20 4c-1 -2 -20 -2 -25 -5h-15c-8 0 -52 2 -43 16c20 0 97 24 97 49c0 27 -20 67 -34 91l3 9c-5 25 -25 76 -25 104c0 4 0 8 1 10c-4 10 -10 16 -20 22l-7 1
c-13 6 -32 10 -45 14c-28 -19 -45 -23 -78 -23s-52 37 -72 37c-6 0 -8 -4 -8 -11c0 -31 -93 -185 -110 -234c7 -23 57 -39 80 -48c1 -5 2 -11 2 -18v-6c-4 -8 -12 -16 -20 -16c-3 0 -16 4 -21 5c-4 -1 -11 -1 -17 -1c-22 0 -45 4 -68 4c-26 0 -27 -3 -53 -16
c-26 0 -22 4 -43 15c-4 -1 -10 -3 -16 -3c-7 0 -15 3 -19 9c1 11 -13 26 -17 33c0 29 15 31 32 31h17c7 0 11 0 17 1l17 -6c18 22 39 42 55 65c8 8 13 34 19 46c37 0 72 92 72 122c6 26 23 39 37 56c0 8 3 16 6 22c-6 11 0 22 2 27c52 53 19 42 40 84c-2 8 -6 16 -6 25
c0 1 3 15 4 16v14c0 24 9 16 31 29c1 8 2 30 15 31c1 20 26 45 26 59c0 13 -16 22 -16 30c0 10 32 48 41 57c5 1 43 15 47 15c40 0 25 -62 61 -89c5 -22 9 -34 9 -50c0 -8 -1 -16 -3 -28c16 -19 24 -45 30 -68c17 -15 24 -77 32 -87c9 -21 22 -38 38 -25z" />
    <glyph glyph-name="Otilde" unicode="&#xd5;" horiz-adv-x="788" 
d="M180 433c0 -5 -4 -24 -7 -26v-17c0 -29 5 -61 8 -90c24 -44 24 -103 49 -145c24 -10 36 -51 50 -73l14 -8c7 -10 18 -15 30 -18l7 -6c1 -6 3 -11 6 -16c6 -3 13 -7 20 -9l15 -4c8 6 26 10 38 11c5 0 13 -5 16 -6c3 1 6 1 9 1h5l6 7l12 -7c24 11 37 4 49 27c4 1 8 4 12 5
c-1 9 30 27 38 30c13 15 19 27 26 46l4 4c4 6 7 11 9 18l8 8c0 7 2 13 5 20v9c2 3 4 7 5 10v3c0 15 24 67 24 100c0 13 7 28 10 42l-3 11c1 6 1 10 1 16c0 25 -11 50 -13 75c-20 40 -22 97 -52 133c-4 -1 -19 10 -21 19l-13 10c-4 11 -12 20 -17 30c-22 9 -44 23 -64 35
c-11 4 -38 3 -46 3c-50 0 -109 -24 -145 -53l-16 -3c-39 -56 -77 -88 -77 -166c0 -8 -1 -17 -2 -26zM225 686l19 -9l20 18l3 10l12 -2c32 -1 60 23 89 23c9 0 17 -6 26 -6c7 5 34 7 41 7c32 -4 63 -11 94 -18c5 -2 9 -6 15 -8l8 2l13 -8c37 -2 69 -42 91 -68
c7 -3 15 -11 21 -17c10 -25 32 -35 38 -65c4 -3 25 -82 31 -92l-4 -11c2 -1 6 -20 6 -26c0 -7 -5 -14 -5 -20c0 -14 9 -24 9 -40c0 -68 -33 -180 -66 -239c-28 -16 -36 -73 -118 -101c-47 -41 -56 -24 -107 -37l-24 4l-14 -5h-7c-4 0 -8 -1 -15 -3c-31 3 -98 25 -126 23
c-7 1 -14 5 -20 9c-6 0 -17 15 -27 15c-46 0 -80 35 -104 70l-1 8c-18 24 -57 102 -57 133l-17 30c2 6 2 8 2 11c0 14 5 30 5 45c0 12 -2 28 -6 38c2 11 1 23 2 34l2 8c0 6 -2 11 -2 18c0 5 2 11 2 16l5 6l-2 10c2 5 2 22 2 28c3 21 16 39 22 61c6 4 9 10 9 17
c0 17 17 31 26 47c4 7 45 40 54 48l14 3c2 1 4 5 5 8c17 1 17 12 28 21zM256 831c0 23 3 29 21 45c18 17 60 21 78 18c15 -2 37 -21 54 -39c16 -17 28 -34 53 -34s27 7 37 25c9 16 3 48 19 48s24 -10 24 -28s1 -35 1 -43c0 -9 -45 -60 -79 -60s-55 9 -51 18
c3 7 -11 10 -17 7c-7 -3 -40 40 -41 49c-2 9 -26 9 -40 9c-15 0 -25 -15 -25 -31c0 -17 -5 -26 -16 -26c-12 0 -18 26 -18 42z" />
    <glyph glyph-name="OE" unicode="&#x152;" horiz-adv-x="1035" 
d="M474 674c-7 -24 8 -81 8 -98c0 -11 9 -81 14 -89c18 -31 -5 -59 -14 -93l5 -11c-4 -5 11 -6 13 -6c6 0 12 3 18 5c5 -2 27 -2 30 -2h15l13 3c3 1 49 1 85 2c-2 23 -11 45 -13 66c-20 40 -22 97 -52 133c-19 -1 -34 10 -36 19l-13 10c-4 11 -12 20 -17 30
c-19 8 -39 19 -56 31zM659 333c-68 2 -37 11 -51 11c-2 0 -65 -20 -73 -19c-11 7 -29 16 -40 16c-12 0 -14 -32 -14 -39c0 -12 16 -16 16 -28c0 -15 -9 -30 -13 -44c2 -1 6 -50 6 -51c0 -7 -2 -14 -3 -19c-4 -3 -4 -27 -4 -30c0 -9 0 -40 4 -46l-1 -49c9 3 14 7 21 19
c4 1 8 4 12 5c-1 9 30 27 38 30c13 15 19 27 26 46l4 4c4 6 7 11 24 18l8 8c0 7 2 13 5 20v9c2 3 4 7 5 10v3c0 15 24 67 24 100c0 9 3 18 6 26zM402 31c-2 35 -13 124 -10 134v15c-7 57 0 75 -4 82c12 50 14 121 -3 166c6 15 9 31 9 49c5 4 3 12 -1 27c-8 8 -10 34 -10 47
l-8 8l5 5c0 5 -3 9 -3 13c0 15 6 71 7 100c-40 -8 -81 -27 -109 -49l-16 -3c-39 -56 -77 -88 -77 -166c0 -8 -1 -17 -2 -26c0 -5 -4 -24 -7 -26v-17c0 -29 5 -61 8 -90c24 -44 24 -103 49 -145c24 -10 36 -51 50 -73l14 -8c7 -10 18 -15 30 -18l7 -6c1 -6 3 -11 6 -16
c6 -3 13 -7 20 -9l15 -4c6 5 19 9 30 10zM518 712h5c14 10 29 15 45 19l27 -9c9 0 32 0 106 3c9 6 26 11 40 11c6 0 23 -5 27 -8c5 -2 14 -3 19 -3h27c5 -6 14 -8 20 -10c46 10 105 3 105 -46c0 -7 -2 -15 -5 -21c1 -10 6 -15 11 -23c-5 -28 -3 -62 -18 -85l-6 -4
c-27 3 -40 31 -56 48c-35 4 -42 44 -53 48c-27 11 -13 45 -95 45c-24 0 -69 -1 -106 -3c17 -14 33 -32 45 -47c7 -3 15 -11 21 -17c10 -25 32 -35 38 -65c4 -3 25 -82 31 -92l-4 -11c2 -1 6 -20 6 -26c0 -7 -5 -14 -5 -20c0 -4 0 -7 1 -10c29 3 75 10 88 10c4 0 8 -2 13 -2
c11 3 25 11 32 21l-4 20c8 12 29 49 45 49c2 0 12 -3 15 -4l4 -17c-1 -5 -2 -10 -2 -15c0 -11 2 -20 7 -31c4 -20 0 -24 -2 -32l2 -2l-3 -8c0 -2 8 -103 8 -111c0 -1 -14 -10 -16 -11c0 -4 -11 -9 -13 -9c-42 0 -20 90 -79 90c-11 0 -57 -1 -88 -2c-5 -68 -35 -163 -65 -215
c-23 -12 -30 -54 -74 -82l67 -4c20 17 24 15 29 12l11 4l11 -4h8c11 0 21 -3 34 -3h23c21 0 37 1 60 14c35 3 76 60 76 95c0 3 -1 5 -1 8c5 13 20 33 34 33c23 0 27 -16 27 -32v-14c0 -16 5 -29 5 -45c0 -3 -1 -7 -1 -11c0 -2 3 -7 3 -9c0 -11 -4 -20 -6 -30
c0 -11 -13 -36 -15 -47c1 -2 2 -5 2 -9c0 -7 -13 -17 -19 -21h-9c-13 5 -39 14 -54 14c-4 0 -7 -2 -10 -3c-3 0 -7 -1 -10 -2l-8 2c-5 -2 -15 -2 -28 -2c-43 0 -122 6 -136 6c-7 0 -88 -6 -95 -8c-9 2 -18 6 -27 8c-14 -2 -38 0 -51 2c-20 -8 -19 3 -70 -10l-24 4l-14 -5h-7
c-4 0 -8 -1 -15 -3c-30 3 -98 25 -126 23c-7 1 -14 5 -20 9c-6 0 -17 15 -27 15c-45 0 -80 35 -104 70l-1 8c-18 24 -57 102 -57 133l-17 30c2 6 2 8 2 11c0 14 5 30 5 45c0 12 -2 28 -6 38c3 11 2 23 3 34l1 8c0 6 -1 11 -1 18c0 5 1 11 1 16l5 6l-2 10c2 5 2 22 2 28
c3 21 16 39 22 61c6 4 9 10 9 17c0 17 17 31 26 47c4 7 45 40 54 48l14 3c2 1 4 5 5 8c17 1 17 12 28 21l8 4l19 -9l21 18l2 10l12 -2c32 -1 60 23 89 23c9 0 17 -6 27 -6c6 5 33 7 41 7c27 -3 53 -9 81 -15z" />
    <glyph glyph-name="oe" unicode="&#x153;" horiz-adv-x="766" 
d="M139 190c0 -11 9 -33 14 -41c13 -20 32 -84 52 -94c17 -8 30 -20 51 -20c67 1 51 8 94 46c3 2 7 2 8 5c5 9 33 74 23 83c-4 3 -5 16 -5 20c0 8 9 25 9 34c0 7 0 12 3 18c-8 22 -14 61 -15 71c0 5 -8 14 -9 17c-1 14 -6 20 -6 15c-23 30 -54 62 -91 69
c-8 0 -16 -9 -24 -13c-5 1 -8 1 -12 1c-33 0 -51 -20 -66 -48c-21 -39 -24 -63 -24 -87c0 -11 1 -22 1 -33c0 -12 -1 -26 -3 -43zM425 366c37 49 65 46 106 62c5 2 12 -2 17 -2c3 0 17 19 28 19c10 -2 17 -11 26 -13c34 -6 69 -3 100 -31c6 -5 -3 -9 3 -15
c12 -16 26 -53 26 -75c0 -20 -9 -24 -22 -24c-6 0 -14 1 -19 1c-17 0 -41 -8 -58 -10c-11 -1 -29 -2 -43 -2c-16 2 -28 3 -42 3c-15 0 -29 -1 -44 -1c-6 0 -16 6 -22 7l-9 -17c0 -10 -2 -21 -2 -31c0 -9 -4 -12 1 -43c6 -38 32 -82 65 -110c21 -18 26 -26 52 -26
c17 0 37 0 50 13c12 9 51 64 65 64c8 -3 15 -12 15 -20l-4 -11l-6 -4c-9 -18 -27 -70 -37 -82c-12 -15 -33 -41 -53 -41c-16 0 -32 -2 -49 -2c-8 0 -16 0 -24 2c-49 13 -90 41 -125 74c-2 -2 -23 -35 -35 -37c-5 -1 -32 -11 -38 -13l-16 6c-29 -10 -31 -28 -80 -28
c-5 0 -10 0 -14 4c-9 6 -11 17 -24 20l-20 -5c-25 11 -48 18 -72 28c-6 15 -16 0 -46 40c-3 7 -7 14 -9 22v16c-10 17 -14 31 -23 48l4 13c-1 1 -1 8 -1 16c0 17 1 40 2 46l-4 9c5 78 6 107 54 166c13 17 37 21 55 31c7 4 13 5 21 5c11 0 22 -3 31 -3l24 13h12
c9 0 21 0 26 -2c4 5 41 4 56 4c14 0 30 -17 43 -21c17 -7 32 -16 42 -30zM527 323c11 -4 41 -5 50 -5c14 0 27 -6 39 -6c13 0 25 5 25 21v16c0 2 -5 24 -8 27c-14 15 -46 16 -65 16c-4 -1 -28 -15 -31 -15c-18 -1 -51 -32 -54 -50c0 -4 -2 -12 12 -12c3 0 24 8 32 8z" />
    <glyph glyph-name="endash" unicode="&#x2013;" horiz-adv-x="424" 
d="M185 319c32 1 107 7 117 7s10 -6 26 -6s48 5 63 5s10 -26 10 -42s-20 -19 -37 -19s-20 -3 -37 -3s-100 -6 -113 -6c-12 0 -12 -2 -21 -2s-9 5 -28 5c-25 -1 -59 -8 -86 -8c-28 0 -25 -4 -44 -4c-18 0 -21 12 -21 25c0 14 5 15 5 25c0 13 8 15 33 15c26 0 37 5 51 5
c13 0 42 -4 82 3z" />
    <glyph glyph-name="emdash" unicode="&#x2014;" horiz-adv-x="625" 
d="M264 319c32 1 222 7 232 7s10 -6 26 -6s48 5 63 5s10 -26 10 -42s-20 -19 -38 -19c-17 0 -19 -3 -36 -3s-100 -6 -113 -6c-12 0 -126 -2 -136 -2c-9 0 -9 5 -27 5c-25 -1 -139 -8 -166 -8c-28 0 -25 -4 -44 -4c-18 0 -21 12 -21 25c0 14 5 15 5 25c0 13 8 15 33 15
c26 0 117 5 130 5c14 0 43 -4 82 3z" />
    <glyph glyph-name="quotedblleft" unicode="&#x201c;" horiz-adv-x="429" 
d="M356 569c1 -27 -15 -66 -52 -66c-25 0 -5 5 -29 5s-45 30 -45 61s8 72 17 90s23 48 37 52c7 3 42 40 66 40c15 0 17 -12 17 -20s-20 -21 -30 -25c-9 -5 -25 -25 -33 -33s-13 -35 -13 -53s24 -18 34 -18s30 -16 31 -33zM178 569c1 -27 -15 -66 -51 -66c-26 0 -6 5 -30 5
s-45 30 -45 61s8 72 18 90c9 18 22 48 36 52c7 3 42 40 66 40c15 0 17 -12 17 -20s-20 -21 -29 -25c-10 -5 -25 -25 -33 -33s-14 -35 -14 -53s24 -18 34 -18s30 -16 31 -33z" />
    <glyph glyph-name="quotedblright" unicode="&#x201d;" horiz-adv-x="429" 
d="M64 656c-1 27 15 66 51 66c25 0 6 -6 30 -6s44 -30 44 -60c0 -31 -8 -72 -17 -91c-9 -18 -23 -47 -36 -52c-7 -2 -43 -40 -66 -40c-15 0 -18 13 -18 21s21 20 30 25c9 4 25 25 33 33s14 34 14 52s-24 18 -34 18c-11 0 -30 16 -31 34zM242 656c-1 27 14 66 51 66
c25 0 6 -6 30 -6s44 -30 44 -60c0 -31 -8 -72 -17 -91c-9 -18 -23 -47 -36 -52c-7 -2 -43 -40 -67 -40c-14 0 -17 13 -17 21s21 20 30 25c9 4 25 25 33 33s14 34 14 52s-24 18 -35 18c-10 0 -29 16 -30 34z" />
    <glyph glyph-name="quoteleft" unicode="&#x2018;" horiz-adv-x="242" 
d="M178 569c1 -27 -15 -66 -51 -66c-26 0 -6 5 -30 5s-45 30 -45 61s8 72 18 90c9 18 22 48 36 52c7 3 42 40 66 40c15 0 17 -12 17 -20s-20 -21 -29 -25c-10 -5 -25 -25 -33 -33s-14 -35 -14 -53s24 -18 34 -18s30 -16 31 -33z" />
    <glyph glyph-name="quoteright" unicode="&#x2019;" horiz-adv-x="251" 
d="M64 656c-1 27 15 66 51 66c25 0 6 -6 30 -6s44 -30 44 -60c0 -31 -8 -72 -17 -91c-9 -18 -23 -47 -36 -52c-7 -2 -43 -40 -66 -40c-15 0 -18 13 -18 21s21 20 30 25c9 4 25 25 33 33s14 34 14 52s-24 18 -34 18c-11 0 -30 16 -31 34z" />
    <glyph glyph-name="ydieresis" unicode="&#xff;" horiz-adv-x="467" 
d="M417 450c22 0 20 27 41 11c3 -3 6 -11 6 -13c0 -17 -9 -27 -9 -44c0 -10 -21 -13 -26 -18c-29 -19 -15 -42 -45 -65c-9 -4 -17 -20 -17 -27c0 -15 11 -8 0 -27c0 -13 -18 -46 -24 -54c-18 -26 -17 -73 -41 -92c-3 -38 -38 -78 -38 -99c-15 -16 -11 -57 -26 -87
c-2 -3 -4 -8 -4 -11c0 -2 -8 -51 -11 -52c-3 0 -9 5 -11 5c-5 0 -3 -34 -6 -39c-20 -43 -70 -111 -120 -114c-18 -1 -36 -15 -52 -15s-31 11 -45 11c-3 0 -23 6 -29 11c1 1 -10 11 -10 13c0 6 -7 10 -9 17c-3 8 -3 13 -3 21c0 23 28 52 51 52c43 0 27 -38 34 -53
c7 -14 25 -27 39 -27c2 0 3 1 4 1c41 9 64 22 72 69c1 13 12 23 15 36c0 3 -1 5 -1 9c0 19 20 33 22 47c2 13 23 58 23 85c0 15 -11 26 -17 40c-1 3 -2 0 -2 18c0 15 -25 71 -33 88c-1 1 -65 147 -70 153c-15 26 -26 98 -54 104c-13 0 -12 -14 -24 -14c-18 0 -28 20 -28 39
c-1 20 7 35 15 37c9 1 19 3 29 3c35 0 46 -19 59 -22c10 0 17 -5 25 -5c40 0 112 23 124 -9c0 -2 -4 -5 -8 -8c-15 -12 -61 -17 -61 -42c0 -5 12 -25 13 -31c1 -23 11 -41 21 -60c4 -40 33 -77 42 -110c7 -28 -7 -53 23 -67c23 -1 48 61 48 83c0 4 26 60 26 63
c0 5 -4 8 -4 13c0 6 0 27 29 47c-3 5 -7 12 -7 18c0 9 12 10 12 13c0 4 -5 6 -6 9c-25 68 -45 25 -64 70l1 14c8 19 33 2 46 2c7 1 12 6 19 6c-4 0 14 -4 26 -4c15 0 31 1 40 1zM116 593c-1 10 4 27 5 35c26 22 16 6 41 17c15 6 43 -10 43 -27c0 -1 -1 -5 -2 -6l2 -8
c-4 -16 -11 -32 -23 -42c-5 -3 -12 -5 -18 -5c-2 0 -16 7 -18 7c-14 0 -22 19 -30 29zM376 617c1 -11 -3 -28 -4 -36c-27 -21 -16 -5 -41 -17c-15 -5 -44 11 -44 28c0 1 1 4 3 5l-3 8c5 16 12 32 23 43c6 3 13 4 18 4c3 0 16 -7 19 -7c13 0 21 -18 29 -28z" />
    </font>
</defs>
</svg>
