<?xml version="1.0" encoding="utf-8"?>
<!-- Generator: Adobe Illustrator 15.1.0, SVG Export Plug-In  -->
<!DOCTYPE svg PUBLIC "-//W3C//DTD SVG 1.1//EN" "http://www.w3.org/Graphics/SVG/1.1/DTD/svg11.dtd" [
	<!ENTITY ns_flows "http://ns.adobe.com/Flows/1.0/">
]>
<svg version="1.1"
	 xmlns="http://www.w3.org/2000/svg" xmlns:xlink="http://www.w3.org/1999/xlink" xmlns:a="http://ns.adobe.com/AdobeSVGViewerExtensions/3.0/"
	 x="0px" y="0px" width="416px" height="86px" viewBox="0 0 416 86" overflow="visible" enable-background="new 0 0 416 86"
	 xml:space="preserve">
<defs>
</defs>
<rect fill="#029DD3" width="24" height="24"/>
<rect x="31" fill="#029DD3" width="24" height="24"/>
<rect x="62" fill="#029DD3" width="24" height="24"/>
<rect y="31" fill="#029DD3" width="24" height="24"/>
<rect x="31" y="31" fill="#FFFFFF" width="24" height="24"/>
<rect x="62" y="31" fill="#FFFFFF" width="24" height="24"/>
<rect y="62" fill="#029DD3" width="24" height="24"/>
<rect x="31" y="62" fill="#029DD3" width="24" height="24"/>
<rect x="62" y="62" fill="#029DD3" width="24" height="24"/>
<path fill="#FFFFFF" d="M155.766,63.437H144.48c-4.352,0-7.707-0.336-10.064-1.007c-2.359-0.671-4.354-1.86-5.979-3.568
	c-3.578-3.741-5.367-8.987-5.367-15.738c0-7.481,2.297-13.176,6.893-17.08c1.463-1.219,3.008-2.073,4.635-2.562
	c1.627-0.487,3.803-0.731,6.527-0.731h14.641v7.258H144.48c-2.928,0-5.074,0.205-6.436,0.611c-1.363,0.406-2.492,1.199-3.385,2.379
	c-0.611,0.813-1.018,1.606-1.221,2.379s-0.387,2.176-0.549,4.209h22.875v7.259h-22.875c0.283,3.457,1.311,5.877,3.08,7.259
	c1.77,1.383,4.729,2.074,8.875,2.074h10.92V63.437z"/>
<path fill="#FFFFFF" d="M207.555,46.688c0,6.253-1.465,10.598-4.393,13.034c-3.172,2.64-7.625,3.959-13.359,3.959
	c-6.426,0-11.102-1.482-14.029-4.446c-1.383-1.421-2.35-2.995-2.898-4.721s-0.822-4.131-0.822-7.218V22.75h8.662v24.295
	c0,3.613,0.752,6.109,2.256,7.489c1.709,1.543,4.006,2.314,6.895,2.314c4.391,0,7.156-1.299,8.295-3.897
	c0.488-1.096,0.732-3.064,0.732-5.906V22.75h8.662V46.688z"/>
<path fill="#FFFFFF" d="M309.424,63.437h-11.285c-4.352,0-7.707-0.336-10.064-1.007c-2.359-0.671-4.354-1.86-5.979-3.568
	c-3.58-3.741-5.369-8.987-5.369-15.738c0-7.481,2.297-13.176,6.895-17.08c1.463-1.219,3.008-2.073,4.635-2.562
	c1.627-0.487,3.803-0.731,6.527-0.731h14.641v7.258h-11.285c-2.928,0-5.074,0.205-6.436,0.611c-1.363,0.406-2.492,1.199-3.387,2.379
	c-0.609,0.813-1.016,1.606-1.219,2.379c-0.205,0.772-0.387,2.176-0.549,4.209h22.875v7.259h-22.875
	c0.283,3.457,1.311,5.877,3.08,7.259c1.77,1.383,4.727,2.074,8.875,2.074h10.92V63.437z"/>
<rect x="326.139" y="22.75" fill="#FFFFFF" width="8.66" height="40.687"/>
<polygon fill="#FFFFFF" points="362.006,22.75 345.047,42.818 361.213,63.437 349.807,63.437 335.105,42.818 350.66,22.75 "/>
<path fill="#FFFFFF" d="M399.154,23h-9.943l-16.836,41h10.166l3.912-10h15.523l3.912,10h10.102L399.154,23z M388.4,47l5.814-14.211
	L400.029,47H388.4z"/>
<path fill="#FFFFFF" d="M263.896,64l-8.787-17.371c0.783-0.282,1.463-0.678,2.033-1.068c3.008-2.074,4.514-5.03,4.514-8.935
	c0-0.439-0.018-0.849-0.043-1.265c0.025-0.418,0.043-0.818,0.043-1.258c0-3.904-1.506-6.771-4.514-8.846
	C254.824,23.672,250.756,23,244.941,23H225v41h9V48h6.672h4.27c0.277,0,0.529-0.009,0.797-0.012L253.896,64H263.896z M234,41V30
	h11.896c4.088,0,6.158,1.928,6.23,5.5c-0.072,3.572-2.143,5.5-6.23,5.5H234z"/>
</svg>
